<svg xmlns="http://www.w3.org/2000/svg" viewBox="0 0 480 160" width="480" height="160">
  <rect width="480" height="160" fill="#4A5A62"/>
  <g fill="#F4F1EA">
    <path transform="translate(102.588, 98) scale(0.07200, -0.07200)" d="M295 -12Q165 -12 104.0 39.0Q43 90 37 169L189 174Q196 136 220.0 115.0Q244 94 295 94Q378 94 378 148Q378 165 370.0 176.0Q362 187 339.0 195.5Q316 204 271 211Q187 226 139.5 246.5Q92 267 72.5 298.5Q53 330 53 376Q53 453 113.0 500.5Q173 548 292 548Q372 548 424.0 524.0Q476 500 502.5 458.0Q529 416 533 364L383 358Q381 395 358.5 418.5Q336 442 290 442Q250 442 229.0 425.5Q208 409 208 382Q208 353 228.5 338.5Q249 324 304 316Q389 303 439.0 282.0Q489 261 510.5 229.0Q532 197 532 150Q532 72 468.0 30.0Q404 -12 295 -12Z"/>
    <path transform="translate(142.188, 98) scale(0.07200, -0.07200)" d="M309 -12Q227 -12 166.0 22.5Q105 57 71.0 120.0Q37 183 37 268Q37 353 71.0 415.5Q105 478 166.0 513.0Q227 548 309 548Q391 548 452.5 513.0Q514 478 547.5 415.5Q581 353 581 268Q581 183 547.5 120.0Q514 57 452.5 22.5Q391 -12 309 -12ZM309 103Q365 103 396.0 146.5Q427 190 427 268Q427 346 396.0 389.5Q365 433 309 433Q253 433 222.0 389.5Q191 346 191 268Q191 190 222.0 146.5Q253 103 309 103Z"/>
    <path transform="translate(185.244, 98) scale(0.07200, -0.07200)" d="M206 0Q140 0 103.0 32.5Q66 65 66 140V710H216V156Q216 132 227.0 122.0Q238 112 259 112H295V0Z"/>
    <path transform="translate(206.340, 98) scale(0.07200, -0.07200)" d="M66 0V536H216V0ZM63 602V722H218V602Z"/>
    <path transform="translate(225.132, 98) scale(0.07200, -0.07200)" d="M257 -12Q189 -12 139.5 22.0Q90 56 63.5 119.0Q37 182 37 268Q37 354 64.0 416.5Q91 479 140.5 513.5Q190 548 257 548Q314 548 355.5 524.5Q397 501 418 460V710H568V0H425L422 79Q399 36 355.5 12.0Q312 -12 257 -12ZM306 103Q360 103 389.0 145.0Q418 187 418 268Q418 350 389.0 391.5Q360 433 306 433Q253 433 222.0 389.0Q191 345 191 268Q191 193 222.5 148.0Q254 103 306 103Z"/>
    <path transform="translate(269.340, 98) scale(0.07200, -0.07200)" d="M206 0Q140 0 103.0 32.5Q66 65 66 140V710H216V156Q216 132 227.0 122.0Q238 112 259 112H295V0Z"/>
    <path transform="translate(290.436, 98) scale(0.07200, -0.07200)" d="M225 -12Q141 -12 89.0 26.5Q37 65 37 134Q37 205 81.5 243.5Q126 282 213 300L386 334Q386 439 295 439Q212 439 197 362L46 369Q61 457 125.5 502.5Q190 548 295 548Q415 548 475.5 490.5Q536 433 536 324V141Q536 118 543.5 110.5Q551 103 566 103H581V0Q574 -2 558.5 -4.0Q543 -6 528 -6Q487 -6 454.5 11.5Q422 29 412 77L410 82Q390 39 342.0 13.5Q294 -12 225 -12ZM261 91Q317 91 351.5 124.0Q386 157 386 214V240L264 214Q191 200 191 148Q191 91 261 91Z"/>
    <path transform="translate(331.764, 98) scale(0.07200, -0.07200)" d="M374 -12Q318 -12 276.5 12.0Q235 36 212 79L209 0H66V710H216V460Q237 497 278.0 522.5Q319 548 374 548Q442 548 492.0 513.5Q542 479 569.5 416.0Q597 353 597 268Q597 183 569.5 120.0Q542 57 492.0 22.5Q442 -12 374 -12ZM332 103Q382 103 412.5 146.5Q443 190 443 268Q443 346 413.0 389.5Q383 433 333 433Q277 433 246.5 389.5Q216 346 216 268Q216 191 246.5 147.0Q277 103 332 103Z"/>
  </g>
</svg>
