<svg xmlns="http://www.w3.org/2000/svg" viewBox="0 0 1000 2200" width="1000" height="2200">
  <g>
    <circle cx="500.0" cy="500" r="470" fill="#0A0A0A"/>
    <rect x="330.0" y="899.5" 
          width="340" height="1240.5" 
          rx="170.0" ry="170.0" fill="#0A0A0A"/>
    <circle cx="500.0" cy="1990" r="70" fill="white"/>
  </g>
  <g transform="translate(227.76, 630.00) scale(0.48, -0.48)"><path d="M40 -110 335 750H415L120 -110Z" fill="#6B8290"/></g>
  <g transform="translate(478.16, 630.00) scale(0.48, -0.48)"><path d="M294.59912109375 -12Q211.599609375 -12 155.79986572265625 11.29998779296875Q100.0001220703125 34.5999755859375 70.40020751953125 75.39996337890625Q40.80029296875 116.199951171875 36.80029296875 168.7999267578125L188.9976806640625 174.199951171875Q195.7977294921875 135.799560546875 220.998046875 115.0992431640625Q246.1983642578125 94.39892578125 295.1990966796875 94.39892578125Q335.399658203125 94.39892578125 357.7000732421875 107.39910888671875Q380.00048828125 120.3992919921875 380.00048828125 147.3997802734375Q380.00048828125 164.199951171875 371.8004150390625 175.50006103515625Q363.600341796875 186.8001708984375 340.30010986328125 195.20025634765625Q316.9998779296875 203.600341796875 271.3994140625 211.200439453125Q186.3997802734375 225.8004150390625 138.0999755859375 246.00042724609375Q89.8001708984375 266.200439453125 69.80023193359375 297.900390625Q49.80029296875 329.600341796875 49.80029296875 376.400146484375Q49.80029296875 453.39990234375 109.5999755859375 500.6998291015625Q169.399658203125 547.999755859375 288.19873046875 547.999755859375Q363.998291015625 547.999755859375 415.39801025390625 524.1997680664062Q466.7977294921875 500.3997802734375 495.297607421875 458.89990234375Q523.7974853515625 417.4000244140625 530.5975341796875 363.600341796875L380.2000732421875 357.600341796875Q376.5999755859375 383.8004150390625 364.49981689453125 402.60052490234375Q352.399658203125 421.400634765625 332.9993896484375 431.500732421875Q313.59912109375 441.600830078125 286.5987548828125 441.600830078125Q246.998046875 441.600830078125 225.69781494140625 425.30059814453125Q204.3975830078125 409.0003662109375 204.3975830078125 381.60009765625Q204.3975830078125 362.1998291015625 213.897705078125 349.59967041015625Q223.3978271484375 336.99951171875 245.3980712890625 329.19940185546875Q267.3983154296875 321.3992919921875 304.19873046875 315.7991943359375Q389.99853515625 303.59912109375 440.3983154296875 282.399169921875Q490.798095703125 261.19921875 512.6979370117188 228.89935302734375Q534.5977783203125 196.5994873046875 534.5977783203125 150.399658203125Q534.5977783203125 98.3997802734375 504.99786376953125 62.099853515625Q475.39794921875 25.7999267578125 421.6982421875 6.89996337890625Q367.99853515625 -12 294.59912109375 -12Z" fill="#F4F1EA"/></g>
  <g transform="translate(463.7, 1700.18) rotate(-90)">
    <g transform="translate(0.00, 0.00) scale(0.11, -0.11)"><path d="M294.59912109375 -12Q211.599609375 -12 155.79986572265625 11.29998779296875Q100.0001220703125 34.5999755859375 70.40020751953125 75.39996337890625Q40.80029296875 116.199951171875 36.80029296875 168.7999267578125L188.9976806640625 174.199951171875Q195.7977294921875 135.799560546875 220.998046875 115.0992431640625Q246.1983642578125 94.39892578125 295.1990966796875 94.39892578125Q335.399658203125 94.39892578125 357.7000732421875 107.39910888671875Q380.00048828125 120.3992919921875 380.00048828125 147.3997802734375Q380.00048828125 164.199951171875 371.8004150390625 175.50006103515625Q363.600341796875 186.8001708984375 340.30010986328125 195.20025634765625Q316.9998779296875 203.600341796875 271.3994140625 211.200439453125Q186.3997802734375 225.8004150390625 138.0999755859375 246.00042724609375Q89.8001708984375 266.200439453125 69.80023193359375 297.900390625Q49.80029296875 329.600341796875 49.80029296875 376.400146484375Q49.80029296875 453.39990234375 109.5999755859375 500.6998291015625Q169.399658203125 547.999755859375 288.19873046875 547.999755859375Q363.998291015625 547.999755859375 415.39801025390625 524.1997680664062Q466.7977294921875 500.3997802734375 495.297607421875 458.89990234375Q523.7974853515625 417.4000244140625 530.5975341796875 363.600341796875L380.2000732421875 357.600341796875Q376.5999755859375 383.8004150390625 364.49981689453125 402.60052490234375Q352.399658203125 421.400634765625 332.9993896484375 431.500732421875Q313.59912109375 441.600830078125 286.5987548828125 441.600830078125Q246.998046875 441.600830078125 225.69781494140625 425.30059814453125Q204.3975830078125 409.0003662109375 204.3975830078125 381.60009765625Q204.3975830078125 362.1998291015625 213.897705078125 349.59967041015625Q223.3978271484375 336.99951171875 245.3980712890625 329.19940185546875Q267.3983154296875 321.3992919921875 304.19873046875 315.7991943359375Q389.99853515625 303.59912109375 440.3983154296875 282.399169921875Q490.798095703125 261.19921875 512.6979370117188 228.89935302734375Q534.5977783203125 196.5994873046875 534.5977783203125 150.399658203125Q534.5977783203125 98.3997802734375 504.99786376953125 62.099853515625Q475.39794921875 25.7999267578125 421.6982421875 6.89996337890625Q367.99853515625 -12 294.59912109375 -12Z" fill="#F4F1EA"/></g><g transform="translate(62.81, 0.00) scale(0.11, -0.11)"><path d="M309.1990966796875 -12Q227.199462890625 -12 165.89971923828125 22.5999755859375Q104.5999755859375 57.199951171875 70.70013427734375 120.2999267578125Q36.80029296875 183.39990234375 36.80029296875 267.9998779296875Q36.80029296875 352.9998779296875 70.70013427734375 415.599853515625Q104.5999755859375 478.1998291015625 165.89971923828125 513.0997924804688Q227.199462890625 547.999755859375 309.1990966796875 547.999755859375Q391.19873046875 547.999755859375 452.2984619140625 513.0997924804688Q513.398193359375 478.1998291015625 547.2980346679688 415.599853515625Q581.1978759765625 352.9998779296875 581.1978759765625 267.9998779296875Q581.1978759765625 183.39990234375 547.2980346679688 120.2999267578125Q513.398193359375 57.199951171875 452.2984619140625 22.5999755859375Q391.19873046875 -12 309.1990966796875 -12ZM309.1990966796875 103.3985595703125Q365.3997802734375 103.3985595703125 396.00018310546875 146.59893798828125Q426.6005859375 189.79931640625 426.6005859375 267.9998779296875Q426.6005859375 345.6004638671875 396.00018310546875 389.100830078125Q365.3997802734375 432.6011962890625 309.1990966796875 432.6011962890625Q252.9984130859375 432.6011962890625 222.197998046875 389.100830078125Q191.3975830078125 345.6004638671875 191.3975830078125 267.9998779296875Q191.3975830078125 189.79931640625 222.197998046875 146.59893798828125Q252.9984130859375 103.3985595703125 309.1990966796875 103.3985595703125Z" fill="#F4F1EA"/></g><g transform="translate(130.79, 0.00) scale(0.11, -0.11)"><path d="M205.59912109375 0Q140.39990234375 0 103.000244140625 32.9996337890625Q65.6005859375 65.999267578125 65.6005859375 139.598388671875V710H215.597900390625V155.5980224609375Q215.597900390625 132.3983154296875 226.79779052734375 122.098388671875Q237.9976806640625 111.7984619140625 258.7974853515625 111.7984619140625H294.597900390625V0Z" fill="#F4F1EA"/></g><g transform="translate(165.22, 0.00) scale(0.11, -0.11)"><path d="M65.6005859375 0V535.999755859375H215.597900390625V0ZM63.0006103515625 601.6004638671875V722.3995361328125H218.1978759765625V601.6004638671875Z" fill="#F4F1EA"/></g><g transform="translate(196.13, 0.00) scale(0.11, -0.11)"><path d="M256.6004638671875 -12Q188.8004150390625 -12 139.5003662109375 22.29998779296875Q90.2003173828125 56.5999755859375 63.50030517578125 119.49993896484375Q36.80029296875 182.39990234375 36.80029296875 267.9998779296875Q36.80029296875 353.599853515625 63.80029296875 416.49981689453125Q90.80029296875 479.3997802734375 140.40032958984375 513.6997680664062Q190.0003662109375 547.999755859375 256.6004638671875 547.999755859375Q313.80029296875 547.999755859375 355.400390625 524.5997924804688Q397.00048828125 501.1998291015625 418.4005126953125 459.599853515625V710H568.3978271484375V0H424.6005859375L421.6005859375 78.800048828125Q399.6005859375 35.800048828125 356.10052490234375 11.9000244140625Q312.6004638671875 -12 256.6004638671875 -12ZM305.9991455078125 103.3985595703125Q342.1995849609375 103.3985595703125 367.19989013671875 121.998779296875Q392.2001953125 140.5989990234375 405.30035400390625 177.29931640625Q418.4005126953125 213.9996337890625 418.4005126953125 267.9998779296875Q418.4005126953125 322.8001708984375 405.30035400390625 359.30047607421875Q392.2001953125 395.80078125 367.19989013671875 414.20098876953125Q342.1995849609375 432.6011962890625 305.9991455078125 432.6011962890625Q253.3984375 432.6011962890625 222.39801025390625 388.5008544921875Q191.3975830078125 344.4005126953125 191.3975830078125 267.9998779296875Q191.3975830078125 193.19921875 222.697998046875 148.29888916015625Q253.9984130859375 103.3985595703125 305.9991455078125 103.3985595703125Z" fill="#F4F1EA"/></g><g transform="translate(265.87, 0.00) scale(0.11, -0.11)"><path d="M184 0Q138 0 109.0 24.0Q80 48 80 100V710H164V107Q164 91 172.5 82.5Q181 74 197 74H243V0Z" fill="#F4F1EA"/></g><g transform="translate(295.24, 0.00) scale(0.11, -0.11)"><path d="M223 -12Q141 -12 92.5 26.0Q44 64 44 132Q44 200 84.0 239.0Q124 278 211 294L399 329Q399 396 367.5 429.0Q336 462 273 462Q218 462 186.0 437.5Q154 413 142 367L53 374Q68 449 125.5 495.5Q183 542 273 542Q375 542 429.0 484.5Q483 427 483 326V107Q483 89 489.5 81.5Q496 74 511 74H532V0Q528 -1 519.0 -1.5Q510 -2 500 -2Q464 -2 441.5 9.5Q419 21 409.0 45.5Q399 70 399 110L409 108Q402 74 375.0 46.5Q348 19 308.0 3.5Q268 -12 223 -12ZM231 62Q284 62 321.5 82.5Q359 103 379.0 138.5Q399 174 399 218V256L227 224Q173 214 152.5 193.5Q132 173 132 140Q132 103 158.5 82.5Q185 62 231 62Z" fill="#F4F1EA"/></g><g transform="translate(355.85, 0.00) scale(0.11, -0.11)"><path d="M323 -12Q268 -12 225.0 12.5Q182 37 159 80L156 0H80V710H164V456Q184 489 226.0 515.5Q268 542 323 542Q393 542 444.0 508.0Q495 474 523.0 412.0Q551 350 551 265Q551 180 523.0 118.0Q495 56 444.0 22.0Q393 -12 323 -12ZM318 68Q385 68 424.0 121.0Q463 174 463 265Q463 357 424.0 409.5Q385 462 320 462Q271 462 236.0 438.5Q201 415 182.5 371.0Q164 327 164 265Q164 205 182.5 160.5Q201 116 235.5 92.0Q270 68 318 68Z" fill="#F4F1EA"/></g><g transform="translate(421.30, 0.00) scale(0.11, -0.11)"><path d="M44 0V113H157V0Z" fill="#6B8290"/></g><g transform="translate(443.41, 0.00) scale(0.11, -0.11)"><path d="M223 -12Q141 -12 92.5 26.0Q44 64 44 132Q44 200 84.0 239.0Q124 278 211 294L399 329Q399 396 367.5 429.0Q336 462 273 462Q218 462 186.0 437.5Q154 413 142 367L53 374Q68 449 125.5 495.5Q183 542 273 542Q375 542 429.0 484.5Q483 427 483 326V107Q483 89 489.5 81.5Q496 74 511 74H532V0Q528 -1 519.0 -1.5Q510 -2 500 -2Q464 -2 441.5 9.5Q419 21 409.0 45.5Q399 70 399 110L409 108Q402 74 375.0 46.5Q348 19 308.0 3.5Q268 -12 223 -12ZM231 62Q284 62 321.5 82.5Q359 103 379.0 138.5Q399 174 399 218V256L227 224Q173 214 152.5 193.5Q132 173 132 140Q132 103 158.5 82.5Q185 62 231 62Z" fill="#6B8290"/></g><g transform="translate(504.02, 0.00) scale(0.11, -0.11)"><path d="M80 0V530H164V0ZM78 613V711H166V613Z" fill="#6B8290"/></g>
  </g>
</svg>