<svg xmlns="http://www.w3.org/2000/svg" viewBox="0 0 2000 2000" width="2000" height="2000">
  <circle cx="1000.0" cy="1000.0" r="980.0" fill="#0A0A0A"/>
  <line x1="900.0" y1="1195.0" x2="1100.0" y2="1195.0" stroke="#4A5A62" stroke-width="2"/>
  <g transform="translate(726.82, 840.00) scale(0.12, -0.12)"><path d="M229 0 37 710H196L318 210L441 710H574L698 210L819 710H978L787 0H623L507 454L391 0Z" fill="#F4F1EA"/></g><g transform="translate(848.62, 840.00) scale(0.12, -0.12)"><path d="M307 -12Q225 -12 164.5 23.0Q104 58 70.5 120.5Q37 183 37 268Q37 352 70.0 415.0Q103 478 163.5 513.0Q224 548 306 548Q386 548 445.0 513.0Q504 478 536.5 413.0Q569 348 569 258V228H192Q195 164 226.5 133.0Q258 102 310 102Q388 102 410 167L561 158Q539 78 471.5 33.0Q404 -12 307 -12ZM192 320H415Q412 379 382.5 408.0Q353 437 306 437Q259 437 228.5 406.5Q198 376 192 320Z" fill="#F4F1EA"/></g><g transform="translate(948.58, 840.00) scale(0.12, -0.12)"><path d="M374 -12Q318 -12 276.5 12.0Q235 36 212 79L209 0H66V710H216V460Q237 497 278.0 522.5Q319 548 374 548Q442 548 492.0 513.5Q542 479 569.5 416.0Q597 353 597 268Q597 183 569.5 120.0Q542 57 492.0 22.5Q442 -12 374 -12ZM332 103Q382 103 412.5 146.5Q443 190 443 268Q443 346 413.0 389.5Q383 433 333 433Q277 433 246.5 389.5Q216 346 216 268Q216 191 246.5 147.0Q277 103 332 103Z" fill="#F4F1EA"/></g><g transform="translate(1024.66, 840.00) scale(0.12, -0.12)"><path d="M242 -12Q159 -12 112.5 41.5Q66 95 66 191V536H216V226Q216 164 235.0 135.5Q254 107 295 107Q341 107 366.5 138.5Q392 170 392 233V536H542V0H405L403 87Q362 -12 242 -12Z" fill="#F4F1EA"/></g><g transform="translate(1097.50, 840.00) scale(0.12, -0.12)"><path d="M66 0V536H216V0ZM63 602V722H218V602Z" fill="#F4F1EA"/></g><g transform="translate(1131.22, 840.00) scale(0.12, -0.12)"><path d="M206 0Q140 0 103.0 32.5Q66 65 66 140V710H216V156Q216 132 227.0 122.0Q238 112 259 112H295V0Z" fill="#F4F1EA"/></g><g transform="translate(1168.78, 840.00) scale(0.12, -0.12)"><path d="M257 -12Q189 -12 139.5 22.0Q90 56 63.5 119.0Q37 182 37 268Q37 354 64.0 416.5Q91 479 140.5 513.5Q190 548 257 548Q314 548 355.5 524.5Q397 501 418 460V710H568V0H425L422 79Q399 36 355.5 12.0Q312 -12 257 -12ZM306 103Q360 103 389.0 145.0Q418 187 418 268Q418 350 389.0 391.5Q360 433 306 433Q253 433 222.0 389.0Q191 345 191 268Q191 193 222.5 148.0Q254 103 306 103Z" fill="#F4F1EA"/></g><g transform="translate(1244.86, 840.00) scale(0.12, -0.12)"><path d="M37 0V153H200V0Z" fill="#F4F1EA"/></g>
  <g transform="translate(726.58, 980.00) scale(0.12, -0.12)"><path d="M229 0 37 710H196L318 210L441 710H574L698 210L819 710H978L787 0H623L507 454L391 0Z" fill="#F4F1EA"/></g><g transform="translate(848.38, 980.00) scale(0.12, -0.12)"><path d="M307 -12Q225 -12 164.5 23.0Q104 58 70.5 120.5Q37 183 37 268Q37 352 70.0 415.0Q103 478 163.5 513.0Q224 548 306 548Q386 548 445.0 513.0Q504 478 536.5 413.0Q569 348 569 258V228H192Q195 164 226.5 133.0Q258 102 310 102Q388 102 410 167L561 158Q539 78 471.5 33.0Q404 -12 307 -12ZM192 320H415Q412 379 382.5 408.0Q353 437 306 437Q259 437 228.5 406.5Q198 376 192 320Z" fill="#F4F1EA"/></g><g transform="translate(948.34, 980.00) scale(0.12, -0.12)"><path d="M374 -12Q318 -12 276.5 12.0Q235 36 212 79L209 0H66V710H216V460Q237 497 278.0 522.5Q319 548 374 548Q442 548 492.0 513.5Q542 479 569.5 416.0Q597 353 597 268Q597 183 569.5 120.0Q542 57 492.0 22.5Q442 -12 374 -12ZM332 103Q382 103 412.5 146.5Q443 190 443 268Q443 346 413.0 389.5Q383 433 333 433Q277 433 246.5 389.5Q216 346 216 268Q216 191 246.5 147.0Q277 103 332 103Z" fill="#F4F1EA"/></g><g transform="translate(1024.42, 980.00) scale(0.12, -0.12)"><path d="M225 -12Q141 -12 89.0 26.5Q37 65 37 134Q37 205 81.5 243.5Q126 282 213 300L386 334Q386 439 295 439Q212 439 197 362L46 369Q61 457 125.5 502.5Q190 548 295 548Q415 548 475.5 490.5Q536 433 536 324V141Q536 118 543.5 110.5Q551 103 566 103H581V0Q574 -2 558.5 -4.0Q543 -6 528 -6Q487 -6 454.5 11.5Q422 29 412 77L410 82Q390 39 342.0 13.5Q294 -12 225 -12ZM261 91Q317 91 351.5 124.0Q386 157 386 214V240L264 214Q191 200 191 148Q191 91 261 91Z" fill="#F4F1EA"/></g><g transform="translate(1095.70, 980.00) scale(0.12, -0.12)"><path d="M309 -12Q227 -12 165.5 23.0Q104 58 70.5 120.5Q37 183 37 268Q37 352 70.5 415.0Q104 478 165.5 513.0Q227 548 309 548Q380 548 436.5 523.0Q493 498 528.0 451.0Q563 404 571 338L416 331Q409 381 380.5 406.5Q352 432 309 432Q253 432 222.0 389.0Q191 346 191 268Q191 190 222.0 146.5Q253 103 309 103Q352 103 381.0 129.5Q410 156 416 210L571 204Q564 138 529.5 89.5Q495 41 438.5 14.5Q382 -12 309 -12Z" fill="#F4F1EA"/></g><g transform="translate(1167.46, 980.00) scale(0.12, -0.12)"><path d="M66 0V710H216V316L415 536H595L387 315L601 0H437L290 230L216 151V0Z" fill="#F4F1EA"/></g><g transform="translate(1245.10, 980.00) scale(0.12, -0.12)"><path d="M37 0V153H200V0Z" fill="#F4F1EA"/></g>
  <g transform="translate(749.20, 1120.00) scale(0.12, -0.12)"><path d="M229 0 37 710H196L318 210L441 710H574L698 210L819 710H978L787 0H623L507 454L391 0Z" fill="#F4F1EA"/></g><g transform="translate(871.00, 1120.00) scale(0.12, -0.12)"><path d="M307 -12Q225 -12 164.5 23.0Q104 58 70.5 120.5Q37 183 37 268Q37 352 70.0 415.0Q103 478 163.5 513.0Q224 548 306 548Q386 548 445.0 513.0Q504 478 536.5 413.0Q569 348 569 258V228H192Q195 164 226.5 133.0Q258 102 310 102Q388 102 410 167L561 158Q539 78 471.5 33.0Q404 -12 307 -12ZM192 320H415Q412 379 382.5 408.0Q353 437 306 437Q259 437 228.5 406.5Q198 376 192 320Z" fill="#F4F1EA"/></g><g transform="translate(970.96, 1120.00) scale(0.12, -0.12)"><path d="M295 -12Q165 -12 104.0 39.0Q43 90 37 169L189 174Q196 136 220.0 115.0Q244 94 295 94Q378 94 378 148Q378 165 370.0 176.0Q362 187 339.0 195.5Q316 204 271 211Q187 226 139.5 246.5Q92 267 72.5 298.5Q53 330 53 376Q53 453 113.0 500.5Q173 548 292 548Q372 548 424.0 524.0Q476 500 502.5 458.0Q529 416 533 364L383 358Q381 395 358.5 418.5Q336 442 290 442Q250 442 229.0 425.5Q208 409 208 382Q208 353 228.5 338.5Q249 324 304 316Q389 303 439.0 282.0Q489 261 510.5 229.0Q532 197 532 150Q532 72 468.0 30.0Q404 -12 295 -12Z" fill="#F4F1EA"/></g><g transform="translate(1039.36, 1120.00) scale(0.12, -0.12)"><path d="M66 0V710H216V470Q238 510 277.0 529.0Q316 548 364 548Q454 548 499.5 491.0Q545 434 545 345V0H395V309Q395 369 376.0 399.0Q357 429 314 429Q268 429 242.0 397.5Q216 366 216 305V0Z" fill="#F4F1EA"/></g><g transform="translate(1112.68, 1120.00) scale(0.12, -0.12)"><path d="M66 0V536H216V0ZM63 602V722H218V602Z" fill="#F4F1EA"/></g><g transform="translate(1146.40, 1120.00) scale(0.12, -0.12)"><path d="M66 -150V536H210L212 456Q236 501 277.0 524.5Q318 548 371 548Q446 548 496.5 511.0Q547 474 572.0 410.5Q597 347 597 268Q597 189 571.5 125.5Q546 62 495.5 25.0Q445 -12 370 -12Q320 -12 279.0 11.0Q238 34 216 75V-150ZM329 103Q382 103 412.5 147.0Q443 191 443 268Q443 345 412.5 389.0Q382 433 329 433Q276 433 246.0 391.0Q216 349 216 268Q216 187 245.5 145.0Q275 103 329 103Z" fill="#F4F1EA"/></g><g transform="translate(1222.48, 1120.00) scale(0.12, -0.12)"><path d="M37 0V153H200V0Z" fill="#F4F1EA"/></g>
  <g transform="translate(734.62, 1320.00) scale(0.11, -0.11)"><path d="M295 -12Q165 -12 104.0 39.0Q43 90 37 169L189 174Q196 136 220.0 115.0Q244 94 295 94Q378 94 378 148Q378 165 370.0 176.0Q362 187 339.0 195.5Q316 204 271 211Q187 226 139.5 246.5Q92 267 72.5 298.5Q53 330 53 376Q53 453 113.0 500.5Q173 548 292 548Q372 548 424.0 524.0Q476 500 502.5 458.0Q529 416 533 364L383 358Q381 395 358.5 418.5Q336 442 290 442Q250 442 229.0 425.5Q208 409 208 382Q208 353 228.5 338.5Q249 324 304 316Q389 303 439.0 282.0Q489 261 510.5 229.0Q532 197 532 150Q532 72 468.0 30.0Q404 -12 295 -12Z" fill="#F4F1EA"/></g><g transform="translate(797.33, 1320.00) scale(0.11, -0.11)"><path d="M309 -12Q227 -12 166.0 22.5Q105 57 71.0 120.0Q37 183 37 268Q37 353 71.0 415.5Q105 478 166.0 513.0Q227 548 309 548Q391 548 452.5 513.0Q514 478 547.5 415.5Q581 353 581 268Q581 183 547.5 120.0Q514 57 452.5 22.5Q391 -12 309 -12ZM309 103Q365 103 396.0 146.5Q427 190 427 268Q427 346 396.0 389.5Q365 433 309 433Q253 433 222.0 389.5Q191 346 191 268Q191 190 222.0 146.5Q253 103 309 103Z" fill="#F4F1EA"/></g><g transform="translate(865.31, 1320.00) scale(0.11, -0.11)"><path d="M206 0Q140 0 103.0 32.5Q66 65 66 140V710H216V156Q216 132 227.0 122.0Q238 112 259 112H295V0Z" fill="#F4F1EA"/></g><g transform="translate(899.74, 1320.00) scale(0.11, -0.11)"><path d="M66 0V536H216V0ZM63 602V722H218V602Z" fill="#F4F1EA"/></g><g transform="translate(930.64, 1320.00) scale(0.11, -0.11)"><path d="M257 -12Q189 -12 139.5 22.0Q90 56 63.5 119.0Q37 182 37 268Q37 354 64.0 416.5Q91 479 140.5 513.5Q190 548 257 548Q314 548 355.5 524.5Q397 501 418 460V710H568V0H425L422 79Q399 36 355.5 12.0Q312 -12 257 -12ZM306 103Q360 103 389.0 145.0Q418 187 418 268Q418 350 389.0 391.5Q360 433 306 433Q253 433 222.0 389.0Q191 345 191 268Q191 193 222.5 148.0Q254 103 306 103Z" fill="#F4F1EA"/></g><g transform="translate(1000.38, 1320.00) scale(0.11, -0.11)"><path d="M184 0Q138 0 109.0 24.0Q80 48 80 100V710H164V107Q164 74 197 74H243V0Z" fill="#F4F1EA"/></g><g transform="translate(1029.75, 1320.00) scale(0.11, -0.11)"><path d="M223 -12Q141 -12 92.5 26.0Q44 64 44 132Q44 200 84.0 239.0Q124 278 211 294L399 329Q399 462 273 462Q218 462 186.0 437.5Q154 413 142 367L53 374Q68 449 125.5 495.5Q183 542 273 542Q375 542 429.0 484.5Q483 427 483 326V107Q483 74 511 74H532V0Q520 -2 500 -2Q454 -2 430.5 16.5Q407 35 401 77L400 82Q380 41 331.0 14.5Q282 -12 223 -12ZM231 62Q311 62 355.0 107.0Q399 152 399 218V256L227 224Q173 214 152.5 193.5Q132 173 132 140Q132 103 158.5 82.5Q185 62 231 62Z" fill="#F4F1EA"/></g><g transform="translate(1090.36, 1320.00) scale(0.11, -0.11)"><path d="M323 -12Q268 -12 225.0 12.5Q182 37 159 80L156 0H80V710H164V456Q184 489 226.0 515.5Q268 542 323 542Q393 542 444.0 508.0Q495 474 523.0 412.0Q551 350 551 265Q551 180 523.0 118.0Q495 56 444.0 22.0Q393 -12 323 -12ZM318 68Q385 68 424.0 121.0Q463 174 463 265Q463 357 424.0 409.5Q385 462 320 462Q247 462 205.5 409.5Q164 357 164 265Q164 174 205.0 121.0Q246 68 318 68Z" fill="#F4F1EA"/></g><g transform="translate(1155.81, 1320.00) scale(0.11, -0.11)"><path d="M44 0V113H157V0Z" fill="#6B8290"/></g><g transform="translate(1177.92, 1320.00) scale(0.11, -0.11)"><path d="M223 -12Q141 -12 92.5 26.0Q44 64 44 132Q44 200 84.0 239.0Q124 278 211 294L399 329Q399 462 273 462Q218 462 186.0 437.5Q154 413 142 367L53 374Q68 449 125.5 495.5Q183 542 273 542Q375 542 429.0 484.5Q483 427 483 326V107Q483 74 511 74H532V0Q520 -2 500 -2Q454 -2 430.5 16.5Q407 35 401 77L400 82Q380 41 331.0 14.5Q282 -12 223 -12ZM231 62Q311 62 355.0 107.0Q399 152 399 218V256L227 224Q173 214 152.5 193.5Q132 173 132 140Q132 103 158.5 82.5Q185 62 231 62Z" fill="#6B8290"/></g><g transform="translate(1238.53, 1320.00) scale(0.11, -0.11)"><path d="M80 0V530H164V0ZM78 613V711H166V613Z" fill="#6B8290"/></g>
</svg>