<svg xmlns="http://www.w3.org/2000/svg" viewBox="0 0 1820 1220" width="1820" height="1220">
  <rect width="1820" height="1220" fill="#0A0A0A"/>
  <g transform="translate(90.00, 210.00) scale(0.032, -0.032)"><path d="M108 -110 412 750H492L188 -110Z" fill="#6B8290"/></g><g transform="translate(128.40, 210.00) scale(0.032, -0.032)"><path d="M297 -162Q240 -162 194.0 -143.0Q148 -124 117.0 -89.0Q86 -54 75 -8L163 -2Q175 -39 205.5 -60.5Q236 -82 297 -82Q369 -82 407.5 -53.0Q446 -24 446 34V120Q427 78 385.0 53.0Q343 28 291 28Q224 28 171.5 61.0Q119 94 89.5 152.0Q60 210 60 285Q60 361 89.0 418.5Q118 476 169.5 509.0Q221 542 287 542Q343 542 387.5 516.0Q432 490 450 446V530H530V36Q530 -26 502.0 -70.5Q474 -115 422.0 -138.5Q370 -162 297 -162ZM295 108Q363 108 404.0 155.5Q445 203 446 285Q447 340 428.5 379.5Q410 419 375.5 440.5Q341 462 295 462Q225 462 186.5 414.5Q148 367 148 285Q148 203 187.5 155.5Q227 108 295 108Z" fill="#6B8290"/></g><g transform="translate(147.60, 210.00) scale(0.032, -0.032)"><path d="M306 -12Q231 -12 176.5 22.0Q122 56 92.5 118.5Q63 181 63 265Q63 349 92.5 411.0Q122 473 175.5 507.5Q229 542 302 542Q371 542 424.0 509.5Q477 477 507.0 415.0Q537 353 537 264V239H151Q156 154 196.5 111.0Q237 68 306 68Q358 68 391.5 92.5Q425 117 438 157L528 150Q507 79 448.5 33.5Q390 -12 306 -12ZM151 313H445Q439 390 400.0 426.0Q361 462 302 462Q241 462 201.5 424.5Q162 387 151 313Z" fill="#6B8290"/></g><g transform="translate(166.80, 210.00) scale(0.032, -0.032)"><path d="M378 0Q301 0 263.0 36.0Q225 72 225 146V654H309V146Q309 109 326.0 91.5Q343 74 378 74H520V0ZM50 456V530H520V456Z" fill="#6B8290"/></g><g transform="translate(205.20, 210.00) scale(0.032, -0.032)"><path d="M80 0V74H293V497L334 456H90V530H377V74H560V0H377H293ZM285 613V711H373V613Z" fill="#6B8290"/></g><g transform="translate(224.40, 210.00) scale(0.032, -0.032)"><path d="M84 0V530H161L164 395L154 404Q164 451 190.5 481.5Q217 512 254.0 527.0Q291 542 332 542Q393 542 433.5 515.0Q474 488 495.0 442.5Q516 397 516 341V0H432V317Q432 391 403.0 429.5Q374 468 314 468Q273 468 240.0 450.5Q207 433 187.5 399.5Q168 366 168 317V0Z" fill="#6B8290"/></g><g transform="translate(262.80, 210.00) scale(0.032, -0.032)"><path d="M378 0Q301 0 263.0 36.0Q225 72 225 146V654H309V146Q309 109 326.0 91.5Q343 74 378 74H520V0ZM50 456V530H520V456Z" fill="#6B8290"/></g><g transform="translate(282.00, 210.00) scale(0.032, -0.032)"><path d="M300 -12Q227 -12 172.5 22.0Q118 56 88.0 118.5Q58 181 58 265Q58 350 88.0 412.0Q118 474 172.5 508.0Q227 542 300 542Q373 542 427.5 508.0Q482 474 512.0 412.0Q542 350 542 265Q542 181 512.0 118.5Q482 56 427.5 22.0Q373 -12 300 -12ZM300 68Q373 68 413.5 120.5Q454 173 454 265Q454 357 413.5 409.5Q373 462 300 462Q227 462 186.5 409.5Q146 357 146 265Q146 173 186.5 120.5Q227 68 300 68Z" fill="#6B8290"/></g><g transform="translate(301.20, 210.00) scale(0.032, -0.032)"><path d="M263 -12Q184 -12 137.0 41.5Q90 95 90 189V530H174V212Q174 135 201.5 98.5Q229 62 286 62Q348 62 384.0 102.5Q420 143 420 214V530H504V0H424V131L437 124Q421 59 376.0 23.5Q331 -12 263 -12Z" fill="#6B8290"/></g><g transform="translate(320.40, 210.00) scale(0.032, -0.032)"><path d="M314 -12Q240 -12 185.0 22.0Q130 56 100.0 118.5Q70 181 70 265Q70 349 100.0 411.0Q130 473 185.0 507.5Q240 542 314 542Q373 542 419.0 520.5Q465 499 495.0 458.0Q525 417 536 358L448 352Q436 405 400.5 433.5Q365 462 314 462Q241 462 199.5 409.5Q158 357 158 265Q158 173 199.5 120.5Q241 68 314 68Q365 68 402.5 98.0Q440 128 452 188L540 182Q529 123 498.0 79.5Q467 36 420.0 12.0Q373 -12 314 -12Z" fill="#6B8290"/></g><g transform="translate(339.60, 210.00) scale(0.032, -0.032)"><path d="M100 0V710H184V413L174 415Q184 459 208.0 487.0Q232 515 267.0 528.5Q302 542 343 542Q400 542 439.5 516.5Q479 491 499.5 445.5Q520 400 520 341V0H436V317Q436 394 408.5 431.0Q381 468 325 468Q261 468 222.5 429.0Q184 390 184 316V0Z" fill="#6B8290"/></g>
  <g transform="translate(90.00, 310.00) scale(0.072, -0.072)"><path d="M65.6005859375 0V710H215.597900390625V411.2000732421875L195.998291015625 410.8001708984375Q203.598388671875 457.800048828125 227.29840087890625 487.89996337890625Q250.9984130859375 517.9998779296875 286.29840087890625 532.9998168945312Q321.598388671875 547.999755859375 363.598388671875 547.999755859375Q423.5982666015625 547.999755859375 463.99822998046875 522.1997680664062Q504.398193359375 496.3997802734375 524.898193359375 450.2998046875Q545.398193359375 404.1998291015625 545.398193359375 344.599853515625V0H395.40087890625V309.2003173828125Q395.40087890625 368.801025390625 376.60052490234375 398.90130615234375Q357.8001708984375 429.0015869140625 314.399658203125 429.0015869140625Q268.39892578125 429.0015869140625 241.9984130859375 397.80126953125Q215.597900390625 366.6009521484375 215.597900390625 305.200439453125V0Z" fill="#F4F1EA"/></g><g transform="translate(133.99, 310.00) scale(0.072, -0.072)"><path d="M307.399169921875 -12Q225.199462890625 -12 164.39971923828125 22.5999755859375Q103.5999755859375 57.199951171875 70.20013427734375 120.2999267578125Q36.80029296875 183.39990234375 36.80029296875 267.9998779296875Q36.80029296875 352.599853515625 70.20013427734375 415.1998291015625Q103.5999755859375 477.7998046875 163.99969482421875 512.8997802734375Q224.3994140625 547.999755859375 305.799072265625 547.999755859375Q385.5986328125 547.999755859375 444.89837646484375 513.099853515625Q504.1981201171875 478.199951171875 536.3980102539062 413.2000732421875Q568.597900390625 348.2001953125 568.597900390625 258.000244140625V227.6004638671875H191.99755859375Q195.1976318359375 164.1995849609375 226.697998046875 132.89910888671875Q258.1983642578125 101.5986328125 309.799072265625 101.5986328125Q347.9996337890625 101.5986328125 373.699951171875 117.99896240234375Q399.4002685546875 134.3992919921875 410.0003662109375 167.1995849609375L561.1978759765625 158.399658203125Q539.597900390625 77.800048828125 471.79827880859375 32.9000244140625Q403.9986572265625 -12 307.399169921875 -12ZM191.99755859375 319.5997314453125H415.400390625Q412.4002685546875 378.6004638671875 382.59991455078125 407.70074462890625Q352.799560546875 436.801025390625 305.799072265625 436.801025390625Q259.198486328125 436.801025390625 228.6981201171875 406.20074462890625Q198.19775390625 375.6004638671875 191.99755859375 319.5997314453125Z" fill="#F4F1EA"/></g><g transform="translate(177.55, 310.00) scale(0.072, -0.072)"><path d="M205.59912109375 0Q140.39990234375 0 103.000244140625 32.9996337890625Q65.6005859375 65.999267578125 65.6005859375 139.598388671875V710H215.597900390625V155.5980224609375Q215.597900390625 132.3983154296875 226.79779052734375 122.098388671875Q237.9976806640625 111.7984619140625 258.7974853515625 111.7984619140625H294.597900390625V0Z" fill="#F4F1EA"/></g><g transform="translate(200.09, 310.00) scale(0.072, -0.072)"><path d="M205.59912109375 0Q140.39990234375 0 103.000244140625 32.9996337890625Q65.6005859375 65.999267578125 65.6005859375 139.598388671875V710H215.597900390625V155.5980224609375Q215.597900390625 132.3983154296875 226.79779052734375 122.098388671875Q237.9976806640625 111.7984619140625 258.7974853515625 111.7984619140625H294.597900390625V0Z" fill="#F4F1EA"/></g><g transform="translate(222.62, 310.00) scale(0.072, -0.072)"><path d="M309.1990966796875 -12Q227.199462890625 -12 165.89971923828125 22.5999755859375Q104.5999755859375 57.199951171875 70.70013427734375 120.2999267578125Q36.80029296875 183.39990234375 36.80029296875 267.9998779296875Q36.80029296875 352.9998779296875 70.70013427734375 415.599853515625Q104.5999755859375 478.1998291015625 165.89971923828125 513.0997924804688Q227.199462890625 547.999755859375 309.1990966796875 547.999755859375Q391.19873046875 547.999755859375 452.2984619140625 513.0997924804688Q513.398193359375 478.1998291015625 547.2980346679688 415.599853515625Q581.1978759765625 352.9998779296875 581.1978759765625 267.9998779296875Q581.1978759765625 183.39990234375 547.2980346679688 120.2999267578125Q513.398193359375 57.199951171875 452.2984619140625 22.5999755859375Q391.19873046875 -12 309.1990966796875 -12ZM309.1990966796875 103.3985595703125Q365.3997802734375 103.3985595703125 396.00018310546875 146.59893798828125Q426.6005859375 189.79931640625 426.6005859375 267.9998779296875Q426.6005859375 345.6004638671875 396.00018310546875 389.100830078125Q365.3997802734375 432.6011962890625 309.1990966796875 432.6011962890625Q252.9984130859375 432.6011962890625 222.197998046875 389.100830078125Q191.3975830078125 345.6004638671875 191.3975830078125 267.9998779296875Q191.3975830078125 189.79931640625 222.197998046875 146.59893798828125Q252.9984130859375 103.3985595703125 309.1990966796875 103.3985595703125Z" fill="#F4F1EA"/></g><g transform="translate(267.12, 310.00) scale(0.072, -0.072)"><path d="M680.5980224609375 -72.7998046875Q620.9984130859375 -97.399658203125 561.4985961914062 -109.099609375Q501.998779296875 -120.799560546875 438.1988525390625 -120.799560546875Q312.999267578125 -120.799560546875 224.299560546875 -77.6995849609375Q135.599853515625 -34.599609375 88.79998779296875 47.600341796875Q42.0001220703125 129.80029296875 42.0001220703125 245.8001708984375Q42.0001220703125 349.60009765625 75.800048828125 434.800048828125Q109.5999755859375 520 172.39984130859375 581.7999877929688Q235.19970703125 643.5999755859375 321.5994873046875 676.7999877929688Q407.999267578125 710 513.7989501953125 710Q635.798583984375 710 727.2982788085938 666.0Q818.7979736328125 622 869.5977783203125 542.5999755859375Q920.3975830078125 463.199951171875 920.3975830078125 355.9998779296875Q920.3975830078125 270.60009765625 893.397705078125 208.400146484375Q866.3978271484375 146.2001953125 818.6980590820312 112.3001708984375Q770.998291015625 78.400146484375 708.1986083984375 78.400146484375Q649.59912109375 78.400146484375 615.29931640625 109.29998779296875Q580.99951171875 140.1998291015625 577.3995361328125 190.399658203125L602.59912109375 194.399658203125Q593.5989990234375 160.599853515625 566.6990356445312 132.89996337890625Q539.799072265625 105.2000732421875 504.399169921875 89.20013427734375Q468.999267578125 73.2001953125 432.1993408203125 73.2001953125Q374.999267578125 73.2001953125 334.19927978515625 95.90020751953125Q293.3992919921875 118.6002197265625 272.09930419921875 160.8001708984375Q250.79931640625 203.0001220703125 250.79931640625 260Q250.79931640625 329.9998779296875 276.6993408203125 384.69989013671875Q302.599365234375 439.39990234375 349.19940185546875 470.99993896484375Q395.7994384765625 502.5999755859375 456.799560546875 502.5999755859375Q513.3994140625 502.5999755859375 552.9993286132812 477.00006103515625Q592.5992431640625 451.400146484375 601.3992919921875 409.80029296875L580.5997314453125 408.7999267578125L588.19970703125 496.400146484375H701.3980712890625L682.9981689453125 298.9996337890625Q681.398193359375 275.7996826171875 679.1981811523438 251.09954833984375Q676.9981689453125 226.3994140625 676.9981689453125 209.599365234375Q676.9981689453125 189.999267578125 689.59814453125 178.5992431640625Q702.1981201171875 167.19921875 723.7982177734375 167.19921875Q771.1983642578125 167.19921875 798.3984375 213.3995361328125Q825.5985107421875 259.599853515625 825.5985107421875 344.000244140625Q825.5985107421875 435.80029296875 790.2985229492188 497.8004150390625Q754.99853515625 559.800537109375 684.7986450195312 590.900634765625Q614.5987548828125 622.000732421875 509.3990478515625 622.000732421875Q426.1990966796875 622.000732421875 357.89910888671875 595.5006713867188Q289.59912109375 569.0006103515625 239.9991455078125 520.2005004882812Q190.399169921875 471.400390625 163.59918212890625 403.4002685546875Q136.7991943359375 335.400146484375 136.7991943359375 252Q136.7991943359375 161.9998779296875 172.4991455078125 98.2998046875Q208.1990966796875 34.5997314453125 276.29901123046875 0.89971923828125Q344.39892578125 -32.80029296875 441.3988037109375 -32.80029296875Q501.3985595703125 -32.80029296875 552.9985961914062 -22.9002685546875Q604.5986328125 -13.000244140625 657.5982666015625 9.599609375ZM462.5985107421875 171.598876953125Q496.9991455078125 171.598876953125 520.699462890625 189.79913330078125Q544.3997802734375 207.9993896484375 556.5999145507812 238.0997314453125Q568.800048828125 268.2000732421875 568.800048828125 303.80029296875Q568.800048828125 334.00048828125 559.699951171875 356.500732421875Q550.599853515625 379.0009765625 531.6995849609375 391.60113525390625Q512.79931640625 404.2012939453125 483.3988037109375 404.2012939453125Q450.998291015625 404.2012939453125 427.99798583984375 386.40106201171875Q404.9976806640625 368.600830078125 392.29754638671875 338.50048828125Q379.597412109375 308.400146484375 379.597412109375 270.1998291015625Q379.597412109375 225.99951171875 399.59759521484375 198.7991943359375Q419.5977783203125 171.598876953125 462.5985107421875 171.598876953125Z" fill="#F4F1EA"/></g><g transform="translate(336.38, 310.00) scale(0.072, -0.072)"><path d="M294.59912109375 -12Q211.599609375 -12 155.79986572265625 11.29998779296875Q100.0001220703125 34.5999755859375 70.40020751953125 75.39996337890625Q40.80029296875 116.199951171875 36.80029296875 168.7999267578125L188.9976806640625 174.199951171875Q195.7977294921875 135.799560546875 220.998046875 115.0992431640625Q246.1983642578125 94.39892578125 295.1990966796875 94.39892578125Q335.399658203125 94.39892578125 357.7000732421875 107.39910888671875Q380.00048828125 120.3992919921875 380.00048828125 147.3997802734375Q380.00048828125 164.199951171875 371.8004150390625 175.50006103515625Q363.600341796875 186.8001708984375 340.30010986328125 195.20025634765625Q316.9998779296875 203.600341796875 271.3994140625 211.200439453125Q186.3997802734375 225.8004150390625 138.0999755859375 246.00042724609375Q89.8001708984375 266.200439453125 69.80023193359375 297.900390625Q49.80029296875 329.600341796875 49.80029296875 376.400146484375Q49.80029296875 453.39990234375 109.5999755859375 500.6998291015625Q169.399658203125 547.999755859375 288.19873046875 547.999755859375Q363.998291015625 547.999755859375 415.39801025390625 524.1997680664062Q466.7977294921875 500.3997802734375 495.297607421875 458.89990234375Q523.7974853515625 417.4000244140625 530.5975341796875 363.600341796875L380.2000732421875 357.600341796875Q376.5999755859375 383.8004150390625 364.49981689453125 402.60052490234375Q352.399658203125 421.400634765625 332.9993896484375 431.500732421875Q313.59912109375 441.600830078125 286.5987548828125 441.600830078125Q246.998046875 441.600830078125 225.69781494140625 425.30059814453125Q204.3975830078125 409.0003662109375 204.3975830078125 381.60009765625Q204.3975830078125 362.1998291015625 213.897705078125 349.59967041015625Q223.3978271484375 336.99951171875 245.3980712890625 329.19940185546875Q267.3983154296875 321.3992919921875 304.19873046875 315.7991943359375Q389.99853515625 303.59912109375 440.3983154296875 282.399169921875Q490.798095703125 261.19921875 512.6979370117188 228.89935302734375Q534.5977783203125 196.5994873046875 534.5977783203125 150.399658203125Q534.5977783203125 98.3997802734375 504.99786376953125 62.099853515625Q475.39794921875 25.7999267578125 421.6982421875 6.89996337890625Q367.99853515625 -12 294.59912109375 -12Z" fill="#F4F1EA"/></g><g transform="translate(377.50, 310.00) scale(0.072, -0.072)"><path d="M309.1990966796875 -12Q227.199462890625 -12 165.89971923828125 22.5999755859375Q104.5999755859375 57.199951171875 70.70013427734375 120.2999267578125Q36.80029296875 183.39990234375 36.80029296875 267.9998779296875Q36.80029296875 352.9998779296875 70.70013427734375 415.599853515625Q104.5999755859375 478.1998291015625 165.89971923828125 513.0997924804688Q227.199462890625 547.999755859375 309.1990966796875 547.999755859375Q391.19873046875 547.999755859375 452.2984619140625 513.0997924804688Q513.398193359375 478.1998291015625 547.2980346679688 415.599853515625Q581.1978759765625 352.9998779296875 581.1978759765625 267.9998779296875Q581.1978759765625 183.39990234375 547.2980346679688 120.2999267578125Q513.398193359375 57.199951171875 452.2984619140625 22.5999755859375Q391.19873046875 -12 309.1990966796875 -12ZM309.1990966796875 103.3985595703125Q365.3997802734375 103.3985595703125 396.00018310546875 146.59893798828125Q426.6005859375 189.79931640625 426.6005859375 267.9998779296875Q426.6005859375 345.6004638671875 396.00018310546875 389.100830078125Q365.3997802734375 432.6011962890625 309.1990966796875 432.6011962890625Q252.9984130859375 432.6011962890625 222.197998046875 389.100830078125Q191.3975830078125 345.6004638671875 191.3975830078125 267.9998779296875Q191.3975830078125 189.79931640625 222.197998046875 146.59893798828125Q252.9984130859375 103.3985595703125 309.1990966796875 103.3985595703125Z" fill="#F4F1EA"/></g><g transform="translate(421.99, 310.00) scale(0.072, -0.072)"><path d="M205.59912109375 0Q140.39990234375 0 103.000244140625 32.9996337890625Q65.6005859375 65.999267578125 65.6005859375 139.598388671875V710H215.597900390625V155.5980224609375Q215.597900390625 132.3983154296875 226.79779052734375 122.098388671875Q237.9976806640625 111.7984619140625 258.7974853515625 111.7984619140625H294.597900390625V0Z" fill="#F4F1EA"/></g><g transform="translate(444.53, 310.00) scale(0.072, -0.072)"><path d="M65.6005859375 0V535.999755859375H215.597900390625V0ZM63.0006103515625 601.6004638671875V722.3995361328125H218.1978759765625V601.6004638671875Z" fill="#F4F1EA"/></g><g transform="translate(464.76, 310.00) scale(0.072, -0.072)"><path d="M256.6004638671875 -12Q188.8004150390625 -12 139.5003662109375 22.29998779296875Q90.2003173828125 56.5999755859375 63.50030517578125 119.49993896484375Q36.80029296875 182.39990234375 36.80029296875 267.9998779296875Q36.80029296875 353.599853515625 63.80029296875 416.49981689453125Q90.80029296875 479.3997802734375 140.40032958984375 513.6997680664062Q190.0003662109375 547.999755859375 256.6004638671875 547.999755859375Q313.80029296875 547.999755859375 355.400390625 524.5997924804688Q397.00048828125 501.1998291015625 418.4005126953125 459.599853515625V710H568.3978271484375V0H424.6005859375L421.6005859375 78.800048828125Q399.6005859375 35.800048828125 356.10052490234375 11.9000244140625Q312.6004638671875 -12 256.6004638671875 -12ZM305.9991455078125 103.3985595703125Q342.1995849609375 103.3985595703125 367.19989013671875 121.998779296875Q392.2001953125 140.5989990234375 405.30035400390625 177.29931640625Q418.4005126953125 213.9996337890625 418.4005126953125 267.9998779296875Q418.4005126953125 322.8001708984375 405.30035400390625 359.30047607421875Q392.2001953125 395.80078125 367.19989013671875 414.20098876953125Q342.1995849609375 432.6011962890625 305.9991455078125 432.6011962890625Q253.3984375 432.6011962890625 222.39801025390625 388.5008544921875Q191.3975830078125 344.4005126953125 191.3975830078125 267.9998779296875Q191.3975830078125 193.19921875 222.697998046875 148.29888916015625Q253.9984130859375 103.3985595703125 305.9991455078125 103.3985595703125Z" fill="#F4F1EA"/></g><g transform="translate(510.41, 310.00) scale(0.072, -0.072)"><path d="M205.59912109375 0Q140.39990234375 0 103.000244140625 32.9996337890625Q65.6005859375 65.999267578125 65.6005859375 139.598388671875V710H215.597900390625V155.5980224609375Q215.597900390625 132.3983154296875 226.79779052734375 122.098388671875Q237.9976806640625 111.7984619140625 258.7974853515625 111.7984619140625H294.597900390625V0Z" fill="#F4F1EA"/></g><g transform="translate(532.94, 310.00) scale(0.072, -0.072)"><path d="M225.39990234375 -12Q141.5999755859375 -12 89.20013427734375 26.5999755859375Q36.80029296875 65.199951171875 36.80029296875 134.39990234375Q36.80029296875 204.7998046875 81.30010986328125 243.49981689453125Q125.7999267578125 282.1998291015625 213.39990234375 299.999755859375L385.800537109375 334.3997802734375Q385.800537109375 386.400390625 362.40020751953125 412.8006591796875Q338.9998779296875 439.200927734375 294.59912109375 439.200927734375Q252.1986083984375 439.200927734375 228.29827880859375 419.500732421875Q204.39794921875 399.800537109375 196.5977783203125 362.2001953125L45.80029296875 368.6002197265625Q61.4002685546875 457.399658203125 125.79998779296875 502.69970703125Q190.19970703125 547.999755859375 294.59912109375 547.999755859375Q414.598388671875 547.999755859375 475.1981201171875 490.79974365234375Q535.7978515625 433.5997314453125 535.7978515625 323.60009765625V141.1986083984375Q535.7978515625 118.3988037109375 543.497802734375 110.59881591796875Q551.19775390625 102.798828125 566.19775390625 102.798828125H581.197998046875V0Q574.1981201171875 -2.199951171875 558.598388671875 -3.89990234375Q542.9986572265625 -5.599853515625 527.598876953125 -5.599853515625Q495.7987060546875 -5.599853515625 468.19891357421875 5.00018310546875Q440.59912109375 15.6002197265625 423.9993896484375 42.5001220703125Q407.399658203125 69.4000244140625 407.399658203125 118.399658203125L419.799560546875 108Q410.399658203125 72.2000732421875 384.599609375 45.00006103515625Q358.799560546875 17.800048828125 318.49957275390625 2.9000244140625Q278.1995849609375 -12 225.39990234375 -12ZM260.998779296875 90.798828125Q298.3994140625 90.798828125 326.2998046875 105.59906005859375Q354.2001953125 120.3992919921875 370.0003662109375 148.099609375Q385.800537109375 175.7999267578125 385.800537109375 214.400146484375V240.400634765625L264.198486328125 214.400390625Q227.5977783203125 206.80029296875 209.4976806640625 190.5001220703125Q191.3975830078125 174.199951171875 191.3975830078125 148.399658203125Q191.3975830078125 120.999267578125 209.19793701171875 105.8990478515625Q226.998291015625 90.798828125 260.998779296875 90.798828125Z" fill="#F4F1EA"/></g><g transform="translate(575.71, 310.00) scale(0.072, -0.072)"><path d="M373.9979248046875 -12Q317.7979736328125 -12 276.597900390625 11.9000244140625Q235.3978271484375 35.800048828125 212.3978271484375 78.800048828125L209.3978271484375 0H65.6005859375V710H215.597900390625V459.599853515625Q237.3978271484375 497.399658203125 278.1978759765625 522.69970703125Q318.9979248046875 547.999755859375 373.9979248046875 547.999755859375Q442.197998046875 547.999755859375 492.29803466796875 513.3997802734375Q542.3980712890625 478.7998046875 569.798095703125 415.89984130859375Q597.1981201171875 352.9998779296875 597.1981201171875 267.9998779296875Q597.1981201171875 182.9998779296875 569.798095703125 120.09991455078125Q542.3980712890625 57.199951171875 492.29803466796875 22.5999755859375Q442.197998046875 -12 373.9979248046875 -12ZM332.3994140625 103.3985595703125Q382.0001220703125 103.3985595703125 412.30047607421875 146.7989501953125Q442.600830078125 190.1993408203125 442.600830078125 267.9998779296875Q442.600830078125 346.200439453125 412.90045166015625 389.40081787109375Q383.2000732421875 432.6011962890625 333.199462890625 432.6011962890625Q296.198974609375 432.6011962890625 269.5986328125 413.301025390625Q242.998291015625 394.0008544921875 229.298095703125 357.2005615234375Q215.597900390625 320.4002685546875 215.597900390625 267.9998779296875Q215.597900390625 216.99951171875 229.298095703125 179.99920654296875Q242.998291015625 142.9989013671875 269.39862060546875 123.19873046875Q295.7989501953125 103.3985595703125 332.3994140625 103.3985595703125Z" fill="#F4F1EA"/></g><g transform="translate(621.36, 310.00) scale(0.072, -0.072)"><path d="M36.80029296875 0V153.1983642578125H199.5982666015625V0Z" fill="#F4F1EA"/></g><g transform="translate(638.35, 310.00) scale(0.072, -0.072)"><path d="M225.39990234375 -12Q141.5999755859375 -12 89.20013427734375 26.5999755859375Q36.80029296875 65.199951171875 36.80029296875 134.39990234375Q36.80029296875 204.7998046875 81.30010986328125 243.49981689453125Q125.7999267578125 282.1998291015625 213.39990234375 299.999755859375L385.800537109375 334.3997802734375Q385.800537109375 386.400390625 362.40020751953125 412.8006591796875Q338.9998779296875 439.200927734375 294.59912109375 439.200927734375Q252.1986083984375 439.200927734375 228.29827880859375 419.500732421875Q204.39794921875 399.800537109375 196.5977783203125 362.2001953125L45.80029296875 368.6002197265625Q61.4002685546875 457.399658203125 125.79998779296875 502.69970703125Q190.19970703125 547.999755859375 294.59912109375 547.999755859375Q414.598388671875 547.999755859375 475.1981201171875 490.79974365234375Q535.7978515625 433.5997314453125 535.7978515625 323.60009765625V141.1986083984375Q535.7978515625 118.3988037109375 543.497802734375 110.59881591796875Q551.19775390625 102.798828125 566.19775390625 102.798828125H581.197998046875V0Q574.1981201171875 -2.199951171875 558.598388671875 -3.89990234375Q542.9986572265625 -5.599853515625 527.598876953125 -5.599853515625Q495.7987060546875 -5.599853515625 468.19891357421875 5.00018310546875Q440.59912109375 15.6002197265625 423.9993896484375 42.5001220703125Q407.399658203125 69.4000244140625 407.399658203125 118.399658203125L419.799560546875 108Q410.399658203125 72.2000732421875 384.599609375 45.00006103515625Q358.799560546875 17.800048828125 318.49957275390625 2.9000244140625Q278.1995849609375 -12 225.39990234375 -12ZM260.998779296875 90.798828125Q298.3994140625 90.798828125 326.2998046875 105.59906005859375Q354.2001953125 120.3992919921875 370.0003662109375 148.099609375Q385.800537109375 175.7999267578125 385.800537109375 214.400146484375V240.400634765625L264.198486328125 214.400390625Q227.5977783203125 206.80029296875 209.4976806640625 190.5001220703125Q191.3975830078125 174.199951171875 191.3975830078125 148.399658203125Q191.3975830078125 120.999267578125 209.19793701171875 105.8990478515625Q226.998291015625 90.798828125 260.998779296875 90.798828125Z" fill="#F4F1EA"/></g><g transform="translate(681.12, 310.00) scale(0.072, -0.072)"><path d="M65.6005859375 0V535.999755859375H215.597900390625V0ZM63.0006103515625 601.6004638671875V722.3995361328125H218.1978759765625V601.6004638671875Z" fill="#F4F1EA"/></g>
  <g transform="translate(90.00, 380.00) scale(0.042, -0.042)"><path d="M273 -12Q202 -12 152.5 11.0Q103 34 75.5 74.5Q48 115 44 167L132 173Q140 125 173.0 96.5Q206 68 273 68Q327 68 359.5 85.5Q392 103 392 142Q392 163 382.0 177.0Q372 191 343.0 201.5Q314 212 257 222Q181 236 137.5 256.5Q94 277 75.5 307.5Q57 338 57 380Q57 451 109.0 496.5Q161 542 257 542Q322 542 366.5 518.5Q411 495 436.5 456.5Q462 418 470 372L382 366Q376 394 360.0 415.5Q344 437 318.0 449.5Q292 462 256 462Q199 462 172.0 440.0Q145 418 145 384Q145 358 157.5 341.5Q170 325 198.0 314.5Q226 304 273 296Q354 282 399.0 262.0Q444 242 462.0 213.0Q480 184 480 142Q480 93 452.5 58.5Q425 24 378.5 6.0Q332 -12 273 -12Z" fill="#6B8290"/></g><g transform="translate(112.01, 380.00) scale(0.042, -0.042)"><path d="M287 -12Q214 -12 159.0 22.0Q104 56 74.0 118.5Q44 181 44 265Q44 350 74.0 412.0Q104 474 159.0 508.0Q214 542 287 542Q360 542 414.5 508.0Q469 474 499.0 412.0Q529 350 529 265Q529 181 499.0 118.5Q469 56 414.5 22.0Q360 -12 287 -12ZM287 68Q360 68 400.5 120.5Q441 173 441 265Q441 357 400.5 409.5Q360 462 287 462Q214 462 173.0 409.5Q132 357 132 265Q132 173 173.0 120.5Q214 68 287 68Z" fill="#6B8290"/></g><g transform="translate(136.07, 380.00) scale(0.042, -0.042)"><path d="M184 0Q138 0 109.0 24.0Q80 48 80 100V710H164V107Q164 91 172.5 82.5Q181 74 197 74H243V0Z" fill="#6B8290"/></g><g transform="translate(147.29, 380.00) scale(0.042, -0.042)"><path d="M80 0V530H164V0ZM78 613V711H166V613Z" fill="#6B8290"/></g><g transform="translate(157.54, 380.00) scale(0.042, -0.042)"><path d="M268 -12Q199 -12 148.5 22.0Q98 56 71.0 118.0Q44 180 44 265Q44 350 71.0 412.0Q98 474 148.5 508.0Q199 542 268 542Q321 542 365.0 519.5Q409 497 431 456V710H515V0H439L436 80Q414 37 369.0 12.5Q324 -12 268 -12ZM285 68Q332 68 364.5 92.0Q397 116 414.0 160.5Q431 205 431 265Q431 327 414.0 371.0Q397 415 364.5 438.5Q332 462 285 462Q215 462 173.5 409.5Q132 357 132 265Q132 174 173.5 121.0Q215 68 285 68Z" fill="#6B8290"/></g><g transform="translate(182.53, 380.00) scale(0.042, -0.042)"><path d="M184 0Q138 0 109.0 24.0Q80 48 80 100V710H164V107Q164 91 172.5 82.5Q181 74 197 74H243V0Z" fill="#6B8290"/></g><g transform="translate(193.74, 380.00) scale(0.042, -0.042)"><path d="M223 -12Q141 -12 92.5 26.0Q44 64 44 132Q44 200 84.0 239.0Q124 278 211 294L399 329Q399 396 367.5 429.0Q336 462 273 462Q218 462 186.0 437.5Q154 413 142 367L53 374Q68 449 125.5 495.5Q183 542 273 542Q375 542 429.0 484.5Q483 427 483 326V107Q483 89 489.5 81.5Q496 74 511 74H532V0Q528 -1 519.0 -1.5Q510 -2 500 -2Q464 -2 441.5 9.5Q419 21 409.0 45.5Q399 70 399 110L409 108Q402 74 375.0 46.5Q348 19 308.0 3.5Q268 -12 223 -12ZM231 62Q284 62 321.5 82.5Q359 103 379.0 138.5Q399 174 399 218V256L227 224Q173 214 152.5 193.5Q132 173 132 140Q132 103 158.5 82.5Q185 62 231 62Z" fill="#6B8290"/></g><g transform="translate(216.88, 380.00) scale(0.042, -0.042)"><path d="M323 -12Q268 -12 225.0 12.5Q182 37 159 80L156 0H80V710H164V456Q184 489 226.0 515.5Q268 542 323 542Q393 542 444.0 508.0Q495 474 523.0 412.0Q551 350 551 265Q551 180 523.0 118.0Q495 56 444.0 22.0Q393 -12 323 -12ZM318 68Q385 68 424.0 121.0Q463 174 463 265Q463 357 424.0 409.5Q385 462 320 462Q271 462 236.0 438.5Q201 415 182.5 371.0Q164 327 164 265Q164 205 182.5 160.5Q201 116 235.5 92.0Q270 68 318 68Z" fill="#6B8290"/></g><g transform="translate(241.87, 380.00) scale(0.042, -0.042)"><path d="M44 0V113H157V0Z" fill="#6B8290"/></g><g transform="translate(250.31, 380.00) scale(0.042, -0.042)"><path d="M223 -12Q141 -12 92.5 26.0Q44 64 44 132Q44 200 84.0 239.0Q124 278 211 294L399 329Q399 396 367.5 429.0Q336 462 273 462Q218 462 186.0 437.5Q154 413 142 367L53 374Q68 449 125.5 495.5Q183 542 273 542Q375 542 429.0 484.5Q483 427 483 326V107Q483 89 489.5 81.5Q496 74 511 74H532V0Q528 -1 519.0 -1.5Q510 -2 500 -2Q464 -2 441.5 9.5Q419 21 409.0 45.5Q399 70 399 110L409 108Q402 74 375.0 46.5Q348 19 308.0 3.5Q268 -12 223 -12ZM231 62Q284 62 321.5 82.5Q359 103 379.0 138.5Q399 174 399 218V256L227 224Q173 214 152.5 193.5Q132 173 132 140Q132 103 158.5 82.5Q185 62 231 62Z" fill="#6B8290"/></g><g transform="translate(273.46, 380.00) scale(0.042, -0.042)"><path d="M80 0V530H164V0ZM78 613V711H166V613Z" fill="#6B8290"/></g>
  <line x1="90" y1="460" x2="210" y2="460" stroke="#4A5A62" stroke-width="3"/>
  <g transform="translate(90.00, 540.00) scale(0.034, -0.034)"><path d="M336 -16Q254 -16 193.0 15.0Q132 46 96.5 100.5Q61 155 55 227L145 233Q152 180 176.0 143.0Q200 106 240.5 87.0Q281 68 338 68Q388 68 423.0 81.0Q458 94 476.5 119.0Q495 144 495 180Q495 213 479.5 238.5Q464 264 420.5 285.5Q377 307 292 328Q210 349 161.5 374.0Q113 399 91.5 435.0Q70 471 70 524Q70 584 98.5 629.5Q127 675 180.0 700.5Q233 726 306 726Q384 726 440.0 696.5Q496 667 529.0 616.0Q562 565 570 500L480 494Q474 537 452.5 570.5Q431 604 394.0 623.0Q357 642 304 642Q238 642 199.0 610.5Q160 579 160 528Q160 495 175.5 473.5Q191 452 231.0 435.5Q271 419 346 400Q435 378 487.5 347.5Q540 317 562.5 277.0Q585 237 585 186Q585 124 553.0 78.5Q521 33 465.0 8.5Q409 -16 336 -16Z" fill="#6B8290"/></g><g transform="translate(111.76, 540.00) scale(0.034, -0.034)"><path d="M274 0Q202 0 167.5 33.0Q133 66 133 136V654H217V138Q217 102 233.0 88.0Q249 74 282 74H358V0ZM55 456V530H358V456Z" fill="#6B8290"/></g><g transform="translate(125.09, 540.00) scale(0.034, -0.034)"><path d="M223 -12Q141 -12 92.5 26.0Q44 64 44 132Q44 200 84.0 239.0Q124 278 211 294L399 329Q399 396 367.5 429.0Q336 462 273 462Q218 462 186.0 437.5Q154 413 142 367L53 374Q68 449 125.5 495.5Q183 542 273 542Q375 542 429.0 484.5Q483 427 483 326V107Q483 89 489.5 81.5Q496 74 511 74H532V0Q528 -1 519.0 -1.5Q510 -2 500 -2Q464 -2 441.5 9.5Q419 21 409.0 45.5Q399 70 399 110L409 108Q402 74 375.0 46.5Q348 19 308.0 3.5Q268 -12 223 -12ZM231 62Q284 62 321.5 82.5Q359 103 379.0 138.5Q399 174 399 218V256L227 224Q173 214 152.5 193.5Q132 173 132 140Q132 103 158.5 82.5Q185 62 231 62ZM278 576Q239 576 212.5 602.5Q186 629 186 668Q186 707 212.5 733.5Q239 760 278 760Q317 760 343.5 733.5Q370 707 370 668Q370 629 343.5 602.5Q317 576 278 576ZM278 626Q296 626 308.0 638.0Q320 650 320 668Q320 686 308.0 698.0Q296 710 278 710Q260 710 248.0 698.0Q236 686 236 668Q236 650 248.0 638.0Q260 626 278 626Z" fill="#6B8290"/></g><g transform="translate(152.32, 540.00) scale(0.034, -0.034)"><path d="M80 -150V530H158L160 416L148 422Q168 481 214.5 511.5Q261 542 322 542Q401 542 451.5 503.0Q502 464 526.5 401.0Q551 338 551 265Q551 192 526.5 129.0Q502 66 451.5 27.0Q401 -12 322 -12Q281 -12 245.5 2.0Q210 16 185.5 41.0Q161 66 152 100L164 114V-150ZM314 68Q383 68 423.0 120.0Q463 172 463 265Q463 358 423.0 410.0Q383 462 314 462Q268 462 234.5 440.0Q201 418 182.5 374.0Q164 330 164 265Q164 200 182.0 156.0Q200 112 234.0 90.0Q268 68 314 68Z" fill="#6B8290"/></g><g transform="translate(172.55, 540.00) scale(0.034, -0.034)"><path d="M223 -12Q141 -12 92.5 26.0Q44 64 44 132Q44 200 84.0 239.0Q124 278 211 294L399 329Q399 396 367.5 429.0Q336 462 273 462Q218 462 186.0 437.5Q154 413 142 367L53 374Q68 449 125.5 495.5Q183 542 273 542Q375 542 429.0 484.5Q483 427 483 326V107Q483 89 489.5 81.5Q496 74 511 74H532V0Q528 -1 519.0 -1.5Q510 -2 500 -2Q464 -2 441.5 9.5Q419 21 409.0 45.5Q399 70 399 110L409 108Q402 74 375.0 46.5Q348 19 308.0 3.5Q268 -12 223 -12ZM231 62Q284 62 321.5 82.5Q359 103 379.0 138.5Q399 174 399 218V256L227 224Q173 214 152.5 193.5Q132 173 132 140Q132 103 158.5 82.5Q185 62 231 62ZM278 576Q239 576 212.5 602.5Q186 629 186 668Q186 707 212.5 733.5Q239 760 278 760Q317 760 343.5 733.5Q370 707 370 668Q370 629 343.5 602.5Q317 576 278 576ZM278 626Q296 626 308.0 638.0Q320 650 320 668Q320 686 308.0 698.0Q296 710 278 710Q260 710 248.0 698.0Q236 686 236 668Q236 650 248.0 638.0Q260 626 278 626Z" fill="#6B8290"/></g><g transform="translate(199.79, 540.00) scale(0.034, -0.034)"><path d="M92 0V710H347Q466 710 532.0 653.0Q598 596 598 495Q598 427 568.0 377.5Q538 328 482.0 302.0Q426 276 347 276H178V0ZM178 360H347Q427 360 467.5 394.0Q508 428 508 495Q508 560 467.5 593.0Q427 626 347 626H178Z" fill="#6B8290"/></g><g transform="translate(221.89, 540.00) scale(0.034, -0.034)"><path d="M80 0V530H164V0ZM78 613V711H166V613Z" fill="#6B8290"/></g><g transform="translate(230.18, 540.00) scale(0.034, -0.034)"><path d="M80 0V530H157L160 395L150 404Q160 451 185.0 481.5Q210 512 245.5 527.0Q281 542 322 542Q383 542 422.5 515.0Q462 488 481.5 442.5Q501 397 501 341V0H417V317Q417 366 405.5 399.5Q394 433 369.0 450.5Q344 468 304 468Q243 468 203.5 429.5Q164 391 164 317V0Z" fill="#6B8290"/></g><g transform="translate(249.94, 540.00) scale(0.034, -0.034)"><path d="M80 0V530H157L160 395L150 404Q160 451 185.0 481.5Q210 512 245.5 527.0Q281 542 322 542Q383 542 422.5 515.0Q462 488 481.5 442.5Q501 397 501 341V0H417V317Q417 366 405.5 399.5Q394 433 369.0 450.5Q344 468 304 468Q243 468 203.5 429.5Q164 391 164 317V0Z" fill="#6B8290"/></g><g transform="translate(269.69, 540.00) scale(0.034, -0.034)"><path d="M287 -12Q212 -12 157.5 22.0Q103 56 73.5 118.5Q44 181 44 265Q44 349 73.5 411.0Q103 473 156.5 507.5Q210 542 283 542Q352 542 405.0 509.5Q458 477 487.5 415.0Q517 353 517 264V239H132Q137 154 177.5 111.0Q218 68 287 68Q339 68 372.5 92.5Q406 117 419 157L509 150Q488 79 429.5 33.5Q371 -12 287 -12ZM132 313H425Q419 390 380.5 426.0Q342 462 283 462Q222 462 182.5 424.5Q143 387 132 313Z" fill="#6B8290"/></g><g transform="translate(297.26, 540.00) scale(0.034, -0.034)"><path d="M20 0 276 710H392L648 0H554L483 202H185L114 0ZM214 286H454L334 635Z" fill="#6B8290"/></g><g transform="translate(319.98, 540.00) scale(0.034, -0.034)"><path d="M336 -16Q254 -16 193.0 15.0Q132 46 96.5 100.5Q61 155 55 227L145 233Q152 180 176.0 143.0Q200 106 240.5 87.0Q281 68 338 68Q388 68 423.0 81.0Q458 94 476.5 119.0Q495 144 495 180Q495 213 479.5 238.5Q464 264 420.5 285.5Q377 307 292 328Q210 349 161.5 374.0Q113 399 91.5 435.0Q70 471 70 524Q70 584 98.5 629.5Q127 675 180.0 700.5Q233 726 306 726Q384 726 440.0 696.5Q496 667 529.0 616.0Q562 565 570 500L480 494Q474 537 452.5 570.5Q431 604 394.0 623.0Q357 642 304 642Q238 642 199.0 610.5Q160 579 160 528Q160 495 175.5 473.5Q191 452 231.0 435.5Q271 419 346 400Q435 378 487.5 347.5Q540 317 562.5 277.0Q585 237 585 186Q585 124 553.0 78.5Q521 33 465.0 8.5Q409 -16 336 -16Z" fill="#6B8290"/></g><g transform="translate(90.00, 590.00) scale(0.034, -0.034)"><path d="M233 0V626H12V710H540V626H319V0Z" fill="#6B8290"/></g><g transform="translate(108.77, 590.00) scale(0.034, -0.034)"><path d="M254 -12Q175 -12 127.5 41.5Q80 95 80 189V530H164V212Q164 135 191.5 98.5Q219 62 276 62Q339 62 375.0 102.5Q411 143 411 214V530H495V0H415V131L428 124Q412 59 367.0 23.5Q322 -12 254 -12Z" fill="#6B8290"/></g><g transform="translate(128.32, 590.00) scale(0.034, -0.034)"><path d="M80 0V530H157L160 395L150 404Q160 451 185.0 481.5Q210 512 245.5 527.0Q281 542 322 542Q383 542 422.5 515.0Q462 488 481.5 442.5Q501 397 501 341V0H417V317Q417 366 405.5 399.5Q394 433 369.0 450.5Q344 468 304 468Q243 468 203.5 429.5Q164 391 164 317V0Z" fill="#6B8290"/></g><g transform="translate(148.07, 590.00) scale(0.034, -0.034)"><path d="M215 0 22 530H114L268 86L422 530H514L321 0Z" fill="#6B8290"/></g><g transform="translate(166.30, 590.00) scale(0.034, -0.034)"><path d="M287 -12Q212 -12 157.5 22.0Q103 56 73.5 118.5Q44 181 44 265Q44 349 73.5 411.0Q103 473 156.5 507.5Q210 542 283 542Q352 542 405.0 509.5Q458 477 487.5 415.0Q517 353 517 264V239H132Q137 154 177.5 111.0Q218 68 287 68Q339 68 372.5 92.5Q406 117 419 157L509 150Q488 79 429.5 33.5Q371 -12 287 -12ZM132 313H425Q419 390 380.5 426.0Q342 462 283 462Q222 462 182.5 424.5Q143 387 132 313Z" fill="#6B8290"/></g><g transform="translate(185.37, 590.00) scale(0.034, -0.034)"><path d="M80 0V530H164V0ZM78 613V711H166V613Z" fill="#6B8290"/></g><g transform="translate(193.67, 590.00) scale(0.034, -0.034)"><path d="M287 -12Q212 -12 157.5 22.0Q103 56 73.5 118.5Q44 181 44 265Q44 349 73.5 411.0Q103 473 156.5 507.5Q210 542 283 542Q352 542 405.0 509.5Q458 477 487.5 415.0Q517 353 517 264V239H132Q137 154 177.5 111.0Q218 68 287 68Q339 68 372.5 92.5Q406 117 419 157L509 150Q488 79 429.5 33.5Q371 -12 287 -12ZM132 313H425Q419 390 380.5 426.0Q342 462 283 462Q222 462 182.5 424.5Q143 387 132 313Z" fill="#6B8290"/></g><g transform="translate(212.74, 590.00) scale(0.034, -0.034)"><path d="M80 0V530H157L160 395L150 404Q160 451 185.0 481.5Q210 512 245.5 527.0Q281 542 322 542Q383 542 422.5 515.0Q462 488 481.5 442.5Q501 397 501 341V0H417V317Q417 366 405.5 399.5Q394 433 369.0 450.5Q344 468 304 468Q243 468 203.5 429.5Q164 391 164 317V0Z" fill="#6B8290"/></g><g transform="translate(240.99, 590.00) scale(0.034, -0.034)"><path d="M188 0V526H40V600H100Q139 600 162.5 610.0Q186 620 196.0 644.0Q206 668 206 710H274V0Z" fill="#6B8290"/></g><g transform="translate(254.05, 590.00) scale(0.034, -0.034)"><path d="M301 -16Q183 -16 119.0 39.5Q55 95 50 183L139 189Q145 124 189.5 96.0Q234 68 301 68Q347 68 386.0 80.5Q425 93 449.0 121.5Q473 150 473 198Q473 269 426.0 302.0Q379 335 302 335H246V419H302Q365 419 406.5 444.0Q448 469 448 530Q448 585 412.5 613.5Q377 642 306 642Q236 642 200.5 615.0Q165 588 158 541L68 547Q78 627 139.0 676.5Q200 726 306 726Q378 726 430.0 702.5Q482 679 510.0 636.0Q538 593 538 534Q538 468 496.5 427.5Q455 387 374 372V390Q461 380 512.0 328.0Q563 276 563 198Q563 130 529.5 82.0Q496 34 437.0 9.0Q378 -16 301 -16Z" fill="#6B8290"/></g><g transform="translate(90.00, 640.00) scale(0.034, -0.034)"><path d="M391 0V154H30V232L385 710H477V238H565V154H477V0ZM134 238H391V578Z" fill="#6B8290"/></g><g transform="translate(110.91, 640.00) scale(0.034, -0.034)"><path d="M331 -16Q245 -16 182.0 29.0Q119 74 84.5 157.0Q50 240 50 354Q50 468 84.5 551.5Q119 635 182.0 680.5Q245 726 331 726Q418 726 481.0 680.5Q544 635 578.5 552.0Q613 469 613 354Q613 240 578.5 157.0Q544 74 481.0 29.0Q418 -16 331 -16ZM331 68Q423 68 473.0 142.5Q523 217 523 354Q523 446 500.5 510.5Q478 575 435.5 608.5Q393 642 331 642Q270 642 227.5 608.5Q185 575 162.5 510.5Q140 446 140 354Q140 217 190.0 142.5Q240 68 331 68Z" fill="#6B8290"/></g><g transform="translate(133.45, 640.00) scale(0.034, -0.034)"><path d="M188 0V526H40V600H100Q139 600 162.5 610.0Q186 620 196.0 644.0Q206 668 206 710H274V0Z" fill="#6B8290"/></g><g transform="translate(146.51, 640.00) scale(0.034, -0.034)"><path d="M312 -16Q232 -16 175.5 20.5Q119 57 89.5 128.0Q60 199 60 300Q60 388 74.5 465.0Q89 542 121.5 600.5Q154 659 207.5 692.5Q261 726 340 726Q435 726 487.0 679.5Q539 633 560 558L470 550Q458 592 428.5 617.0Q399 642 340 642Q252 642 201.5 567.0Q151 492 148 340L130 344Q141 380 168.5 410.5Q196 441 236.5 459.5Q277 478 328 478Q398 478 451.0 448.0Q504 418 533.5 363.5Q563 309 563 236Q563 158 531.0 101.5Q499 45 442.5 14.5Q386 -16 312 -16ZM314 68Q384 68 428.5 112.5Q473 157 473 236Q473 285 454.0 321.0Q435 357 401.0 376.5Q367 396 322 396Q274 396 236.0 376.5Q198 357 176.0 321.0Q154 285 154 236Q154 187 173.5 149.0Q193 111 229.0 89.5Q265 68 314 68Z" fill="#6B8290"/></g><g transform="translate(176.22, 640.00) scale(0.034, -0.034)"><path d="M336 -16Q254 -16 193.0 15.0Q132 46 96.5 100.5Q61 155 55 227L145 233Q152 180 176.0 143.0Q200 106 240.5 87.0Q281 68 338 68Q388 68 423.0 81.0Q458 94 476.5 119.0Q495 144 495 180Q495 213 479.5 238.5Q464 264 420.5 285.5Q377 307 292 328Q210 349 161.5 374.0Q113 399 91.5 435.0Q70 471 70 524Q70 584 98.5 629.5Q127 675 180.0 700.5Q233 726 306 726Q384 726 440.0 696.5Q496 667 529.0 616.0Q562 565 570 500L480 494Q474 537 452.5 570.5Q431 604 394.0 623.0Q357 642 304 642Q238 642 199.0 610.5Q160 579 160 528Q160 495 175.5 473.5Q191 452 231.0 435.5Q271 419 346 400Q435 378 487.5 347.5Q540 317 562.5 277.0Q585 237 585 186Q585 124 553.0 78.5Q521 33 465.0 8.5Q409 -16 336 -16Z" fill="#6B8290"/></g><g transform="translate(197.98, 640.00) scale(0.034, -0.034)"><path d="M274 0Q202 0 167.5 33.0Q133 66 133 136V654H217V138Q217 102 233.0 88.0Q249 74 282 74H358V0ZM55 456V530H358V456Z" fill="#6B8290"/></g><g transform="translate(211.31, 640.00) scale(0.034, -0.034)"><path d="M223 -12Q141 -12 92.5 26.0Q44 64 44 132Q44 200 84.0 239.0Q124 278 211 294L399 329Q399 396 367.5 429.0Q336 462 273 462Q218 462 186.0 437.5Q154 413 142 367L53 374Q68 449 125.5 495.5Q183 542 273 542Q375 542 429.0 484.5Q483 427 483 326V107Q483 89 489.5 81.5Q496 74 511 74H532V0Q528 -1 519.0 -1.5Q510 -2 500 -2Q464 -2 441.5 9.5Q419 21 409.0 45.5Q399 70 399 110L409 108Q402 74 375.0 46.5Q348 19 308.0 3.5Q268 -12 223 -12ZM231 62Q284 62 321.5 82.5Q359 103 379.0 138.5Q399 174 399 218V256L227 224Q173 214 152.5 193.5Q132 173 132 140Q132 103 158.5 82.5Q185 62 231 62Z" fill="#6B8290"/></g><g transform="translate(230.05, 640.00) scale(0.034, -0.034)"><path d="M215 0 22 530H114L268 86L422 530H514L321 0Z" fill="#6B8290"/></g><g transform="translate(248.27, 640.00) scale(0.034, -0.034)"><path d="M223 -12Q141 -12 92.5 26.0Q44 64 44 132Q44 200 84.0 239.0Q124 278 211 294L399 329Q399 396 367.5 429.0Q336 462 273 462Q218 462 186.0 437.5Q154 413 142 367L53 374Q68 449 125.5 495.5Q183 542 273 542Q375 542 429.0 484.5Q483 427 483 326V107Q483 89 489.5 81.5Q496 74 511 74H532V0Q528 -1 519.0 -1.5Q510 -2 500 -2Q464 -2 441.5 9.5Q419 21 409.0 45.5Q399 70 399 110L409 108Q402 74 375.0 46.5Q348 19 308.0 3.5Q268 -12 223 -12ZM231 62Q284 62 321.5 82.5Q359 103 379.0 138.5Q399 174 399 218V256L227 224Q173 214 152.5 193.5Q132 173 132 140Q132 103 158.5 82.5Q185 62 231 62Z" fill="#6B8290"/></g><g transform="translate(267.00, 640.00) scale(0.034, -0.034)"><path d="M80 0V530H157L160 395L150 404Q160 451 185.0 481.5Q210 512 245.5 527.0Q281 542 322 542Q383 542 422.5 515.0Q462 488 481.5 442.5Q501 397 501 341V0H417V317Q417 366 405.5 399.5Q394 433 369.0 450.5Q344 468 304 468Q243 468 203.5 429.5Q164 391 164 317V0Z" fill="#6B8290"/></g><g transform="translate(286.76, 640.00) scale(0.034, -0.034)"><path d="M281 -162Q224 -162 178.0 -143.0Q132 -124 101.0 -89.0Q70 -54 59 -8L147 -2Q159 -39 189.5 -60.5Q220 -82 281 -82Q353 -82 391.5 -53.0Q430 -24 430 34V120Q411 78 369.0 53.0Q327 28 275 28Q208 28 155.5 61.0Q103 94 73.5 152.0Q44 210 44 285Q44 361 73.0 418.5Q102 476 153.5 509.0Q205 542 271 542Q327 542 371.5 516.0Q416 490 434 446V530H514V36Q514 -26 486.0 -70.5Q458 -115 406.0 -138.5Q354 -162 281 -162ZM279 108Q347 108 388.0 155.5Q429 203 430 285Q431 340 412.5 379.5Q394 419 359.5 440.5Q325 462 279 462Q209 462 170.5 414.5Q132 367 132 285Q132 203 171.5 155.5Q211 108 279 108Z" fill="#6B8290"/></g><g transform="translate(306.95, 640.00) scale(0.034, -0.034)"><path d="M287 -12Q212 -12 157.5 22.0Q103 56 73.5 118.5Q44 181 44 265Q44 349 73.5 411.0Q103 473 156.5 507.5Q210 542 283 542Q352 542 405.0 509.5Q458 477 487.5 415.0Q517 353 517 264V239H132Q137 154 177.5 111.0Q218 68 287 68Q339 68 372.5 92.5Q406 117 419 157L509 150Q488 79 429.5 33.5Q371 -12 287 -12ZM132 313H425Q419 390 380.5 426.0Q342 462 283 462Q222 462 182.5 424.5Q143 387 132 313Z" fill="#6B8290"/></g><g transform="translate(326.03, 640.00) scale(0.034, -0.034)"><path d="M80 0V530H154L158 396L150 399Q160 467 193.5 498.5Q227 530 283 530H335V450H284Q244 450 217.5 435.5Q191 421 177.5 392.5Q164 364 164 320V0Z" fill="#6B8290"/></g><g transform="translate(338.91, 640.00) scale(0.034, -0.034)"><path d="M47 -156 95 0H44V113H157V14L97 -156Z" fill="#6B8290"/></g><g transform="translate(354.25, 640.00) scale(0.034, -0.034)"><path d="M92 0V710H214L565 86V710H651V0H523L178 612V0Z" fill="#6B8290"/></g><g transform="translate(379.51, 640.00) scale(0.034, -0.034)"><path d="M287 -12Q214 -12 159.0 22.0Q104 56 74.0 118.5Q44 181 44 265Q44 350 74.0 412.0Q104 474 159.0 508.0Q214 542 287 542Q360 542 414.5 508.0Q469 474 499.0 412.0Q529 350 529 265Q529 181 499.0 118.5Q469 56 414.5 22.0Q360 -12 287 -12ZM287 68Q360 68 400.5 120.5Q441 173 441 265Q441 357 400.5 409.5Q360 462 287 462Q214 462 173.0 409.5Q132 357 132 265Q132 173 173.0 120.5Q214 68 287 68Z" fill="#6B8290"/></g><g transform="translate(398.99, 640.00) scale(0.034, -0.034)"><path d="M80 0V530H154L158 396L150 399Q160 467 193.5 498.5Q227 530 283 530H335V450H284Q244 450 217.5 435.5Q191 421 177.5 392.5Q164 364 164 320V0Z" fill="#6B8290"/></g><g transform="translate(411.88, 640.00) scale(0.034, -0.034)"><path d="M186 0 22 530H114L238 88L364 530H454L580 88L705 530H797L633 0H527L409 403L291 0Z" fill="#6B8290"/></g><g transform="translate(439.72, 640.00) scale(0.034, -0.034)"><path d="M223 -12Q141 -12 92.5 26.0Q44 64 44 132Q44 200 84.0 239.0Q124 278 211 294L399 329Q399 396 367.5 429.0Q336 462 273 462Q218 462 186.0 437.5Q154 413 142 367L53 374Q68 449 125.5 495.5Q183 542 273 542Q375 542 429.0 484.5Q483 427 483 326V107Q483 89 489.5 81.5Q496 74 511 74H532V0Q528 -1 519.0 -1.5Q510 -2 500 -2Q464 -2 441.5 9.5Q419 21 409.0 45.5Q399 70 399 110L409 108Q402 74 375.0 46.5Q348 19 308.0 3.5Q268 -12 223 -12ZM231 62Q284 62 321.5 82.5Q359 103 379.0 138.5Q399 174 399 218V256L227 224Q173 214 152.5 193.5Q132 173 132 140Q132 103 158.5 82.5Q185 62 231 62Z" fill="#6B8290"/></g><g transform="translate(458.46, 640.00) scale(0.034, -0.034)"><path d="M103 -150V-76H164Q192 -76 205.5 -67.5Q219 -59 226 -40L245 10H216L22 530H114L272 88L423 530H515L300 -67Q285 -110 255.0 -130.0Q225 -150 172 -150Z" fill="#6B8290"/></g>
  <g transform="translate(1390, 790) scale(11.724137931034482)"><rect x="0" y="0" width="1" height="1" fill="#F4F1EA"/><rect x="1" y="0" width="1" height="1" fill="#F4F1EA"/><rect x="2" y="0" width="1" height="1" fill="#F4F1EA"/><rect x="3" y="0" width="1" height="1" fill="#F4F1EA"/><rect x="4" y="0" width="1" height="1" fill="#F4F1EA"/><rect x="5" y="0" width="1" height="1" fill="#F4F1EA"/><rect x="6" y="0" width="1" height="1" fill="#F4F1EA"/><rect x="8" y="0" width="1" height="1" fill="#F4F1EA"/><rect x="9" y="0" width="1" height="1" fill="#F4F1EA"/><rect x="11" y="0" width="1" height="1" fill="#F4F1EA"/><rect x="14" y="0" width="1" height="1" fill="#F4F1EA"/><rect x="15" y="0" width="1" height="1" fill="#F4F1EA"/><rect x="16" y="0" width="1" height="1" fill="#F4F1EA"/><rect x="18" y="0" width="1" height="1" fill="#F4F1EA"/><rect x="20" y="0" width="1" height="1" fill="#F4F1EA"/><rect x="22" y="0" width="1" height="1" fill="#F4F1EA"/><rect x="23" y="0" width="1" height="1" fill="#F4F1EA"/><rect x="24" y="0" width="1" height="1" fill="#F4F1EA"/><rect x="25" y="0" width="1" height="1" fill="#F4F1EA"/><rect x="26" y="0" width="1" height="1" fill="#F4F1EA"/><rect x="27" y="0" width="1" height="1" fill="#F4F1EA"/><rect x="28" y="0" width="1" height="1" fill="#F4F1EA"/><rect x="0" y="1" width="1" height="1" fill="#F4F1EA"/><rect x="6" y="1" width="1" height="1" fill="#F4F1EA"/><rect x="9" y="1" width="1" height="1" fill="#F4F1EA"/><rect x="11" y="1" width="1" height="1" fill="#F4F1EA"/><rect x="12" y="1" width="1" height="1" fill="#F4F1EA"/><rect x="13" y="1" width="1" height="1" fill="#F4F1EA"/><rect x="14" y="1" width="1" height="1" fill="#F4F1EA"/><rect x="17" y="1" width="1" height="1" fill="#F4F1EA"/><rect x="18" y="1" width="1" height="1" fill="#F4F1EA"/><rect x="22" y="1" width="1" height="1" fill="#F4F1EA"/><rect x="28" y="1" width="1" height="1" fill="#F4F1EA"/><rect x="0" y="2" width="1" height="1" fill="#F4F1EA"/><rect x="2" y="2" width="1" height="1" fill="#F4F1EA"/><rect x="3" y="2" width="1" height="1" fill="#F4F1EA"/><rect x="4" y="2" width="1" height="1" fill="#F4F1EA"/><rect x="6" y="2" width="1" height="1" fill="#F4F1EA"/><rect x="8" y="2" width="1" height="1" fill="#F4F1EA"/><rect x="11" y="2" width="1" height="1" fill="#F4F1EA"/><rect x="14" y="2" width="1" height="1" fill="#F4F1EA"/><rect x="16" y="2" width="1" height="1" fill="#F4F1EA"/><rect x="17" y="2" width="1" height="1" fill="#F4F1EA"/><rect x="20" y="2" width="1" height="1" fill="#F4F1EA"/><rect x="22" y="2" width="1" height="1" fill="#F4F1EA"/><rect x="24" y="2" width="1" height="1" fill="#F4F1EA"/><rect x="25" y="2" width="1" height="1" fill="#F4F1EA"/><rect x="26" y="2" width="1" height="1" fill="#F4F1EA"/><rect x="28" y="2" width="1" height="1" fill="#F4F1EA"/><rect x="0" y="3" width="1" height="1" fill="#F4F1EA"/><rect x="2" y="3" width="1" height="1" fill="#F4F1EA"/><rect x="3" y="3" width="1" height="1" fill="#F4F1EA"/><rect x="4" y="3" width="1" height="1" fill="#F4F1EA"/><rect x="6" y="3" width="1" height="1" fill="#F4F1EA"/><rect x="9" y="3" width="1" height="1" fill="#F4F1EA"/><rect x="14" y="3" width="1" height="1" fill="#F4F1EA"/><rect x="17" y="3" width="1" height="1" fill="#F4F1EA"/><rect x="18" y="3" width="1" height="1" fill="#F4F1EA"/><rect x="20" y="3" width="1" height="1" fill="#F4F1EA"/><rect x="22" y="3" width="1" height="1" fill="#F4F1EA"/><rect x="24" y="3" width="1" height="1" fill="#F4F1EA"/><rect x="25" y="3" width="1" height="1" fill="#F4F1EA"/><rect x="26" y="3" width="1" height="1" fill="#F4F1EA"/><rect x="28" y="3" width="1" height="1" fill="#F4F1EA"/><rect x="0" y="4" width="1" height="1" fill="#F4F1EA"/><rect x="2" y="4" width="1" height="1" fill="#F4F1EA"/><rect x="3" y="4" width="1" height="1" fill="#F4F1EA"/><rect x="4" y="4" width="1" height="1" fill="#F4F1EA"/><rect x="6" y="4" width="1" height="1" fill="#F4F1EA"/><rect x="9" y="4" width="1" height="1" fill="#F4F1EA"/><rect x="13" y="4" width="1" height="1" fill="#F4F1EA"/><rect x="14" y="4" width="1" height="1" fill="#F4F1EA"/><rect x="17" y="4" width="1" height="1" fill="#F4F1EA"/><rect x="18" y="4" width="1" height="1" fill="#F4F1EA"/><rect x="22" y="4" width="1" height="1" fill="#F4F1EA"/><rect x="24" y="4" width="1" height="1" fill="#F4F1EA"/><rect x="25" y="4" width="1" height="1" fill="#F4F1EA"/><rect x="26" y="4" width="1" height="1" fill="#F4F1EA"/><rect x="28" y="4" width="1" height="1" fill="#F4F1EA"/><rect x="0" y="5" width="1" height="1" fill="#F4F1EA"/><rect x="6" y="5" width="1" height="1" fill="#F4F1EA"/><rect x="8" y="5" width="1" height="1" fill="#F4F1EA"/><rect x="9" y="5" width="1" height="1" fill="#F4F1EA"/><rect x="16" y="5" width="1" height="1" fill="#F4F1EA"/><rect x="17" y="5" width="1" height="1" fill="#F4F1EA"/><rect x="20" y="5" width="1" height="1" fill="#F4F1EA"/><rect x="22" y="5" width="1" height="1" fill="#F4F1EA"/><rect x="28" y="5" width="1" height="1" fill="#F4F1EA"/><rect x="0" y="6" width="1" height="1" fill="#F4F1EA"/><rect x="1" y="6" width="1" height="1" fill="#F4F1EA"/><rect x="2" y="6" width="1" height="1" fill="#F4F1EA"/><rect x="3" y="6" width="1" height="1" fill="#F4F1EA"/><rect x="4" y="6" width="1" height="1" fill="#F4F1EA"/><rect x="5" y="6" width="1" height="1" fill="#F4F1EA"/><rect x="6" y="6" width="1" height="1" fill="#F4F1EA"/><rect x="8" y="6" width="1" height="1" fill="#F4F1EA"/><rect x="10" y="6" width="1" height="1" fill="#F4F1EA"/><rect x="12" y="6" width="1" height="1" fill="#F4F1EA"/><rect x="14" y="6" width="1" height="1" fill="#F4F1EA"/><rect x="16" y="6" width="1" height="1" fill="#F4F1EA"/><rect x="18" y="6" width="1" height="1" fill="#F4F1EA"/><rect x="20" y="6" width="1" height="1" fill="#F4F1EA"/><rect x="22" y="6" width="1" height="1" fill="#F4F1EA"/><rect x="23" y="6" width="1" height="1" fill="#F4F1EA"/><rect x="24" y="6" width="1" height="1" fill="#F4F1EA"/><rect x="25" y="6" width="1" height="1" fill="#F4F1EA"/><rect x="26" y="6" width="1" height="1" fill="#F4F1EA"/><rect x="27" y="6" width="1" height="1" fill="#F4F1EA"/><rect x="28" y="6" width="1" height="1" fill="#F4F1EA"/><rect x="9" y="7" width="1" height="1" fill="#F4F1EA"/><rect x="12" y="7" width="1" height="1" fill="#F4F1EA"/><rect x="14" y="7" width="1" height="1" fill="#F4F1EA"/><rect x="18" y="7" width="1" height="1" fill="#F4F1EA"/><rect x="0" y="8" width="1" height="1" fill="#F4F1EA"/><rect x="2" y="8" width="1" height="1" fill="#F4F1EA"/><rect x="6" y="8" width="1" height="1" fill="#F4F1EA"/><rect x="7" y="8" width="1" height="1" fill="#F4F1EA"/><rect x="13" y="8" width="1" height="1" fill="#F4F1EA"/><rect x="14" y="8" width="1" height="1" fill="#F4F1EA"/><rect x="15" y="8" width="1" height="1" fill="#F4F1EA"/><rect x="16" y="8" width="1" height="1" fill="#F4F1EA"/><rect x="19" y="8" width="1" height="1" fill="#F4F1EA"/><rect x="23" y="8" width="1" height="1" fill="#F4F1EA"/><rect x="26" y="8" width="1" height="1" fill="#F4F1EA"/><rect x="28" y="8" width="1" height="1" fill="#F4F1EA"/><rect x="3" y="9" width="1" height="1" fill="#F4F1EA"/><rect x="4" y="9" width="1" height="1" fill="#F4F1EA"/><rect x="5" y="9" width="1" height="1" fill="#F4F1EA"/><rect x="8" y="9" width="1" height="1" fill="#F4F1EA"/><rect x="9" y="9" width="1" height="1" fill="#F4F1EA"/><rect x="11" y="9" width="1" height="1" fill="#F4F1EA"/><rect x="12" y="9" width="1" height="1" fill="#F4F1EA"/><rect x="13" y="9" width="1" height="1" fill="#F4F1EA"/><rect x="14" y="9" width="1" height="1" fill="#F4F1EA"/><rect x="15" y="9" width="1" height="1" fill="#F4F1EA"/><rect x="16" y="9" width="1" height="1" fill="#F4F1EA"/><rect x="19" y="9" width="1" height="1" fill="#F4F1EA"/><rect x="20" y="9" width="1" height="1" fill="#F4F1EA"/><rect x="22" y="9" width="1" height="1" fill="#F4F1EA"/><rect x="23" y="9" width="1" height="1" fill="#F4F1EA"/><rect x="27" y="9" width="1" height="1" fill="#F4F1EA"/><rect x="28" y="9" width="1" height="1" fill="#F4F1EA"/><rect x="2" y="10" width="1" height="1" fill="#F4F1EA"/><rect x="4" y="10" width="1" height="1" fill="#F4F1EA"/><rect x="6" y="10" width="1" height="1" fill="#F4F1EA"/><rect x="8" y="10" width="1" height="1" fill="#F4F1EA"/><rect x="10" y="10" width="1" height="1" fill="#F4F1EA"/><rect x="11" y="10" width="1" height="1" fill="#F4F1EA"/><rect x="15" y="10" width="1" height="1" fill="#F4F1EA"/><rect x="16" y="10" width="1" height="1" fill="#F4F1EA"/><rect x="17" y="10" width="1" height="1" fill="#F4F1EA"/><rect x="18" y="10" width="1" height="1" fill="#F4F1EA"/><rect x="19" y="10" width="1" height="1" fill="#F4F1EA"/><rect x="22" y="10" width="1" height="1" fill="#F4F1EA"/><rect x="24" y="10" width="1" height="1" fill="#F4F1EA"/><rect x="25" y="10" width="1" height="1" fill="#F4F1EA"/><rect x="26" y="10" width="1" height="1" fill="#F4F1EA"/><rect x="28" y="10" width="1" height="1" fill="#F4F1EA"/><rect x="1" y="11" width="1" height="1" fill="#F4F1EA"/><rect x="2" y="11" width="1" height="1" fill="#F4F1EA"/><rect x="8" y="11" width="1" height="1" fill="#F4F1EA"/><rect x="12" y="11" width="1" height="1" fill="#F4F1EA"/><rect x="13" y="11" width="1" height="1" fill="#F4F1EA"/><rect x="16" y="11" width="1" height="1" fill="#F4F1EA"/><rect x="18" y="11" width="1" height="1" fill="#F4F1EA"/><rect x="19" y="11" width="1" height="1" fill="#F4F1EA"/><rect x="20" y="11" width="1" height="1" fill="#F4F1EA"/><rect x="24" y="11" width="1" height="1" fill="#F4F1EA"/><rect x="25" y="11" width="1" height="1" fill="#F4F1EA"/><rect x="0" y="12" width="1" height="1" fill="#F4F1EA"/><rect x="3" y="12" width="1" height="1" fill="#F4F1EA"/><rect x="4" y="12" width="1" height="1" fill="#F4F1EA"/><rect x="6" y="12" width="1" height="1" fill="#F4F1EA"/><rect x="7" y="12" width="1" height="1" fill="#F4F1EA"/><rect x="8" y="12" width="1" height="1" fill="#F4F1EA"/><rect x="10" y="12" width="1" height="1" fill="#F4F1EA"/><rect x="12" y="12" width="1" height="1" fill="#F4F1EA"/><rect x="13" y="12" width="1" height="1" fill="#F4F1EA"/><rect x="16" y="12" width="1" height="1" fill="#F4F1EA"/><rect x="20" y="12" width="1" height="1" fill="#F4F1EA"/><rect x="22" y="12" width="1" height="1" fill="#F4F1EA"/><rect x="23" y="12" width="1" height="1" fill="#F4F1EA"/><rect x="28" y="12" width="1" height="1" fill="#F4F1EA"/><rect x="1" y="13" width="1" height="1" fill="#F4F1EA"/><rect x="2" y="13" width="1" height="1" fill="#F4F1EA"/><rect x="3" y="13" width="1" height="1" fill="#F4F1EA"/><rect x="4" y="13" width="1" height="1" fill="#F4F1EA"/><rect x="9" y="13" width="1" height="1" fill="#F4F1EA"/><rect x="11" y="13" width="1" height="1" fill="#F4F1EA"/><rect x="15" y="13" width="1" height="1" fill="#F4F1EA"/><rect x="16" y="13" width="1" height="1" fill="#F4F1EA"/><rect x="18" y="13" width="1" height="1" fill="#F4F1EA"/><rect x="19" y="13" width="1" height="1" fill="#F4F1EA"/><rect x="22" y="13" width="1" height="1" fill="#F4F1EA"/><rect x="23" y="13" width="1" height="1" fill="#F4F1EA"/><rect x="27" y="13" width="1" height="1" fill="#F4F1EA"/><rect x="28" y="13" width="1" height="1" fill="#F4F1EA"/><rect x="1" y="14" width="1" height="1" fill="#F4F1EA"/><rect x="3" y="14" width="1" height="1" fill="#F4F1EA"/><rect x="4" y="14" width="1" height="1" fill="#F4F1EA"/><rect x="6" y="14" width="1" height="1" fill="#F4F1EA"/><rect x="7" y="14" width="1" height="1" fill="#F4F1EA"/><rect x="9" y="14" width="1" height="1" fill="#F4F1EA"/><rect x="10" y="14" width="1" height="1" fill="#F4F1EA"/><rect x="12" y="14" width="1" height="1" fill="#F4F1EA"/><rect x="13" y="14" width="1" height="1" fill="#F4F1EA"/><rect x="14" y="14" width="1" height="1" fill="#F4F1EA"/><rect x="15" y="14" width="1" height="1" fill="#F4F1EA"/><rect x="16" y="14" width="1" height="1" fill="#F4F1EA"/><rect x="18" y="14" width="1" height="1" fill="#F4F1EA"/><rect x="19" y="14" width="1" height="1" fill="#F4F1EA"/><rect x="23" y="14" width="1" height="1" fill="#F4F1EA"/><rect x="24" y="14" width="1" height="1" fill="#F4F1EA"/><rect x="28" y="14" width="1" height="1" fill="#F4F1EA"/><rect x="0" y="15" width="1" height="1" fill="#F4F1EA"/><rect x="4" y="15" width="1" height="1" fill="#F4F1EA"/><rect x="5" y="15" width="1" height="1" fill="#F4F1EA"/><rect x="8" y="15" width="1" height="1" fill="#F4F1EA"/><rect x="10" y="15" width="1" height="1" fill="#F4F1EA"/><rect x="11" y="15" width="1" height="1" fill="#F4F1EA"/><rect x="12" y="15" width="1" height="1" fill="#F4F1EA"/><rect x="14" y="15" width="1" height="1" fill="#F4F1EA"/><rect x="16" y="15" width="1" height="1" fill="#F4F1EA"/><rect x="23" y="15" width="1" height="1" fill="#F4F1EA"/><rect x="24" y="15" width="1" height="1" fill="#F4F1EA"/><rect x="0" y="16" width="1" height="1" fill="#F4F1EA"/><rect x="2" y="16" width="1" height="1" fill="#F4F1EA"/><rect x="5" y="16" width="1" height="1" fill="#F4F1EA"/><rect x="6" y="16" width="1" height="1" fill="#F4F1EA"/><rect x="8" y="16" width="1" height="1" fill="#F4F1EA"/><rect x="9" y="16" width="1" height="1" fill="#F4F1EA"/><rect x="11" y="16" width="1" height="1" fill="#F4F1EA"/><rect x="12" y="16" width="1" height="1" fill="#F4F1EA"/><rect x="13" y="16" width="1" height="1" fill="#F4F1EA"/><rect x="14" y="16" width="1" height="1" fill="#F4F1EA"/><rect x="15" y="16" width="1" height="1" fill="#F4F1EA"/><rect x="16" y="16" width="1" height="1" fill="#F4F1EA"/><rect x="20" y="16" width="1" height="1" fill="#F4F1EA"/><rect x="22" y="16" width="1" height="1" fill="#F4F1EA"/><rect x="23" y="16" width="1" height="1" fill="#F4F1EA"/><rect x="28" y="16" width="1" height="1" fill="#F4F1EA"/><rect x="2" y="17" width="1" height="1" fill="#F4F1EA"/><rect x="3" y="17" width="1" height="1" fill="#F4F1EA"/><rect x="4" y="17" width="1" height="1" fill="#F4F1EA"/><rect x="5" y="17" width="1" height="1" fill="#F4F1EA"/><rect x="7" y="17" width="1" height="1" fill="#F4F1EA"/><rect x="13" y="17" width="1" height="1" fill="#F4F1EA"/><rect x="14" y="17" width="1" height="1" fill="#F4F1EA"/><rect x="15" y="17" width="1" height="1" fill="#F4F1EA"/><rect x="16" y="17" width="1" height="1" fill="#F4F1EA"/><rect x="19" y="17" width="1" height="1" fill="#F4F1EA"/><rect x="20" y="17" width="1" height="1" fill="#F4F1EA"/><rect x="22" y="17" width="1" height="1" fill="#F4F1EA"/><rect x="23" y="17" width="1" height="1" fill="#F4F1EA"/><rect x="26" y="17" width="1" height="1" fill="#F4F1EA"/><rect x="27" y="17" width="1" height="1" fill="#F4F1EA"/><rect x="28" y="17" width="1" height="1" fill="#F4F1EA"/><rect x="0" y="18" width="1" height="1" fill="#F4F1EA"/><rect x="1" y="18" width="1" height="1" fill="#F4F1EA"/><rect x="2" y="18" width="1" height="1" fill="#F4F1EA"/><rect x="4" y="18" width="1" height="1" fill="#F4F1EA"/><rect x="5" y="18" width="1" height="1" fill="#F4F1EA"/><rect x="6" y="18" width="1" height="1" fill="#F4F1EA"/><rect x="9" y="18" width="1" height="1" fill="#F4F1EA"/><rect x="11" y="18" width="1" height="1" fill="#F4F1EA"/><rect x="15" y="18" width="1" height="1" fill="#F4F1EA"/><rect x="17" y="18" width="1" height="1" fill="#F4F1EA"/><rect x="19" y="18" width="1" height="1" fill="#F4F1EA"/><rect x="21" y="18" width="1" height="1" fill="#F4F1EA"/><rect x="22" y="18" width="1" height="1" fill="#F4F1EA"/><rect x="25" y="18" width="1" height="1" fill="#F4F1EA"/><rect x="28" y="18" width="1" height="1" fill="#F4F1EA"/><rect x="3" y="19" width="1" height="1" fill="#F4F1EA"/><rect x="4" y="19" width="1" height="1" fill="#F4F1EA"/><rect x="10" y="19" width="1" height="1" fill="#F4F1EA"/><rect x="11" y="19" width="1" height="1" fill="#F4F1EA"/><rect x="13" y="19" width="1" height="1" fill="#F4F1EA"/><rect x="21" y="19" width="1" height="1" fill="#F4F1EA"/><rect x="23" y="19" width="1" height="1" fill="#F4F1EA"/><rect x="24" y="19" width="1" height="1" fill="#F4F1EA"/><rect x="0" y="20" width="1" height="1" fill="#F4F1EA"/><rect x="1" y="20" width="1" height="1" fill="#F4F1EA"/><rect x="2" y="20" width="1" height="1" fill="#F4F1EA"/><rect x="3" y="20" width="1" height="1" fill="#F4F1EA"/><rect x="6" y="20" width="1" height="1" fill="#F4F1EA"/><rect x="8" y="20" width="1" height="1" fill="#F4F1EA"/><rect x="11" y="20" width="1" height="1" fill="#F4F1EA"/><rect x="13" y="20" width="1" height="1" fill="#F4F1EA"/><rect x="16" y="20" width="1" height="1" fill="#F4F1EA"/><rect x="18" y="20" width="1" height="1" fill="#F4F1EA"/><rect x="19" y="20" width="1" height="1" fill="#F4F1EA"/><rect x="20" y="20" width="1" height="1" fill="#F4F1EA"/><rect x="21" y="20" width="1" height="1" fill="#F4F1EA"/><rect x="22" y="20" width="1" height="1" fill="#F4F1EA"/><rect x="23" y="20" width="1" height="1" fill="#F4F1EA"/><rect x="24" y="20" width="1" height="1" fill="#F4F1EA"/><rect x="25" y="20" width="1" height="1" fill="#F4F1EA"/><rect x="27" y="20" width="1" height="1" fill="#F4F1EA"/><rect x="8" y="21" width="1" height="1" fill="#F4F1EA"/><rect x="9" y="21" width="1" height="1" fill="#F4F1EA"/><rect x="11" y="21" width="1" height="1" fill="#F4F1EA"/><rect x="15" y="21" width="1" height="1" fill="#F4F1EA"/><rect x="16" y="21" width="1" height="1" fill="#F4F1EA"/><rect x="17" y="21" width="1" height="1" fill="#F4F1EA"/><rect x="20" y="21" width="1" height="1" fill="#F4F1EA"/><rect x="24" y="21" width="1" height="1" fill="#F4F1EA"/><rect x="25" y="21" width="1" height="1" fill="#F4F1EA"/><rect x="26" y="21" width="1" height="1" fill="#F4F1EA"/><rect x="28" y="21" width="1" height="1" fill="#F4F1EA"/><rect x="0" y="22" width="1" height="1" fill="#F4F1EA"/><rect x="1" y="22" width="1" height="1" fill="#F4F1EA"/><rect x="2" y="22" width="1" height="1" fill="#F4F1EA"/><rect x="3" y="22" width="1" height="1" fill="#F4F1EA"/><rect x="4" y="22" width="1" height="1" fill="#F4F1EA"/><rect x="5" y="22" width="1" height="1" fill="#F4F1EA"/><rect x="6" y="22" width="1" height="1" fill="#F4F1EA"/><rect x="8" y="22" width="1" height="1" fill="#F4F1EA"/><rect x="9" y="22" width="1" height="1" fill="#F4F1EA"/><rect x="10" y="22" width="1" height="1" fill="#F4F1EA"/><rect x="12" y="22" width="1" height="1" fill="#F4F1EA"/><rect x="13" y="22" width="1" height="1" fill="#F4F1EA"/><rect x="14" y="22" width="1" height="1" fill="#F4F1EA"/><rect x="15" y="22" width="1" height="1" fill="#F4F1EA"/><rect x="16" y="22" width="1" height="1" fill="#F4F1EA"/><rect x="17" y="22" width="1" height="1" fill="#F4F1EA"/><rect x="20" y="22" width="1" height="1" fill="#F4F1EA"/><rect x="22" y="22" width="1" height="1" fill="#F4F1EA"/><rect x="24" y="22" width="1" height="1" fill="#F4F1EA"/><rect x="28" y="22" width="1" height="1" fill="#F4F1EA"/><rect x="0" y="23" width="1" height="1" fill="#F4F1EA"/><rect x="6" y="23" width="1" height="1" fill="#F4F1EA"/><rect x="9" y="23" width="1" height="1" fill="#F4F1EA"/><rect x="10" y="23" width="1" height="1" fill="#F4F1EA"/><rect x="11" y="23" width="1" height="1" fill="#F4F1EA"/><rect x="12" y="23" width="1" height="1" fill="#F4F1EA"/><rect x="14" y="23" width="1" height="1" fill="#F4F1EA"/><rect x="16" y="23" width="1" height="1" fill="#F4F1EA"/><rect x="18" y="23" width="1" height="1" fill="#F4F1EA"/><rect x="19" y="23" width="1" height="1" fill="#F4F1EA"/><rect x="20" y="23" width="1" height="1" fill="#F4F1EA"/><rect x="24" y="23" width="1" height="1" fill="#F4F1EA"/><rect x="0" y="24" width="1" height="1" fill="#F4F1EA"/><rect x="2" y="24" width="1" height="1" fill="#F4F1EA"/><rect x="3" y="24" width="1" height="1" fill="#F4F1EA"/><rect x="4" y="24" width="1" height="1" fill="#F4F1EA"/><rect x="6" y="24" width="1" height="1" fill="#F4F1EA"/><rect x="9" y="24" width="1" height="1" fill="#F4F1EA"/><rect x="11" y="24" width="1" height="1" fill="#F4F1EA"/><rect x="13" y="24" width="1" height="1" fill="#F4F1EA"/><rect x="14" y="24" width="1" height="1" fill="#F4F1EA"/><rect x="16" y="24" width="1" height="1" fill="#F4F1EA"/><rect x="19" y="24" width="1" height="1" fill="#F4F1EA"/><rect x="20" y="24" width="1" height="1" fill="#F4F1EA"/><rect x="21" y="24" width="1" height="1" fill="#F4F1EA"/><rect x="22" y="24" width="1" height="1" fill="#F4F1EA"/><rect x="23" y="24" width="1" height="1" fill="#F4F1EA"/><rect x="24" y="24" width="1" height="1" fill="#F4F1EA"/><rect x="25" y="24" width="1" height="1" fill="#F4F1EA"/><rect x="28" y="24" width="1" height="1" fill="#F4F1EA"/><rect x="0" y="25" width="1" height="1" fill="#F4F1EA"/><rect x="2" y="25" width="1" height="1" fill="#F4F1EA"/><rect x="3" y="25" width="1" height="1" fill="#F4F1EA"/><rect x="4" y="25" width="1" height="1" fill="#F4F1EA"/><rect x="6" y="25" width="1" height="1" fill="#F4F1EA"/><rect x="9" y="25" width="1" height="1" fill="#F4F1EA"/><rect x="12" y="25" width="1" height="1" fill="#F4F1EA"/><rect x="14" y="25" width="1" height="1" fill="#F4F1EA"/><rect x="15" y="25" width="1" height="1" fill="#F4F1EA"/><rect x="16" y="25" width="1" height="1" fill="#F4F1EA"/><rect x="18" y="25" width="1" height="1" fill="#F4F1EA"/><rect x="20" y="25" width="1" height="1" fill="#F4F1EA"/><rect x="21" y="25" width="1" height="1" fill="#F4F1EA"/><rect x="24" y="25" width="1" height="1" fill="#F4F1EA"/><rect x="25" y="25" width="1" height="1" fill="#F4F1EA"/><rect x="26" y="25" width="1" height="1" fill="#F4F1EA"/><rect x="28" y="25" width="1" height="1" fill="#F4F1EA"/><rect x="0" y="26" width="1" height="1" fill="#F4F1EA"/><rect x="2" y="26" width="1" height="1" fill="#F4F1EA"/><rect x="3" y="26" width="1" height="1" fill="#F4F1EA"/><rect x="4" y="26" width="1" height="1" fill="#F4F1EA"/><rect x="6" y="26" width="1" height="1" fill="#F4F1EA"/><rect x="8" y="26" width="1" height="1" fill="#F4F1EA"/><rect x="9" y="26" width="1" height="1" fill="#F4F1EA"/><rect x="10" y="26" width="1" height="1" fill="#F4F1EA"/><rect x="11" y="26" width="1" height="1" fill="#F4F1EA"/><rect x="15" y="26" width="1" height="1" fill="#F4F1EA"/><rect x="18" y="26" width="1" height="1" fill="#F4F1EA"/><rect x="21" y="26" width="1" height="1" fill="#F4F1EA"/><rect x="24" y="26" width="1" height="1" fill="#F4F1EA"/><rect x="27" y="26" width="1" height="1" fill="#F4F1EA"/><rect x="28" y="26" width="1" height="1" fill="#F4F1EA"/><rect x="0" y="27" width="1" height="1" fill="#F4F1EA"/><rect x="6" y="27" width="1" height="1" fill="#F4F1EA"/><rect x="9" y="27" width="1" height="1" fill="#F4F1EA"/><rect x="10" y="27" width="1" height="1" fill="#F4F1EA"/><rect x="11" y="27" width="1" height="1" fill="#F4F1EA"/><rect x="12" y="27" width="1" height="1" fill="#F4F1EA"/><rect x="14" y="27" width="1" height="1" fill="#F4F1EA"/><rect x="15" y="27" width="1" height="1" fill="#F4F1EA"/><rect x="16" y="27" width="1" height="1" fill="#F4F1EA"/><rect x="18" y="27" width="1" height="1" fill="#F4F1EA"/><rect x="20" y="27" width="1" height="1" fill="#F4F1EA"/><rect x="23" y="27" width="1" height="1" fill="#F4F1EA"/><rect x="24" y="27" width="1" height="1" fill="#F4F1EA"/><rect x="25" y="27" width="1" height="1" fill="#F4F1EA"/><rect x="0" y="28" width="1" height="1" fill="#F4F1EA"/><rect x="1" y="28" width="1" height="1" fill="#F4F1EA"/><rect x="2" y="28" width="1" height="1" fill="#F4F1EA"/><rect x="3" y="28" width="1" height="1" fill="#F4F1EA"/><rect x="4" y="28" width="1" height="1" fill="#F4F1EA"/><rect x="5" y="28" width="1" height="1" fill="#F4F1EA"/><rect x="6" y="28" width="1" height="1" fill="#F4F1EA"/><rect x="8" y="28" width="1" height="1" fill="#F4F1EA"/><rect x="9" y="28" width="1" height="1" fill="#F4F1EA"/><rect x="11" y="28" width="1" height="1" fill="#F4F1EA"/><rect x="12" y="28" width="1" height="1" fill="#F4F1EA"/><rect x="13" y="28" width="1" height="1" fill="#F4F1EA"/><rect x="16" y="28" width="1" height="1" fill="#F4F1EA"/><rect x="19" y="28" width="1" height="1" fill="#F4F1EA"/><rect x="20" y="28" width="1" height="1" fill="#F4F1EA"/><rect x="21" y="28" width="1" height="1" fill="#F4F1EA"/><rect x="23" y="28" width="1" height="1" fill="#F4F1EA"/><rect x="24" y="28" width="1" height="1" fill="#F4F1EA"/><rect x="28" y="28" width="1" height="1" fill="#F4F1EA"/></g>
  <g transform="translate(1496.00, 760.00) scale(0.026, -0.026)"><path d="M108 -110 412 750H492L188 -110Z" fill="#6B8290"/></g><g transform="translate(1527.20, 760.00) scale(0.026, -0.026)"><path d="M310 -12Q241 -12 191.0 12.0Q141 36 112.5 76.5Q84 117 80 167L168 173Q176 124 211.5 96.0Q247 68 310 68Q369 68 401.5 85.0Q434 102 434 138Q434 161 423.0 176.0Q412 191 382.0 201.5Q352 212 294 222Q217 236 173.5 256.5Q130 277 112.0 308.0Q94 339 94 382Q94 428 117.0 464.0Q140 500 185.0 521.0Q230 542 295 542Q361 542 405.5 518.5Q450 495 476.0 456.5Q502 418 510 372L422 366Q416 394 399.5 415.5Q383 437 356.5 449.5Q330 462 294 462Q236 462 208.0 439.0Q180 416 180 382Q180 355 193.0 339.0Q206 323 235.0 313.5Q264 304 312 296Q394 283 439.0 262.5Q484 242 502.0 212.0Q520 182 520 138Q520 91 492.5 57.5Q465 24 417.5 6.0Q370 -12 310 -12Z" fill="#6B8290"/></g><g transform="translate(1542.80, 760.00) scale(0.026, -0.026)"><path d="M314 -12Q240 -12 185.0 22.0Q130 56 100.0 118.5Q70 181 70 265Q70 349 100.0 411.0Q130 473 185.0 507.5Q240 542 314 542Q373 542 419.0 520.5Q465 499 495.0 458.0Q525 417 536 358L448 352Q436 405 400.5 433.5Q365 462 314 462Q241 462 199.5 409.5Q158 357 158 265Q158 173 199.5 120.5Q241 68 314 68Q365 68 402.5 98.0Q440 128 452 188L540 182Q529 123 498.0 79.5Q467 36 420.0 12.0Q373 -12 314 -12Z" fill="#6B8290"/></g><g transform="translate(1558.40, 760.00) scale(0.026, -0.026)"><path d="M230 -12Q180 -12 140.0 6.0Q100 24 77.0 56.5Q54 89 54 132Q54 200 94.5 237.5Q135 275 222 292L400 328Q400 396 369.5 429.0Q339 462 282 462Q227 462 196.0 437.5Q165 413 153 367L64 374Q79 449 135.5 495.5Q192 542 282 542Q378 542 431.0 484.5Q484 427 484 326V106Q484 88 492.0 81.0Q500 74 516 74H550V0Q544 -1 531.0 -1.5Q518 -2 506 -2Q472 -2 448.5 9.0Q425 20 413.0 44.5Q401 69 400 108H416Q409 74 382.5 46.5Q356 19 316.0 3.5Q276 -12 230 -12ZM238 62Q292 62 328.0 80.5Q364 99 382.0 132.5Q400 166 400 210V256L238 224Q184 214 163.0 193.5Q142 173 142 140Q142 103 167.5 82.5Q193 62 238 62Z" fill="#6B8290"/></g><g transform="translate(1574.00, 760.00) scale(0.026, -0.026)"><path d="M84 0V530H161L164 395L154 404Q164 451 190.5 481.5Q217 512 254.0 527.0Q291 542 332 542Q393 542 433.5 515.0Q474 488 495.0 442.5Q516 397 516 341V0H432V317Q432 391 403.0 429.5Q374 468 314 468Q273 468 240.0 450.5Q207 433 187.5 399.5Q168 366 168 317V0Z" fill="#6B8290"/></g><g transform="translate(1605.20, 760.00) scale(0.026, -0.026)"><path d="M378 0Q301 0 263.0 36.0Q225 72 225 146V654H309V146Q309 109 326.0 91.5Q343 74 378 74H520V0ZM50 456V530H520V456Z" fill="#6B8290"/></g><g transform="translate(1620.80, 760.00) scale(0.026, -0.026)"><path d="M300 -12Q227 -12 172.5 22.0Q118 56 88.0 118.5Q58 181 58 265Q58 350 88.0 412.0Q118 474 172.5 508.0Q227 542 300 542Q373 542 427.5 508.0Q482 474 512.0 412.0Q542 350 542 265Q542 181 512.0 118.5Q482 56 427.5 22.0Q373 -12 300 -12ZM300 68Q373 68 413.5 120.5Q454 173 454 265Q454 357 413.5 409.5Q373 462 300 462Q227 462 186.5 409.5Q146 357 146 265Q146 173 186.5 120.5Q227 68 300 68Z" fill="#6B8290"/></g><g transform="translate(1652.00, 760.00) scale(0.026, -0.026)"><path d="M247 0 50 530H142L300 86L458 530H550L353 0Z" fill="#6B8290"/></g><g transform="translate(1667.60, 760.00) scale(0.026, -0.026)"><path d="M80 0V74H293V497L334 456H90V530H377V74H560V0H377H293ZM285 613V711H373V613Z" fill="#6B8290"/></g><g transform="translate(1683.20, 760.00) scale(0.026, -0.026)"><path d="M310 -12Q241 -12 191.0 12.0Q141 36 112.5 76.5Q84 117 80 167L168 173Q176 124 211.5 96.0Q247 68 310 68Q369 68 401.5 85.0Q434 102 434 138Q434 161 423.0 176.0Q412 191 382.0 201.5Q352 212 294 222Q217 236 173.5 256.5Q130 277 112.0 308.0Q94 339 94 382Q94 428 117.0 464.0Q140 500 185.0 521.0Q230 542 295 542Q361 542 405.5 518.5Q450 495 476.0 456.5Q502 418 510 372L422 366Q416 394 399.5 415.5Q383 437 356.5 449.5Q330 462 294 462Q236 462 208.0 439.0Q180 416 180 382Q180 355 193.0 339.0Q206 323 235.0 313.5Q264 304 312 296Q394 283 439.0 262.5Q484 242 502.0 212.0Q520 182 520 138Q520 91 492.5 57.5Q465 24 417.5 6.0Q370 -12 310 -12Z" fill="#6B8290"/></g><g transform="translate(1698.80, 760.00) scale(0.026, -0.026)"><path d="M80 0V74H293V497L334 456H90V530H377V74H560V0H377H293ZM285 613V711H373V613Z" fill="#6B8290"/></g><g transform="translate(1714.40, 760.00) scale(0.026, -0.026)"><path d="M378 0Q301 0 263.0 36.0Q225 72 225 146V654H309V146Q309 109 326.0 91.5Q343 74 378 74H520V0ZM50 456V530H520V456Z" fill="#6B8290"/></g>
  <g transform="translate(90.00, 1120.00) scale(0.028, -0.028)"><path d="M108 -110 412 750H492L188 -110Z" fill="#4A5A62"/></g><g transform="translate(123.60, 1120.00) scale(0.028, -0.028)"><path d="M300 -12Q227 -12 172.5 22.0Q118 56 88.0 118.5Q58 181 58 265Q58 350 88.0 412.0Q118 474 172.5 508.0Q227 542 300 542Q373 542 427.5 508.0Q482 474 512.0 412.0Q542 350 542 265Q542 181 512.0 118.5Q482 56 427.5 22.0Q373 -12 300 -12ZM300 68Q373 68 413.5 120.5Q454 173 454 265Q454 357 413.5 409.5Q373 462 300 462Q227 462 186.5 409.5Q146 357 146 265Q146 173 186.5 120.5Q227 68 300 68Z" fill="#4A5A62"/></g><g transform="translate(140.40, 1120.00) scale(0.028, -0.028)"><path d="M90 0V74H269L228 34V497L269 456H90V530H298L306 388L298 394Q306 463 340.0 496.5Q374 530 431 530H540V454H432Q393 454 366.5 438.5Q340 423 326.0 393.5Q312 364 312 320V34L272 74H480V0Z" fill="#4A5A62"/></g><g transform="translate(157.20, 1120.00) scale(0.028, -0.028)"><path d="M297 -162Q240 -162 194.0 -143.0Q148 -124 117.0 -89.0Q86 -54 75 -8L163 -2Q175 -39 205.5 -60.5Q236 -82 297 -82Q369 -82 407.5 -53.0Q446 -24 446 34V120Q427 78 385.0 53.0Q343 28 291 28Q224 28 171.5 61.0Q119 94 89.5 152.0Q60 210 60 285Q60 361 89.0 418.5Q118 476 169.5 509.0Q221 542 287 542Q343 542 387.5 516.0Q432 490 450 446V530H530V36Q530 -26 502.0 -70.5Q474 -115 422.0 -138.5Q370 -162 297 -162ZM295 108Q363 108 404.0 155.5Q445 203 446 285Q447 340 428.5 379.5Q410 419 375.5 440.5Q341 462 295 462Q225 462 186.5 414.5Q148 367 148 285Q148 203 187.5 155.5Q227 108 295 108Z" fill="#4A5A62"/></g><g transform="translate(174.00, 1120.00) scale(0.028, -0.028)"><path d="M238 0V122H362V0Z" fill="#4A5A62"/></g><g transform="translate(190.80, 1120.00) scale(0.028, -0.028)"><path d="M84 0V530H161L164 395L154 404Q164 451 190.5 481.5Q217 512 254.0 527.0Q291 542 332 542Q393 542 433.5 515.0Q474 488 495.0 442.5Q516 397 516 341V0H432V317Q432 391 403.0 429.5Q374 468 314 468Q273 468 240.0 450.5Q207 433 187.5 399.5Q168 366 168 317V0Z" fill="#4A5A62"/></g><g transform="translate(207.60, 1120.00) scale(0.028, -0.028)"><path d="M90 0V74H269L228 34V497L269 456H90V530H298L306 388L298 394Q306 463 340.0 496.5Q374 530 431 530H540V454H432Q393 454 366.5 438.5Q340 423 326.0 393.5Q312 364 312 320V34L272 74H480V0Z" fill="#4A5A62"/></g><g transform="translate(241.20, 1120.00) scale(0.028, -0.028)"><path d="M298 726Q378 726 434.5 689.5Q491 653 520.5 582.5Q550 512 550 410Q550 322 535.5 245.0Q521 168 488.5 109.5Q456 51 402.5 17.5Q349 -16 270 -16Q207 -16 163.0 5.0Q119 26 91.5 64.0Q64 102 50 152L140 160Q152 118 182.0 93.0Q212 68 270 68Q329 68 371.5 101.5Q414 135 437.0 202.0Q460 269 462 370L480 366Q469 330 441.5 299.5Q414 269 373.5 250.5Q333 232 282 232Q212 232 160.0 262.0Q108 292 79.0 346.5Q50 401 50 474Q50 552 81.5 608.5Q113 665 169.0 695.5Q225 726 298 726ZM296 642Q226 642 183.0 598.0Q140 554 140 474Q140 401 180.5 357.5Q221 314 288 314Q336 314 374.0 333.5Q412 353 434.0 389.0Q456 425 456 474Q456 523 436.5 561.0Q417 599 381.0 620.5Q345 642 296 642Z" fill="#4A5A62"/></g><g transform="translate(258.00, 1120.00) scale(0.028, -0.028)"><path d="M294 -16Q179 -16 117.0 39.5Q55 95 50 183L139 189Q145 124 187.5 96.0Q230 68 294 68Q337 68 375.0 80.5Q413 93 436.5 121.5Q460 150 460 198Q460 245 439.0 275.5Q418 306 381.5 320.5Q345 335 299 335H243V419H299Q336 419 367.0 430.0Q398 441 416.5 465.5Q435 490 435 530Q435 585 400.0 613.5Q365 642 299 642Q232 642 197.5 615.0Q163 588 156 541L66 547Q76 627 136.0 676.5Q196 726 299 726Q368 726 419.0 702.5Q470 679 497.5 636.0Q525 593 525 534Q525 468 483.5 427.5Q442 387 361 372V390Q448 380 499.0 328.0Q550 276 550 198Q550 130 517.0 82.0Q484 34 426.0 9.0Q368 -16 294 -16Z" fill="#4A5A62"/></g><g transform="translate(274.80, 1120.00) scale(0.028, -0.028)"><path d="M298 -16Q229 -16 177.5 9.0Q126 34 95.5 79.0Q65 124 60 183L150 189Q158 129 197.5 98.5Q237 68 298 68Q367 68 408.5 110.5Q450 153 450 228Q450 278 432.0 314.5Q414 351 380.5 370.5Q347 390 300 390Q258 390 219.5 369.5Q181 349 164 311H72L119 710H497V626H198L166 364L150 380Q166 411 192.0 431.0Q218 451 249.5 461.5Q281 472 312 472Q380 472 431.5 440.5Q483 409 511.5 354.0Q540 299 540 228Q540 157 509.0 101.5Q478 46 423.5 15.0Q369 -16 298 -16Z" fill="#4A5A62"/></g><g transform="translate(308.40, 1120.00) scale(0.028, -0.028)"><path d="M50 0Q50 75 73.5 135.5Q97 196 156.5 251.0Q216 306 322 362Q371 388 401.0 410.0Q431 432 445.0 457.0Q459 482 459 518Q459 555 443.0 582.5Q427 610 395.5 626.0Q364 642 317 642Q242 642 198.5 603.0Q155 564 144 492L54 498Q66 602 134.0 664.0Q202 726 317 726Q390 726 442.0 700.0Q494 674 521.5 627.5Q549 581 549 520Q549 466 531.0 426.5Q513 387 470.5 353.0Q428 319 354 280Q290 246 246.5 211.0Q203 176 180.5 143.5Q158 111 156 84H550V0Z" fill="#4A5A62"/></g><g transform="translate(325.20, 1120.00) scale(0.028, -0.028)"><path d="M294 -16Q179 -16 117.0 39.5Q55 95 50 183L139 189Q145 124 187.5 96.0Q230 68 294 68Q337 68 375.0 80.5Q413 93 436.5 121.5Q460 150 460 198Q460 245 439.0 275.5Q418 306 381.5 320.5Q345 335 299 335H243V419H299Q336 419 367.0 430.0Q398 441 416.5 465.5Q435 490 435 530Q435 585 400.0 613.5Q365 642 299 642Q232 642 197.5 615.0Q163 588 156 541L66 547Q76 627 136.0 676.5Q196 726 299 726Q368 726 419.0 702.5Q470 679 497.5 636.0Q525 593 525 534Q525 468 483.5 427.5Q442 387 361 372V390Q448 380 499.0 328.0Q550 276 550 198Q550 130 517.0 82.0Q484 34 426.0 9.0Q368 -16 294 -16Z" fill="#4A5A62"/></g><g transform="translate(342.00, 1120.00) scale(0.028, -0.028)"><path d="M294 -16Q179 -16 117.0 39.5Q55 95 50 183L139 189Q145 124 187.5 96.0Q230 68 294 68Q337 68 375.0 80.5Q413 93 436.5 121.5Q460 150 460 198Q460 245 439.0 275.5Q418 306 381.5 320.5Q345 335 299 335H243V419H299Q336 419 367.0 430.0Q398 441 416.5 465.5Q435 490 435 530Q435 585 400.0 613.5Q365 642 299 642Q232 642 197.5 615.0Q163 588 156 541L66 547Q76 627 136.0 676.5Q196 726 299 726Q368 726 419.0 702.5Q470 679 497.5 636.0Q525 593 525 534Q525 468 483.5 427.5Q442 387 361 372V390Q448 380 499.0 328.0Q550 276 550 198Q550 130 517.0 82.0Q484 34 426.0 9.0Q368 -16 294 -16Z" fill="#4A5A62"/></g><g transform="translate(375.60, 1120.00) scale(0.028, -0.028)"><path d="M388 0V154H40V232L382 710H474V238H560V154H474V0ZM128 238H388V590Z" fill="#4A5A62"/></g><g transform="translate(392.40, 1120.00) scale(0.028, -0.028)"><path d="M300 -16Q230 -16 173.0 8.0Q116 32 83.0 79.0Q50 126 50 195Q50 272 96.0 322.5Q142 373 218 391L220 371Q159 388 121.5 426.5Q84 465 84 531Q84 587 112.0 631.0Q140 675 188.5 700.5Q237 726 300 726Q363 726 412.0 700.5Q461 675 488.5 631.0Q516 587 516 531Q516 465 479.0 426.5Q442 388 380 371L382 391Q459 373 504.5 322.5Q550 272 550 195Q550 126 517.0 79.0Q484 32 427.5 8.0Q371 -16 300 -16ZM300 68Q370 68 415.0 100.5Q460 133 460 200Q460 262 420.0 299.5Q380 337 300 337Q221 337 180.5 299.5Q140 262 140 200Q140 133 185.0 100.5Q230 68 300 68ZM300 417Q357 417 391.5 445.5Q426 474 426 531Q426 582 392.5 612.0Q359 642 300 642Q242 642 208.0 612.0Q174 582 174 531Q174 474 208.5 445.5Q243 417 300 417Z" fill="#4A5A62"/></g><g transform="translate(409.20, 1120.00) scale(0.028, -0.028)"><path d="M300 -16Q230 -16 173.0 8.0Q116 32 83.0 79.0Q50 126 50 195Q50 272 96.0 322.5Q142 373 218 391L220 371Q159 388 121.5 426.5Q84 465 84 531Q84 587 112.0 631.0Q140 675 188.5 700.5Q237 726 300 726Q363 726 412.0 700.5Q461 675 488.5 631.0Q516 587 516 531Q516 465 479.0 426.5Q442 388 380 371L382 391Q459 373 504.5 322.5Q550 272 550 195Q550 126 517.0 79.0Q484 32 427.5 8.0Q371 -16 300 -16ZM300 68Q370 68 415.0 100.5Q460 133 460 200Q460 262 420.0 299.5Q380 337 300 337Q221 337 180.5 299.5Q140 262 140 200Q140 133 185.0 100.5Q230 68 300 68ZM300 417Q357 417 391.5 445.5Q426 474 426 531Q426 582 392.5 612.0Q359 642 300 642Q242 642 208.0 612.0Q174 582 174 531Q174 474 208.5 445.5Q243 417 300 417Z" fill="#4A5A62"/></g>
</svg>