<svg xmlns="http://www.w3.org/2000/svg" viewBox="0 0 1820 1220" width="1820" height="1220">
  <rect width="1820" height="1220" fill="#0A0A0A"/>
  <g transform="translate(90.00, 650.00) scale(0.16, -0.16)"><path d="M294.59912109375 -12Q211.599609375 -12 155.79986572265625 11.29998779296875Q100.0001220703125 34.5999755859375 70.40020751953125 75.39996337890625Q40.80029296875 116.199951171875 36.80029296875 168.7999267578125L188.9976806640625 174.199951171875Q195.7977294921875 135.799560546875 220.998046875 115.0992431640625Q246.1983642578125 94.39892578125 295.1990966796875 94.39892578125Q335.399658203125 94.39892578125 357.7000732421875 107.39910888671875Q380.00048828125 120.3992919921875 380.00048828125 147.3997802734375Q380.00048828125 164.199951171875 371.8004150390625 175.50006103515625Q363.600341796875 186.8001708984375 340.30010986328125 195.20025634765625Q316.9998779296875 203.600341796875 271.3994140625 211.200439453125Q186.3997802734375 225.8004150390625 138.0999755859375 246.00042724609375Q89.8001708984375 266.200439453125 69.80023193359375 297.900390625Q49.80029296875 329.600341796875 49.80029296875 376.400146484375Q49.80029296875 453.39990234375 109.5999755859375 500.6998291015625Q169.399658203125 547.999755859375 288.19873046875 547.999755859375Q363.998291015625 547.999755859375 415.39801025390625 524.1997680664062Q466.7977294921875 500.3997802734375 495.297607421875 458.89990234375Q523.7974853515625 417.4000244140625 530.5975341796875 363.600341796875L380.2000732421875 357.600341796875Q376.5999755859375 383.8004150390625 364.49981689453125 402.60052490234375Q352.399658203125 421.400634765625 332.9993896484375 431.500732421875Q313.59912109375 441.600830078125 286.5987548828125 441.600830078125Q246.998046875 441.600830078125 225.69781494140625 425.30059814453125Q204.3975830078125 409.0003662109375 204.3975830078125 381.60009765625Q204.3975830078125 362.1998291015625 213.897705078125 349.59967041015625Q223.3978271484375 336.99951171875 245.3980712890625 329.19940185546875Q267.3983154296875 321.3992919921875 304.19873046875 315.7991943359375Q389.99853515625 303.59912109375 440.3983154296875 282.399169921875Q490.798095703125 261.19921875 512.6979370117188 228.89935302734375Q534.5977783203125 196.5994873046875 534.5977783203125 150.399658203125Q534.5977783203125 98.3997802734375 504.99786376953125 62.099853515625Q475.39794921875 25.7999267578125 421.6982421875 6.89996337890625Q367.99853515625 -12 294.59912109375 -12Z" fill="#F4F1EA"/></g><g transform="translate(181.36, 650.00) scale(0.16, -0.16)"><path d="M309.1990966796875 -12Q227.199462890625 -12 165.89971923828125 22.5999755859375Q104.5999755859375 57.199951171875 70.70013427734375 120.2999267578125Q36.80029296875 183.39990234375 36.80029296875 267.9998779296875Q36.80029296875 352.9998779296875 70.70013427734375 415.599853515625Q104.5999755859375 478.1998291015625 165.89971923828125 513.0997924804688Q227.199462890625 547.999755859375 309.1990966796875 547.999755859375Q391.19873046875 547.999755859375 452.2984619140625 513.0997924804688Q513.398193359375 478.1998291015625 547.2980346679688 415.599853515625Q581.1978759765625 352.9998779296875 581.1978759765625 267.9998779296875Q581.1978759765625 183.39990234375 547.2980346679688 120.2999267578125Q513.398193359375 57.199951171875 452.2984619140625 22.5999755859375Q391.19873046875 -12 309.1990966796875 -12ZM309.1990966796875 103.3985595703125Q365.3997802734375 103.3985595703125 396.00018310546875 146.59893798828125Q426.6005859375 189.79931640625 426.6005859375 267.9998779296875Q426.6005859375 345.6004638671875 396.00018310546875 389.100830078125Q365.3997802734375 432.6011962890625 309.1990966796875 432.6011962890625Q252.9984130859375 432.6011962890625 222.197998046875 389.100830078125Q191.3975830078125 345.6004638671875 191.3975830078125 267.9998779296875Q191.3975830078125 189.79931640625 222.197998046875 146.59893798828125Q252.9984130859375 103.3985595703125 309.1990966796875 103.3985595703125Z" fill="#F4F1EA"/></g><g transform="translate(280.24, 650.00) scale(0.16, -0.16)"><path d="M205.59912109375 0Q140.39990234375 0 103.000244140625 32.9996337890625Q65.6005859375 65.999267578125 65.6005859375 139.598388671875V710H215.597900390625V155.5980224609375Q215.597900390625 132.3983154296875 226.79779052734375 122.098388671875Q237.9976806640625 111.7984619140625 258.7974853515625 111.7984619140625H294.597900390625V0Z" fill="#F4F1EA"/></g><g transform="translate(330.32, 650.00) scale(0.16, -0.16)"><path d="M65.6005859375 0V535.999755859375H215.597900390625V0ZM63.0006103515625 601.6004638671875V722.3995361328125H218.1978759765625V601.6004638671875Z" fill="#F4F1EA"/></g><g transform="translate(375.28, 650.00) scale(0.16, -0.16)"><path d="M256.6004638671875 -12Q188.8004150390625 -12 139.5003662109375 22.29998779296875Q90.2003173828125 56.5999755859375 63.50030517578125 119.49993896484375Q36.80029296875 182.39990234375 36.80029296875 267.9998779296875Q36.80029296875 353.599853515625 63.80029296875 416.49981689453125Q90.80029296875 479.3997802734375 140.40032958984375 513.6997680664062Q190.0003662109375 547.999755859375 256.6004638671875 547.999755859375Q313.80029296875 547.999755859375 355.400390625 524.5997924804688Q397.00048828125 501.1998291015625 418.4005126953125 459.599853515625V710H568.3978271484375V0H424.6005859375L421.6005859375 78.800048828125Q399.6005859375 35.800048828125 356.10052490234375 11.9000244140625Q312.6004638671875 -12 256.6004638671875 -12ZM305.9991455078125 103.3985595703125Q342.1995849609375 103.3985595703125 367.19989013671875 121.998779296875Q392.2001953125 140.5989990234375 405.30035400390625 177.29931640625Q418.4005126953125 213.9996337890625 418.4005126953125 267.9998779296875Q418.4005126953125 322.8001708984375 405.30035400390625 359.30047607421875Q392.2001953125 395.80078125 367.19989013671875 414.20098876953125Q342.1995849609375 432.6011962890625 305.9991455078125 432.6011962890625Q253.3984375 432.6011962890625 222.39801025390625 388.5008544921875Q191.3975830078125 344.4005126953125 191.3975830078125 267.9998779296875Q191.3975830078125 193.19921875 222.697998046875 148.29888916015625Q253.9984130859375 103.3985595703125 305.9991455078125 103.3985595703125Z" fill="#F4F1EA"/></g><g transform="translate(476.72, 650.00) scale(0.16, -0.16)"><path d="M184 0Q138 0 109.0 24.0Q80 48 80 100V710H164V107Q164 91 172.5 82.5Q181 74 197 74H243V0Z" fill="#F4F1EA"/></g><g transform="translate(519.44, 650.00) scale(0.16, -0.16)"><path d="M223 -12Q141 -12 92.5 26.0Q44 64 44 132Q44 200 84.0 239.0Q124 278 211 294L399 329Q399 396 367.5 429.0Q336 462 273 462Q218 462 186.0 437.5Q154 413 142 367L53 374Q68 449 125.5 495.5Q183 542 273 542Q375 542 429.0 484.5Q483 427 483 326V107Q483 89 489.5 81.5Q496 74 511 74H532V0Q528 -1 519.0 -1.5Q510 -2 500 -2Q464 -2 441.5 9.5Q419 21 409.0 45.5Q399 70 399 110L409 108Q402 74 375.0 46.5Q348 19 308.0 3.5Q268 -12 223 -12ZM231 62Q284 62 321.5 82.5Q359 103 379.0 138.5Q399 174 399 218V256L227 224Q173 214 152.5 193.5Q132 173 132 140Q132 103 158.5 82.5Q185 62 231 62Z" fill="#F4F1EA"/></g><g transform="translate(607.60, 650.00) scale(0.16, -0.16)"><path d="M323 -12Q268 -12 225.0 12.5Q182 37 159 80L156 0H80V710H164V456Q184 489 226.0 515.5Q268 542 323 542Q393 542 444.0 508.0Q495 474 523.0 412.0Q551 350 551 265Q551 180 523.0 118.0Q495 56 444.0 22.0Q393 -12 323 -12ZM318 68Q385 68 424.0 121.0Q463 174 463 265Q463 357 424.0 409.5Q385 462 320 462Q271 462 236.0 438.5Q201 415 182.5 371.0Q164 327 164 265Q164 205 182.5 160.5Q201 116 235.5 92.0Q270 68 318 68Z" fill="#F4F1EA"/></g><g transform="translate(702.80, 650.00) scale(0.16, -0.16)"><path d="M44 0V113H157V0Z" fill="#6B8290"/></g><g transform="translate(734.96, 650.00) scale(0.16, -0.16)"><path d="M223 -12Q141 -12 92.5 26.0Q44 64 44 132Q44 200 84.0 239.0Q124 278 211 294L399 329Q399 396 367.5 429.0Q336 462 273 462Q218 462 186.0 437.5Q154 413 142 367L53 374Q68 449 125.5 495.5Q183 542 273 542Q375 542 429.0 484.5Q483 427 483 326V107Q483 89 489.5 81.5Q496 74 511 74H532V0Q528 -1 519.0 -1.5Q510 -2 500 -2Q464 -2 441.5 9.5Q419 21 409.0 45.5Q399 70 399 110L409 108Q402 74 375.0 46.5Q348 19 308.0 3.5Q268 -12 223 -12ZM231 62Q284 62 321.5 82.5Q359 103 379.0 138.5Q399 174 399 218V256L227 224Q173 214 152.5 193.5Q132 173 132 140Q132 103 158.5 82.5Q185 62 231 62Z" fill="#6B8290"/></g><g transform="translate(823.12, 650.00) scale(0.16, -0.16)"><path d="M80 0V530H164V0ZM78 613V711H166V613Z" fill="#6B8290"/></g>
  <g transform="translate(90.00, 730.00) scale(0.038, -0.038)"><path d="M108 -110 412 750H492L188 -110Z" fill="#8B9BA0"/></g><g transform="translate(135.60, 730.00) scale(0.038, -0.038)"><path d="M230 -12Q180 -12 140.0 6.0Q100 24 77.0 56.5Q54 89 54 132Q54 200 94.5 237.5Q135 275 222 292L400 328Q400 396 369.5 429.0Q339 462 282 462Q227 462 196.0 437.5Q165 413 153 367L64 374Q79 449 135.5 495.5Q192 542 282 542Q378 542 431.0 484.5Q484 427 484 326V106Q484 88 492.0 81.0Q500 74 516 74H550V0Q544 -1 531.0 -1.5Q518 -2 506 -2Q472 -2 448.5 9.0Q425 20 413.0 44.5Q401 69 400 108H416Q409 74 382.5 46.5Q356 19 316.0 3.5Q276 -12 230 -12ZM238 62Q292 62 328.0 80.5Q364 99 382.0 132.5Q400 166 400 210V256L238 224Q184 214 163.0 193.5Q142 173 142 140Q142 103 167.5 82.5Q193 62 238 62Z" fill="#8B9BA0"/></g><g transform="translate(181.20, 730.00) scale(0.038, -0.038)"><path d="M84 0V530H161L164 395L154 404Q164 451 190.5 481.5Q217 512 254.0 527.0Q291 542 332 542Q393 542 433.5 515.0Q474 488 495.0 442.5Q516 397 516 341V0H432V317Q432 391 403.0 429.5Q374 468 314 468Q273 468 240.0 450.5Q207 433 187.5 399.5Q168 366 168 317V0Z" fill="#8B9BA0"/></g><g transform="translate(204.00, 730.00) scale(0.038, -0.038)"><path d="M300 -12Q227 -12 172.5 22.0Q118 56 88.0 118.5Q58 181 58 265Q58 350 88.0 412.0Q118 474 172.5 508.0Q227 542 300 542Q373 542 427.5 508.0Q482 474 512.0 412.0Q542 350 542 265Q542 181 512.0 118.5Q482 56 427.5 22.0Q373 -12 300 -12ZM300 68Q373 68 413.5 120.5Q454 173 454 265Q454 357 413.5 409.5Q373 462 300 462Q227 462 186.5 409.5Q146 357 146 265Q146 173 186.5 120.5Q227 68 300 68Z" fill="#8B9BA0"/></g><g transform="translate(226.80, 730.00) scale(0.038, -0.038)"><path d="M90 0V74H269L228 34V497L269 456H90V530H298L306 388L298 394Q306 463 340.0 496.5Q374 530 431 530H540V454H432Q393 454 366.5 438.5Q340 423 326.0 393.5Q312 364 312 320V34L272 74H480V0Z" fill="#8B9BA0"/></g><g transform="translate(249.60, 730.00) scale(0.038, -0.038)"><path d="M267 -12Q197 -12 146.0 22.0Q95 56 67.5 118.0Q40 180 40 265Q40 350 67.5 412.0Q95 474 146.0 508.0Q197 542 267 542Q310 542 344.5 526.0Q379 510 402.5 486.0Q426 462 435 437L426 416V710H510V0H434L429 120L442 105Q430 69 404.5 42.5Q379 16 344.0 2.0Q309 -12 267 -12ZM272 68Q320 68 354.5 92.0Q389 116 407.5 160.5Q426 205 426 265Q426 327 407.5 371.0Q389 415 354.0 438.5Q319 462 270 462Q205 462 166.5 409.5Q128 357 128 265Q128 174 166.5 121.0Q205 68 272 68Z" fill="#8B9BA0"/></g><g transform="translate(272.40, 730.00) scale(0.038, -0.038)"><path d="M80 0V74H293V497L334 456H90V530H377V74H560V0H377H293ZM285 613V711H373V613Z" fill="#8B9BA0"/></g><g transform="translate(295.20, 730.00) scale(0.038, -0.038)"><path d="M314 -12Q240 -12 185.0 22.0Q130 56 100.0 118.5Q70 181 70 265Q70 349 100.0 411.0Q130 473 185.0 507.5Q240 542 314 542Q373 542 419.0 520.5Q465 499 495.0 458.0Q525 417 536 358L448 352Q436 405 400.5 433.5Q365 462 314 462Q241 462 199.5 409.5Q158 357 158 265Q158 173 199.5 120.5Q241 68 314 68Q365 68 402.5 98.0Q440 128 452 188L540 182Q529 123 498.0 79.5Q467 36 420.0 12.0Q373 -12 314 -12Z" fill="#8B9BA0"/></g><g transform="translate(340.80, 730.00) scale(0.038, -0.038)"><path d="M247 0 50 530H142L300 86L458 530H550L353 0Z" fill="#8B9BA0"/></g><g transform="translate(363.60, 730.00) scale(0.038, -0.038)"><path d="M306 -12Q231 -12 176.5 22.0Q122 56 92.5 118.5Q63 181 63 265Q63 349 92.5 411.0Q122 473 175.5 507.5Q229 542 302 542Q371 542 424.0 509.5Q477 477 507.0 415.0Q537 353 537 264V239H151Q156 154 196.5 111.0Q237 68 306 68Q358 68 391.5 92.5Q425 117 438 157L528 150Q507 79 448.5 33.5Q390 -12 306 -12ZM151 313H445Q439 390 400.0 426.0Q361 462 302 462Q241 462 201.5 424.5Q162 387 151 313Z" fill="#8B9BA0"/></g><g transform="translate(386.40, 730.00) scale(0.038, -0.038)"><path d="M84 0V530H161L164 395L154 404Q164 451 190.5 481.5Q217 512 254.0 527.0Q291 542 332 542Q393 542 433.5 515.0Q474 488 495.0 442.5Q516 397 516 341V0H432V317Q432 391 403.0 429.5Q374 468 314 468Q273 468 240.0 450.5Q207 433 187.5 399.5Q168 366 168 317V0Z" fill="#8B9BA0"/></g><g transform="translate(409.20, 730.00) scale(0.038, -0.038)"><path d="M378 0Q301 0 263.0 36.0Q225 72 225 146V654H309V146Q309 109 326.0 91.5Q343 74 378 74H520V0ZM50 456V530H520V456Z" fill="#8B9BA0"/></g><g transform="translate(432.00, 730.00) scale(0.038, -0.038)"><path d="M263 -12Q184 -12 137.0 41.5Q90 95 90 189V530H174V212Q174 135 201.5 98.5Q229 62 286 62Q348 62 384.0 102.5Q420 143 420 214V530H504V0H424V131L437 124Q421 59 376.0 23.5Q331 -12 263 -12Z" fill="#8B9BA0"/></g><g transform="translate(454.80, 730.00) scale(0.038, -0.038)"><path d="M90 0V74H269L228 34V497L269 456H90V530H298L306 388L298 394Q306 463 340.0 496.5Q374 530 431 530H540V454H432Q393 454 366.5 438.5Q340 423 326.0 393.5Q312 364 312 320V34L272 74H480V0Z" fill="#8B9BA0"/></g><g transform="translate(477.60, 730.00) scale(0.038, -0.038)"><path d="M306 -12Q231 -12 176.5 22.0Q122 56 92.5 118.5Q63 181 63 265Q63 349 92.5 411.0Q122 473 175.5 507.5Q229 542 302 542Q371 542 424.0 509.5Q477 477 507.0 415.0Q537 353 537 264V239H151Q156 154 196.5 111.0Q237 68 306 68Q358 68 391.5 92.5Q425 117 438 157L528 150Q507 79 448.5 33.5Q390 -12 306 -12ZM151 313H445Q439 390 400.0 426.0Q361 462 302 462Q241 462 201.5 424.5Q162 387 151 313Z" fill="#8B9BA0"/></g><g transform="translate(523.20, 730.00) scale(0.038, -0.038)"><path d="M273 30V568Q273 600 255.0 618.0Q237 636 205 636H80V710H209Q282 710 319.5 672.5Q357 635 357 562V30ZM60 0V74H540V0Z" fill="#8B9BA0"/></g><g transform="translate(546.00, 730.00) scale(0.038, -0.038)"><path d="M230 -12Q180 -12 140.0 6.0Q100 24 77.0 56.5Q54 89 54 132Q54 200 94.5 237.5Q135 275 222 292L400 328Q400 396 369.5 429.0Q339 462 282 462Q227 462 196.0 437.5Q165 413 153 367L64 374Q79 449 135.5 495.5Q192 542 282 542Q378 542 431.0 484.5Q484 427 484 326V106Q484 88 492.0 81.0Q500 74 516 74H550V0Q544 -1 531.0 -1.5Q518 -2 506 -2Q472 -2 448.5 9.0Q425 20 413.0 44.5Q401 69 400 108H416Q409 74 382.5 46.5Q356 19 316.0 3.5Q276 -12 230 -12ZM238 62Q292 62 328.0 80.5Q364 99 382.0 132.5Q400 166 400 210V256L238 224Q184 214 163.0 193.5Q142 173 142 140Q142 103 167.5 82.5Q193 62 238 62Z" fill="#8B9BA0"/></g><g transform="translate(568.80, 730.00) scale(0.038, -0.038)"><path d="M333 -12Q291 -12 256.0 2.0Q221 16 196.0 42.5Q171 69 158 105L171 120L166 0H90V710H174V416L165 437Q174 462 197.5 486.0Q221 510 256.0 526.0Q291 542 333 542Q403 542 454.0 508.0Q505 474 532.5 412.0Q560 350 560 265Q560 180 532.5 118.0Q505 56 454.0 22.0Q403 -12 333 -12ZM328 68Q395 68 433.5 121.0Q472 174 472 265Q472 357 433.5 409.5Q395 462 330 462Q281 462 246.0 438.5Q211 415 192.5 371.0Q174 327 174 265Q174 205 192.5 160.5Q211 116 245.5 92.0Q280 68 328 68Z" fill="#8B9BA0"/></g>
  <g transform="translate(1464.80, 1120.00) scale(0.034, -0.034)"><path d="M108 -110 412 750H492L188 -110Z" fill="#4A5A62"/></g><g transform="translate(1505.60, 1120.00) scale(0.034, -0.034)"><path d="M378 0Q301 0 263.0 36.0Q225 72 225 146V654H309V146Q309 109 326.0 91.5Q343 74 378 74H520V0ZM50 456V530H520V456Z" fill="#4A5A62"/></g><g transform="translate(1526.00, 1120.00) scale(0.034, -0.034)"><path d="M100 0V710H184V413L174 415Q184 459 208.0 487.0Q232 515 267.0 528.5Q302 542 343 542Q400 542 439.5 516.5Q479 491 499.5 445.5Q520 400 520 341V0H436V317Q436 394 408.5 431.0Q381 468 325 468Q261 468 222.5 429.0Q184 390 184 316V0Z" fill="#4A5A62"/></g><g transform="translate(1546.40, 1120.00) scale(0.034, -0.034)"><path d="M306 -12Q231 -12 176.5 22.0Q122 56 92.5 118.5Q63 181 63 265Q63 349 92.5 411.0Q122 473 175.5 507.5Q229 542 302 542Q371 542 424.0 509.5Q477 477 507.0 415.0Q537 353 537 264V239H151Q156 154 196.5 111.0Q237 68 306 68Q358 68 391.5 92.5Q425 117 438 157L528 150Q507 79 448.5 33.5Q390 -12 306 -12ZM151 313H445Q439 390 400.0 426.0Q361 462 302 462Q241 462 201.5 424.5Q162 387 151 313Z" fill="#4A5A62"/></g><g transform="translate(1587.20, 1120.00) scale(0.034, -0.034)"><path d="M84 0V530H161L164 395L154 404Q164 451 190.5 481.5Q217 512 254.0 527.0Q291 542 332 542Q393 542 433.5 515.0Q474 488 495.0 442.5Q516 397 516 341V0H432V317Q432 391 403.0 429.5Q374 468 314 468Q273 468 240.0 450.5Q207 433 187.5 399.5Q168 366 168 317V0Z" fill="#4A5A62"/></g><g transform="translate(1607.60, 1120.00) scale(0.034, -0.034)"><path d="M300 -12Q227 -12 172.5 22.0Q118 56 88.0 118.5Q58 181 58 265Q58 350 88.0 412.0Q118 474 172.5 508.0Q227 542 300 542Q373 542 427.5 508.0Q482 474 512.0 412.0Q542 350 542 265Q542 181 512.0 118.5Q482 56 427.5 22.0Q373 -12 300 -12ZM300 68Q373 68 413.5 120.5Q454 173 454 265Q454 357 413.5 409.5Q373 462 300 462Q227 462 186.5 409.5Q146 357 146 265Q146 173 186.5 120.5Q227 68 300 68Z" fill="#4A5A62"/></g><g transform="translate(1628.00, 1120.00) scale(0.034, -0.034)"><path d="M90 0V74H269L228 34V497L269 456H90V530H298L306 388L298 394Q306 463 340.0 496.5Q374 530 431 530H540V454H432Q393 454 366.5 438.5Q340 423 326.0 393.5Q312 364 312 320V34L272 74H480V0Z" fill="#4A5A62"/></g><g transform="translate(1648.40, 1120.00) scale(0.034, -0.034)"><path d="M267 -12Q197 -12 146.0 22.0Q95 56 67.5 118.0Q40 180 40 265Q40 350 67.5 412.0Q95 474 146.0 508.0Q197 542 267 542Q310 542 344.5 526.0Q379 510 402.5 486.0Q426 462 435 437L426 416V710H510V0H434L429 120L442 105Q430 69 404.5 42.5Q379 16 344.0 2.0Q309 -12 267 -12ZM272 68Q320 68 354.5 92.0Q389 116 407.5 160.5Q426 205 426 265Q426 327 407.5 371.0Q389 415 354.0 438.5Q319 462 270 462Q205 462 166.5 409.5Q128 357 128 265Q128 174 166.5 121.0Q205 68 272 68Z" fill="#4A5A62"/></g><g transform="translate(1668.80, 1120.00) scale(0.034, -0.034)"><path d="M80 0V74H293V497L334 456H90V530H377V74H560V0H377H293ZM285 613V711H373V613Z" fill="#4A5A62"/></g><g transform="translate(1689.20, 1120.00) scale(0.034, -0.034)"><path d="M314 -12Q240 -12 185.0 22.0Q130 56 100.0 118.5Q70 181 70 265Q70 349 100.0 411.0Q130 473 185.0 507.5Q240 542 314 542Q373 542 419.0 520.5Q465 499 495.0 458.0Q525 417 536 358L448 352Q436 405 400.5 433.5Q365 462 314 462Q241 462 199.5 409.5Q158 357 158 265Q158 173 199.5 120.5Q241 68 314 68Q365 68 402.5 98.0Q440 128 452 188L540 182Q529 123 498.0 79.5Q467 36 420.0 12.0Q373 -12 314 -12Z" fill="#4A5A62"/></g><g transform="translate(1709.60, 1120.00) scale(0.034, -0.034)"><path d="M310 -12Q241 -12 191.0 12.0Q141 36 112.5 76.5Q84 117 80 167L168 173Q176 124 211.5 96.0Q247 68 310 68Q369 68 401.5 85.0Q434 102 434 138Q434 161 423.0 176.0Q412 191 382.0 201.5Q352 212 294 222Q217 236 173.5 256.5Q130 277 112.0 308.0Q94 339 94 382Q94 428 117.0 464.0Q140 500 185.0 521.0Q230 542 295 542Q361 542 405.5 518.5Q450 495 476.0 456.5Q502 418 510 372L422 366Q416 394 399.5 415.5Q383 437 356.5 449.5Q330 462 294 462Q236 462 208.0 439.0Q180 416 180 382Q180 355 193.0 339.0Q206 323 235.0 313.5Q264 304 312 296Q394 283 439.0 262.5Q484 242 502.0 212.0Q520 182 520 138Q520 91 492.5 57.5Q465 24 417.5 6.0Q370 -12 310 -12Z" fill="#4A5A62"/></g>
</svg>