<svg xmlns="http://www.w3.org/2000/svg" viewBox="0 0 1820 1220" width="1820" height="1220">
  <rect width="1820" height="1220" fill="#F4F1EA"/>
  <g transform="translate(90.00, 210.00) scale(0.078, -0.078)"><path d="M351.5997314453125 -16Q262.329091339863 -16 196.46477760352525 17.199951171875Q130.6004638671875 50.39990234375 94.80059814453125 111.68482971191406Q59.000732421875 172.96975708007812 59.000732421875 256.399658203125V711H210.998046875V256.399658203125Q210.998046875 187.3123033311632 247.39849853515625 149.55526055230035Q283.7989501953125 111.7982177734375 351.5997314453125 111.7982177734375Q419.6004638671875 111.7982177734375 456.00091552734375 149.55526055230035Q492.4013671875 187.3123033311632 492.4013671875 256.399658203125V711H644.398681640625V256.399658203125Q644.398681640625 172.96975708007812 608.5988159179688 111.68482971191406Q572.7989501953125 50.39990234375 507.09621195273826 17.199951171875Q441.39347371016396 -16 351.5997314453125 -16Z" fill="#0A0A0A"/></g><g transform="translate(144.83, 210.00) scale(0.078, -0.078)"><path d="M205.59912109375 0Q140.39990234375 0 103.000244140625 32.9996337890625Q65.6005859375 65.999267578125 65.6005859375 139.598388671875V710H215.597900390625V155.5980224609375Q215.597900390625 132.3983154296875 226.79779052734375 122.098388671875Q237.9976806640625 111.7984619140625 258.7974853515625 111.7984619140625H294.597900390625V0Z" fill="#0A0A0A"/></g><g transform="translate(169.25, 210.00) scale(0.078, -0.078)"><path d="M65.6005859375 0V535.999755859375H207.997802734375L213.19775390625 380.400634765625L201.597900390625 382.8006591796875Q214.5977783203125 464.0001220703125 247.79779052734375 499.99993896484375Q280.997802734375 535.999755859375 339.397705078125 535.999755859375H387.7978515625V411.6015625H338.5977783203125Q296.7978515625 411.6015625 269.6978759765625 400.701416015625Q242.597900390625 389.80126953125 229.097900390625 365.80108642578125Q215.597900390625 341.8009033203125 215.597900390625 301.4007568359375V0Z" fill="#0A0A0A"/></g><g transform="translate(202.40, 210.00) scale(0.078, -0.078)"><path d="M65.6005859375 0V535.999755859375H215.597900390625V0ZM63.0006103515625 601.6004638671875V722.3995361328125H218.1978759765625V601.6004638671875Z" fill="#0A0A0A"/></g><g transform="translate(224.32, 210.00) scale(0.078, -0.078)"><path d="M65.6005859375 0V710H215.597900390625V316.3970947265625L414.80029296875 535.999755859375H595.197509765625L386.7974853515625 315.1995849609375L601.1976318359375 0H436.8001708984375L289.59912109375 230.000732421875L215.597900390625 151.199462890625V0Z" fill="#0A0A0A"/></g><g transform="translate(292.57, 210.00) scale(0.078, -0.078)"><path d="M369.7996826171875 -16Q267.3997802734375 -16 193.9998779296875 31.10003662109375Q120.5999755859375 78.2000732421875 81.300048828125 161.40008544921875Q42.0001220703125 244.60009765625 42.0001220703125 354Q42.0001220703125 461 82.10003662109375 545.0Q122.199951171875 629 197.59979248046875 677.5Q272.9996337890625 726 378.9993896484375 726Q471.1990966796875 726 534.4989013671875 695.2999877929688Q597.7987060546875 664.5999755859375 635.8985595703125 608.60009765625Q673.9984130859375 552.6002197265625 689.3983154296875 477.0006103515625L531.60107421875 469.8006591796875Q521.0009765625 529.2010498046875 485.6005859375 563.701416015625Q450.2001953125 598.2017822265625 380.1993408203125 598.2017822265625Q318.99853515625 598.2017822265625 278.6981201171875 566.00146484375Q238.397705078125 533.8011474609375 218.49755859375 478.80072021484375Q198.597412109375 423.80029296875 198.597412109375 354Q198.597412109375 283.1995849609375 218.09759521484375 228.59918212890625Q237.5977783203125 173.998779296875 278.398193359375 142.89849853515625Q319.1986083984375 111.7982177734375 382.5992431640625 111.7982177734375Q429.9998779296875 111.7982177734375 464.30035400390625 130.6986083984375Q498.600830078125 149.5989990234375 518.5010375976562 182.89959716796875Q538.4012451171875 216.2001953125 541.8011474609375 258.4007568359375H380.3994140625V369.1995849609375H691.3983154296875V0H597.3995361328125L588.9996337890625 152.00048828125L606.9993896484375 144.000244140625Q596.79931640625 96.6002197265625 563.0993041992188 60.60015869140625Q529.3992919921875 24.60009765625 479.4993896484375 4.300048828125Q429.5994873046875 -16 369.7996826171875 -16Z" fill="#0A0A0A"/></g><g transform="translate(350.13, 210.00) scale(0.078, -0.078)"><path d="M-2.60009765625 -150V-38.2015380859375H55.999267578125Q85.59912109375 -38.2015380859375 100.399169921875 -26.00152587890625Q115.19921875 -13.801513671875 115.19921875 21.598388671875V535.999755859375H265.7965087890625V17.598388671875Q265.7965087890625 -71.600830078125 225.49688720703125 -110.8004150390625Q185.197265625 -150 86.79833984375 -150ZM113.19921875 601.6004638671875V722.3995361328125H268.396484375V601.6004638671875Z" fill="#0A0A0A"/></g><g transform="translate(375.95, 210.00) scale(0.078, -0.078)"><path d="M307.399169921875 -12Q225.199462890625 -12 164.39971923828125 22.5999755859375Q103.5999755859375 57.199951171875 70.20013427734375 120.2999267578125Q36.80029296875 183.39990234375 36.80029296875 267.9998779296875Q36.80029296875 352.599853515625 70.20013427734375 415.1998291015625Q103.5999755859375 477.7998046875 163.99969482421875 512.8997802734375Q224.3994140625 547.999755859375 305.799072265625 547.999755859375Q385.5986328125 547.999755859375 444.89837646484375 513.099853515625Q504.1981201171875 478.199951171875 536.3980102539062 413.2000732421875Q568.597900390625 348.2001953125 568.597900390625 258.000244140625V227.6004638671875H191.99755859375Q195.1976318359375 164.1995849609375 226.697998046875 132.89910888671875Q258.1983642578125 101.5986328125 309.799072265625 101.5986328125Q347.9996337890625 101.5986328125 373.699951171875 117.99896240234375Q399.4002685546875 134.3992919921875 410.0003662109375 167.1995849609375L561.1978759765625 158.399658203125Q539.597900390625 77.800048828125 471.79827880859375 32.9000244140625Q403.9986572265625 -12 307.399169921875 -12ZM191.99755859375 319.5997314453125H415.400390625Q412.4002685546875 378.6004638671875 382.59991455078125 407.70074462890625Q352.799560546875 436.801025390625 305.799072265625 436.801025390625Q259.198486328125 436.801025390625 228.6981201171875 406.20074462890625Q198.19775390625 375.6004638671875 191.99755859375 319.5997314453125Z" fill="#0A0A0A"/></g><g transform="translate(423.14, 210.00) scale(0.078, -0.078)"><path d="M205.59912109375 0Q140.39990234375 0 103.000244140625 32.9996337890625Q65.6005859375 65.999267578125 65.6005859375 139.598388671875V710H215.597900390625V155.5980224609375Q215.597900390625 132.3983154296875 226.79779052734375 122.098388671875Q237.9976806640625 111.7984619140625 258.7974853515625 111.7984619140625H294.597900390625V0Z" fill="#0A0A0A"/></g><g transform="translate(447.55, 210.00) scale(0.078, -0.078)"><path d="M205.59912109375 0Q140.39990234375 0 103.000244140625 32.9996337890625Q65.6005859375 65.999267578125 65.6005859375 139.598388671875V710H215.597900390625V155.5980224609375Q215.597900390625 132.3983154296875 226.79779052734375 122.098388671875Q237.9976806640625 111.7984619140625 258.7974853515625 111.7984619140625H294.597900390625V0Z" fill="#0A0A0A"/></g><g transform="translate(471.97, 210.00) scale(0.078, -0.078)"><path d="M307.399169921875 -12Q225.199462890625 -12 164.39971923828125 22.5999755859375Q103.5999755859375 57.199951171875 70.20013427734375 120.2999267578125Q36.80029296875 183.39990234375 36.80029296875 267.9998779296875Q36.80029296875 352.599853515625 70.20013427734375 415.1998291015625Q103.5999755859375 477.7998046875 163.99969482421875 512.8997802734375Q224.3994140625 547.999755859375 305.799072265625 547.999755859375Q385.5986328125 547.999755859375 444.89837646484375 513.099853515625Q504.1981201171875 478.199951171875 536.3980102539062 413.2000732421875Q568.597900390625 348.2001953125 568.597900390625 258.000244140625V227.6004638671875H191.99755859375Q195.1976318359375 164.1995849609375 226.697998046875 132.89910888671875Q258.1983642578125 101.5986328125 309.799072265625 101.5986328125Q347.9996337890625 101.5986328125 373.699951171875 117.99896240234375Q399.4002685546875 134.3992919921875 410.0003662109375 167.1995849609375L561.1978759765625 158.399658203125Q539.597900390625 77.800048828125 471.79827880859375 32.9000244140625Q403.9986572265625 -12 307.399169921875 -12ZM191.99755859375 319.5997314453125H415.400390625Q412.4002685546875 378.6004638671875 382.59991455078125 407.70074462890625Q352.799560546875 436.801025390625 305.799072265625 436.801025390625Q259.198486328125 436.801025390625 228.6981201171875 406.20074462890625Q198.19775390625 375.6004638671875 191.99755859375 319.5997314453125Z" fill="#0A0A0A"/></g><g transform="translate(519.16, 210.00) scale(0.078, -0.078)"><path d="M294.59912109375 -12Q211.599609375 -12 155.79986572265625 11.29998779296875Q100.0001220703125 34.5999755859375 70.40020751953125 75.39996337890625Q40.80029296875 116.199951171875 36.80029296875 168.7999267578125L188.9976806640625 174.199951171875Q195.7977294921875 135.799560546875 220.998046875 115.0992431640625Q246.1983642578125 94.39892578125 295.1990966796875 94.39892578125Q335.399658203125 94.39892578125 357.7000732421875 107.39910888671875Q380.00048828125 120.3992919921875 380.00048828125 147.3997802734375Q380.00048828125 164.199951171875 371.8004150390625 175.50006103515625Q363.600341796875 186.8001708984375 340.30010986328125 195.20025634765625Q316.9998779296875 203.600341796875 271.3994140625 211.200439453125Q186.3997802734375 225.8004150390625 138.0999755859375 246.00042724609375Q89.8001708984375 266.200439453125 69.80023193359375 297.900390625Q49.80029296875 329.600341796875 49.80029296875 376.400146484375Q49.80029296875 453.39990234375 109.5999755859375 500.6998291015625Q169.399658203125 547.999755859375 288.19873046875 547.999755859375Q363.998291015625 547.999755859375 415.39801025390625 524.1997680664062Q466.7977294921875 500.3997802734375 495.297607421875 458.89990234375Q523.7974853515625 417.4000244140625 530.5975341796875 363.600341796875L380.2000732421875 357.600341796875Q376.5999755859375 383.8004150390625 364.49981689453125 402.60052490234375Q352.399658203125 421.400634765625 332.9993896484375 431.500732421875Q313.59912109375 441.600830078125 286.5987548828125 441.600830078125Q246.998046875 441.600830078125 225.69781494140625 425.30059814453125Q204.3975830078125 409.0003662109375 204.3975830078125 381.60009765625Q204.3975830078125 362.1998291015625 213.897705078125 349.59967041015625Q223.3978271484375 336.99951171875 245.3980712890625 329.19940185546875Q267.3983154296875 321.3992919921875 304.19873046875 315.7991943359375Q389.99853515625 303.59912109375 440.3983154296875 282.399169921875Q490.798095703125 261.19921875 512.6979370117188 228.89935302734375Q534.5977783203125 196.5994873046875 534.5977783203125 150.399658203125Q534.5977783203125 98.3997802734375 504.99786376953125 62.099853515625Q475.39794921875 25.7999267578125 421.6982421875 6.89996337890625Q367.99853515625 -12 294.59912109375 -12Z" fill="#0A0A0A"/></g><g transform="translate(563.69, 210.00) scale(0.078, -0.078)"><path d="M216.7999267578125 0 20.800048828125 535.999755859375H177.597412109375L304.5985107421875 150.79736328125L430.9996337890625 535.999755859375H587.7969970703125L391.1971435546875 0Z" fill="#0A0A0A"/></g><g transform="translate(611.20, 210.00) scale(0.078, -0.078)"><path d="M65.6005859375 0V535.999755859375H215.597900390625V0ZM63.0006103515625 601.6004638671875V722.3995361328125H218.1978759765625V601.6004638671875Z" fill="#0A0A0A"/></g><g transform="translate(633.11, 210.00) scale(0.078, -0.078)"><path d="M65.6005859375 0V710H215.597900390625V316.3970947265625L414.80029296875 535.999755859375H595.197509765625L386.7974853515625 315.1995849609375L601.1976318359375 0H436.8001708984375L289.59912109375 230.000732421875L215.597900390625 151.199462890625V0Z" fill="#0A0A0A"/></g><g transform="translate(701.36, 210.00) scale(0.078, -0.078)"><path d="M18.800048828125 0 274.800048828125 710H454.9974365234375L710.9974365234375 0H553.4000244140625L500.999267578125 151.0020751953125H228.1982421875L175.7974853515625 0ZM270.9976806640625 275.8004150390625H458.7998046875L365.19873046875 550.4034423828125Z" fill="#0A0A0A"/></g><g transform="translate(758.30, 210.00) scale(0.078, -0.078)"><path d="M65.6005859375 0V535.999755859375H200.7982177734375L206.798095703125 378.8006591796875L188.3984375 383.600830078125Q195.99853515625 443.80029296875 220.69854736328125 479.7000732421875Q245.3985595703125 515.599853515625 282.0985107421875 531.7998046875Q318.7984619140625 547.999755859375 362.79833984375 547.999755859375Q420.7984619140625 547.999755859375 461.4984130859375 522.7996826171875Q502.1983642578125 497.599609375 523.7982788085938 452.099609375Q545.398193359375 406.599609375 545.398193359375 344.599853515625V0H395.40087890625V294.8009033203125Q395.40087890625 337.8011474609375 388.1007080078125 367.7012939453125Q380.800537109375 397.6014404296875 362.70025634765625 413.301513671875Q344.5999755859375 429.0015869140625 312.9996337890625 429.0015869140625Q266.3990478515625 429.0015869140625 240.99847412109375 394.40142822265625Q215.597900390625 359.80126953125 215.597900390625 294.8009033203125V0Z" fill="#0A0A0A"/></g><g transform="translate(805.96, 210.00) scale(0.078, -0.078)"><path d="M256.6004638671875 -12Q188.8004150390625 -12 139.5003662109375 22.29998779296875Q90.2003173828125 56.5999755859375 63.50030517578125 119.49993896484375Q36.80029296875 182.39990234375 36.80029296875 267.9998779296875Q36.80029296875 353.599853515625 63.80029296875 416.49981689453125Q90.80029296875 479.3997802734375 140.40032958984375 513.6997680664062Q190.0003662109375 547.999755859375 256.6004638671875 547.999755859375Q313.80029296875 547.999755859375 355.400390625 524.5997924804688Q397.00048828125 501.1998291015625 418.4005126953125 459.599853515625V710H568.3978271484375V0H424.6005859375L421.6005859375 78.800048828125Q399.6005859375 35.800048828125 356.10052490234375 11.9000244140625Q312.6004638671875 -12 256.6004638671875 -12ZM305.9991455078125 103.3985595703125Q342.1995849609375 103.3985595703125 367.19989013671875 121.998779296875Q392.2001953125 140.5989990234375 405.30035400390625 177.29931640625Q418.4005126953125 213.9996337890625 418.4005126953125 267.9998779296875Q418.4005126953125 322.8001708984375 405.30035400390625 359.30047607421875Q392.2001953125 395.80078125 367.19989013671875 414.20098876953125Q342.1995849609375 432.6011962890625 305.9991455078125 432.6011962890625Q253.3984375 432.6011962890625 222.39801025390625 388.5008544921875Q191.3975830078125 344.4005126953125 191.3975830078125 267.9998779296875Q191.3975830078125 193.19921875 222.697998046875 148.29888916015625Q253.9984130859375 103.3985595703125 305.9991455078125 103.3985595703125Z" fill="#0A0A0A"/></g><g transform="translate(855.41, 210.00) scale(0.078, -0.078)"><path d="M65.6005859375 0V535.999755859375H207.997802734375L213.19775390625 380.400634765625L201.597900390625 382.8006591796875Q214.5977783203125 464.0001220703125 247.79779052734375 499.99993896484375Q280.997802734375 535.999755859375 339.397705078125 535.999755859375H387.7978515625V411.6015625H338.5977783203125Q296.7978515625 411.6015625 269.6978759765625 400.701416015625Q242.597900390625 389.80126953125 229.097900390625 365.80108642578125Q215.597900390625 341.8009033203125 215.597900390625 301.4007568359375V0Z" fill="#0A0A0A"/></g><g transform="translate(888.56, 210.00) scale(0.078, -0.078)"><path d="M307.399169921875 -12Q225.199462890625 -12 164.39971923828125 22.5999755859375Q103.5999755859375 57.199951171875 70.20013427734375 120.2999267578125Q36.80029296875 183.39990234375 36.80029296875 267.9998779296875Q36.80029296875 352.599853515625 70.20013427734375 415.1998291015625Q103.5999755859375 477.7998046875 163.99969482421875 512.8997802734375Q224.3994140625 547.999755859375 305.799072265625 547.999755859375Q385.5986328125 547.999755859375 444.89837646484375 513.099853515625Q504.1981201171875 478.199951171875 536.3980102539062 413.2000732421875Q568.597900390625 348.2001953125 568.597900390625 258.000244140625V227.6004638671875H191.99755859375Q195.1976318359375 164.1995849609375 226.697998046875 132.89910888671875Q258.1983642578125 101.5986328125 309.799072265625 101.5986328125Q347.9996337890625 101.5986328125 373.699951171875 117.99896240234375Q399.4002685546875 134.3992919921875 410.0003662109375 167.1995849609375L561.1978759765625 158.399658203125Q539.597900390625 77.800048828125 471.79827880859375 32.9000244140625Q403.9986572265625 -12 307.399169921875 -12ZM191.99755859375 319.5997314453125H415.400390625Q412.4002685546875 378.6004638671875 382.59991455078125 407.70074462890625Q352.799560546875 436.801025390625 305.799072265625 436.801025390625Q259.198486328125 436.801025390625 228.6981201171875 406.20074462890625Q198.19775390625 375.6004638671875 191.99755859375 319.5997314453125Z" fill="#0A0A0A"/></g><g transform="translate(935.75, 210.00) scale(0.078, -0.078)"><path d="M294.59912109375 -12Q211.599609375 -12 155.79986572265625 11.29998779296875Q100.0001220703125 34.5999755859375 70.40020751953125 75.39996337890625Q40.80029296875 116.199951171875 36.80029296875 168.7999267578125L188.9976806640625 174.199951171875Q195.7977294921875 135.799560546875 220.998046875 115.0992431640625Q246.1983642578125 94.39892578125 295.1990966796875 94.39892578125Q335.399658203125 94.39892578125 357.7000732421875 107.39910888671875Q380.00048828125 120.3992919921875 380.00048828125 147.3997802734375Q380.00048828125 164.199951171875 371.8004150390625 175.50006103515625Q363.600341796875 186.8001708984375 340.30010986328125 195.20025634765625Q316.9998779296875 203.600341796875 271.3994140625 211.200439453125Q186.3997802734375 225.8004150390625 138.0999755859375 246.00042724609375Q89.8001708984375 266.200439453125 69.80023193359375 297.900390625Q49.80029296875 329.600341796875 49.80029296875 376.400146484375Q49.80029296875 453.39990234375 109.5999755859375 500.6998291015625Q169.399658203125 547.999755859375 288.19873046875 547.999755859375Q363.998291015625 547.999755859375 415.39801025390625 524.1997680664062Q466.7977294921875 500.3997802734375 495.297607421875 458.89990234375Q523.7974853515625 417.4000244140625 530.5975341796875 363.600341796875L380.2000732421875 357.600341796875Q376.5999755859375 383.8004150390625 364.49981689453125 402.60052490234375Q352.399658203125 421.400634765625 332.9993896484375 431.500732421875Q313.59912109375 441.600830078125 286.5987548828125 441.600830078125Q246.998046875 441.600830078125 225.69781494140625 425.30059814453125Q204.3975830078125 409.0003662109375 204.3975830078125 381.60009765625Q204.3975830078125 362.1998291015625 213.897705078125 349.59967041015625Q223.3978271484375 336.99951171875 245.3980712890625 329.19940185546875Q267.3983154296875 321.3992919921875 304.19873046875 315.7991943359375Q389.99853515625 303.59912109375 440.3983154296875 282.399169921875Q490.798095703125 261.19921875 512.6979370117188 228.89935302734375Q534.5977783203125 196.5994873046875 534.5977783203125 150.399658203125Q534.5977783203125 98.3997802734375 504.99786376953125 62.099853515625Q475.39794921875 25.7999267578125 421.6982421875 6.89996337890625Q367.99853515625 -12 294.59912109375 -12Z" fill="#0A0A0A"/></g><g transform="translate(980.29, 210.00) scale(0.078, -0.078)"><path d="M307.399169921875 -12Q225.199462890625 -12 164.39971923828125 22.5999755859375Q103.5999755859375 57.199951171875 70.20013427734375 120.2999267578125Q36.80029296875 183.39990234375 36.80029296875 267.9998779296875Q36.80029296875 352.599853515625 70.20013427734375 415.1998291015625Q103.5999755859375 477.7998046875 163.99969482421875 512.8997802734375Q224.3994140625 547.999755859375 305.799072265625 547.999755859375Q385.5986328125 547.999755859375 444.89837646484375 513.099853515625Q504.1981201171875 478.199951171875 536.3980102539062 413.2000732421875Q568.597900390625 348.2001953125 568.597900390625 258.000244140625V227.6004638671875H191.99755859375Q195.1976318359375 164.1995849609375 226.697998046875 132.89910888671875Q258.1983642578125 101.5986328125 309.799072265625 101.5986328125Q347.9996337890625 101.5986328125 373.699951171875 117.99896240234375Q399.4002685546875 134.3992919921875 410.0003662109375 167.1995849609375L561.1978759765625 158.399658203125Q539.597900390625 77.800048828125 471.79827880859375 32.9000244140625Q403.9986572265625 -12 307.399169921875 -12ZM191.99755859375 319.5997314453125H415.400390625Q412.4002685546875 378.6004638671875 382.59991455078125 407.70074462890625Q352.799560546875 436.801025390625 305.799072265625 436.801025390625Q259.198486328125 436.801025390625 228.6981201171875 406.20074462890625Q198.19775390625 375.6004638671875 191.99755859375 319.5997314453125Z" fill="#0A0A0A"/></g><g transform="translate(1027.48, 210.00) scale(0.078, -0.078)"><path d="M65.6005859375 0V535.999755859375H200.7982177734375L206.798095703125 378.8006591796875L188.3984375 383.600830078125Q195.99853515625 443.80029296875 220.69854736328125 479.7000732421875Q245.3985595703125 515.599853515625 282.0985107421875 531.7998046875Q318.7984619140625 547.999755859375 362.79833984375 547.999755859375Q420.7984619140625 547.999755859375 461.4984130859375 522.7996826171875Q502.1983642578125 497.599609375 523.7982788085938 452.099609375Q545.398193359375 406.599609375 545.398193359375 344.599853515625V0H395.40087890625V294.8009033203125Q395.40087890625 337.8011474609375 388.1007080078125 367.7012939453125Q380.800537109375 397.6014404296875 362.70025634765625 413.301513671875Q344.5999755859375 429.0015869140625 312.9996337890625 429.0015869140625Q266.3990478515625 429.0015869140625 240.99847412109375 394.40142822265625Q215.597900390625 359.80126953125 215.597900390625 294.8009033203125V0Z" fill="#0A0A0A"/></g>
  <g transform="translate(90.00, 290.00) scale(0.034, -0.034)"><path d="M108 -110 412 750H492L188 -110Z" fill="#4A5A62"/></g><g transform="translate(130.80, 290.00) scale(0.034, -0.034)"><path d="M333 -12Q291 -12 256.0 2.0Q221 16 196.0 42.5Q171 69 158 105L171 120L166 0H90V710H174V416L165 437Q174 462 197.5 486.0Q221 510 256.0 526.0Q291 542 333 542Q403 542 454.0 508.0Q505 474 532.5 412.0Q560 350 560 265Q560 180 532.5 118.0Q505 56 454.0 22.0Q403 -12 333 -12ZM328 68Q395 68 433.5 121.0Q472 174 472 265Q472 357 433.5 409.5Q395 462 330 462Q281 462 246.0 438.5Q211 415 192.5 371.0Q174 327 174 265Q174 205 192.5 160.5Q211 116 245.5 92.0Q280 68 328 68Z" fill="#4A5A62"/></g><g transform="translate(151.20, 290.00) scale(0.034, -0.034)"><path d="M263 -12Q184 -12 137.0 41.5Q90 95 90 189V530H174V212Q174 135 201.5 98.5Q229 62 286 62Q348 62 384.0 102.5Q420 143 420 214V530H504V0H424V131L437 124Q421 59 376.0 23.5Q331 -12 263 -12Z" fill="#4A5A62"/></g><g transform="translate(171.60, 290.00) scale(0.034, -0.034)"><path d="M310 -12Q241 -12 191.0 12.0Q141 36 112.5 76.5Q84 117 80 167L168 173Q176 124 211.5 96.0Q247 68 310 68Q369 68 401.5 85.0Q434 102 434 138Q434 161 423.0 176.0Q412 191 382.0 201.5Q352 212 294 222Q217 236 173.5 256.5Q130 277 112.0 308.0Q94 339 94 382Q94 428 117.0 464.0Q140 500 185.0 521.0Q230 542 295 542Q361 542 405.5 518.5Q450 495 476.0 456.5Q502 418 510 372L422 366Q416 394 399.5 415.5Q383 437 356.5 449.5Q330 462 294 462Q236 462 208.0 439.0Q180 416 180 382Q180 355 193.0 339.0Q206 323 235.0 313.5Q264 304 312 296Q394 283 439.0 262.5Q484 242 502.0 212.0Q520 182 520 138Q520 91 492.5 57.5Q465 24 417.5 6.0Q370 -12 310 -12Z" fill="#4A5A62"/></g><g transform="translate(192.00, 290.00) scale(0.034, -0.034)"><path d="M80 0V74H293V497L334 456H90V530H377V74H560V0H377H293ZM285 613V711H373V613Z" fill="#4A5A62"/></g><g transform="translate(212.40, 290.00) scale(0.034, -0.034)"><path d="M84 0V530H161L164 395L154 404Q164 451 190.5 481.5Q217 512 254.0 527.0Q291 542 332 542Q393 542 433.5 515.0Q474 488 495.0 442.5Q516 397 516 341V0H432V317Q432 391 403.0 429.5Q374 468 314 468Q273 468 240.0 450.5Q207 433 187.5 399.5Q168 366 168 317V0Z" fill="#4A5A62"/></g><g transform="translate(232.80, 290.00) scale(0.034, -0.034)"><path d="M306 -12Q231 -12 176.5 22.0Q122 56 92.5 118.5Q63 181 63 265Q63 349 92.5 411.0Q122 473 175.5 507.5Q229 542 302 542Q371 542 424.0 509.5Q477 477 507.0 415.0Q537 353 537 264V239H151Q156 154 196.5 111.0Q237 68 306 68Q358 68 391.5 92.5Q425 117 438 157L528 150Q507 79 448.5 33.5Q390 -12 306 -12ZM151 313H445Q439 390 400.0 426.0Q361 462 302 462Q241 462 201.5 424.5Q162 387 151 313Z" fill="#4A5A62"/></g><g transform="translate(253.20, 290.00) scale(0.034, -0.034)"><path d="M310 -12Q241 -12 191.0 12.0Q141 36 112.5 76.5Q84 117 80 167L168 173Q176 124 211.5 96.0Q247 68 310 68Q369 68 401.5 85.0Q434 102 434 138Q434 161 423.0 176.0Q412 191 382.0 201.5Q352 212 294 222Q217 236 173.5 256.5Q130 277 112.0 308.0Q94 339 94 382Q94 428 117.0 464.0Q140 500 185.0 521.0Q230 542 295 542Q361 542 405.5 518.5Q450 495 476.0 456.5Q502 418 510 372L422 366Q416 394 399.5 415.5Q383 437 356.5 449.5Q330 462 294 462Q236 462 208.0 439.0Q180 416 180 382Q180 355 193.0 339.0Q206 323 235.0 313.5Q264 304 312 296Q394 283 439.0 262.5Q484 242 502.0 212.0Q520 182 520 138Q520 91 492.5 57.5Q465 24 417.5 6.0Q370 -12 310 -12Z" fill="#4A5A62"/></g><g transform="translate(273.60, 290.00) scale(0.034, -0.034)"><path d="M310 -12Q241 -12 191.0 12.0Q141 36 112.5 76.5Q84 117 80 167L168 173Q176 124 211.5 96.0Q247 68 310 68Q369 68 401.5 85.0Q434 102 434 138Q434 161 423.0 176.0Q412 191 382.0 201.5Q352 212 294 222Q217 236 173.5 256.5Q130 277 112.0 308.0Q94 339 94 382Q94 428 117.0 464.0Q140 500 185.0 521.0Q230 542 295 542Q361 542 405.5 518.5Q450 495 476.0 456.5Q502 418 510 372L422 366Q416 394 399.5 415.5Q383 437 356.5 449.5Q330 462 294 462Q236 462 208.0 439.0Q180 416 180 382Q180 355 193.0 339.0Q206 323 235.0 313.5Q264 304 312 296Q394 283 439.0 262.5Q484 242 502.0 212.0Q520 182 520 138Q520 91 492.5 57.5Q465 24 417.5 6.0Q370 -12 310 -12Z" fill="#4A5A62"/></g><g transform="translate(314.40, 290.00) scale(0.034, -0.034)"><path d="M267 -12Q197 -12 146.0 22.0Q95 56 67.5 118.0Q40 180 40 265Q40 350 67.5 412.0Q95 474 146.0 508.0Q197 542 267 542Q310 542 344.5 526.0Q379 510 402.5 486.0Q426 462 435 437L426 416V710H510V0H434L429 120L442 105Q430 69 404.5 42.5Q379 16 344.0 2.0Q309 -12 267 -12ZM272 68Q320 68 354.5 92.0Q389 116 407.5 160.5Q426 205 426 265Q426 327 407.5 371.0Q389 415 354.0 438.5Q319 462 270 462Q205 462 166.5 409.5Q128 357 128 265Q128 174 166.5 121.0Q205 68 272 68Z" fill="#4A5A62"/></g><g transform="translate(334.80, 290.00) scale(0.034, -0.034)"><path d="M306 -12Q231 -12 176.5 22.0Q122 56 92.5 118.5Q63 181 63 265Q63 349 92.5 411.0Q122 473 175.5 507.5Q229 542 302 542Q371 542 424.0 509.5Q477 477 507.0 415.0Q537 353 537 264V239H151Q156 154 196.5 111.0Q237 68 306 68Q358 68 391.5 92.5Q425 117 438 157L528 150Q507 79 448.5 33.5Q390 -12 306 -12ZM151 313H445Q439 390 400.0 426.0Q361 462 302 462Q241 462 201.5 424.5Q162 387 151 313Z" fill="#4A5A62"/></g><g transform="translate(355.20, 290.00) scale(0.034, -0.034)"><path d="M247 0 50 530H142L300 86L458 530H550L353 0Z" fill="#4A5A62"/></g><g transform="translate(375.60, 290.00) scale(0.034, -0.034)"><path d="M306 -12Q231 -12 176.5 22.0Q122 56 92.5 118.5Q63 181 63 265Q63 349 92.5 411.0Q122 473 175.5 507.5Q229 542 302 542Q371 542 424.0 509.5Q477 477 507.0 415.0Q537 353 537 264V239H151Q156 154 196.5 111.0Q237 68 306 68Q358 68 391.5 92.5Q425 117 438 157L528 150Q507 79 448.5 33.5Q390 -12 306 -12ZM151 313H445Q439 390 400.0 426.0Q361 462 302 462Q241 462 201.5 424.5Q162 387 151 313Z" fill="#4A5A62"/></g><g transform="translate(396.00, 290.00) scale(0.034, -0.034)"><path d="M273 30V568Q273 600 255.0 618.0Q237 636 205 636H80V710H209Q282 710 319.5 672.5Q357 635 357 562V30ZM60 0V74H540V0Z" fill="#4A5A62"/></g><g transform="translate(416.40, 290.00) scale(0.034, -0.034)"><path d="M300 -12Q227 -12 172.5 22.0Q118 56 88.0 118.5Q58 181 58 265Q58 350 88.0 412.0Q118 474 172.5 508.0Q227 542 300 542Q373 542 427.5 508.0Q482 474 512.0 412.0Q542 350 542 265Q542 181 512.0 118.5Q482 56 427.5 22.0Q373 -12 300 -12ZM300 68Q373 68 413.5 120.5Q454 173 454 265Q454 357 413.5 409.5Q373 462 300 462Q227 462 186.5 409.5Q146 357 146 265Q146 173 186.5 120.5Q227 68 300 68Z" fill="#4A5A62"/></g><g transform="translate(436.80, 290.00) scale(0.034, -0.034)"><path d="M80 -150V530H158L160 410L148 416Q168 478 214.5 510.0Q261 542 322 542Q401 542 451.5 503.0Q502 464 526.0 401.0Q550 338 550 265Q550 192 526.0 129.0Q502 66 451.5 27.0Q401 -12 322 -12Q281 -12 245.5 2.0Q210 16 185.5 41.0Q161 66 152 100L164 114V-150ZM314 68Q383 68 422.5 120.0Q462 172 462 265Q462 358 422.5 410.0Q383 462 314 462Q268 462 234.5 440.0Q201 418 182.5 374.0Q164 330 164 265Q164 200 182.0 156.0Q200 112 234.0 90.0Q268 68 314 68Z" fill="#4A5A62"/></g><g transform="translate(457.20, 290.00) scale(0.034, -0.034)"><path d="M306 -12Q231 -12 176.5 22.0Q122 56 92.5 118.5Q63 181 63 265Q63 349 92.5 411.0Q122 473 175.5 507.5Q229 542 302 542Q371 542 424.0 509.5Q477 477 507.0 415.0Q537 353 537 264V239H151Q156 154 196.5 111.0Q237 68 306 68Q358 68 391.5 92.5Q425 117 438 157L528 150Q507 79 448.5 33.5Q390 -12 306 -12ZM151 313H445Q439 390 400.0 426.0Q361 462 302 462Q241 462 201.5 424.5Q162 387 151 313Z" fill="#4A5A62"/></g><g transform="translate(477.60, 290.00) scale(0.034, -0.034)"><path d="M90 0V74H269L228 34V497L269 456H90V530H298L306 388L298 394Q306 463 340.0 496.5Q374 530 431 530H540V454H432Q393 454 366.5 438.5Q340 423 326.0 393.5Q312 364 312 320V34L272 74H480V0Z" fill="#4A5A62"/></g><g transform="translate(518.40, 290.00) scale(0.034, -0.034)"><path d="M240 -16Q138 -16 79.0 33.5Q20 83 20 174Q20 220 33.0 255.5Q46 291 76.5 324.0Q107 357 160 394Q137 424 121.0 450.5Q105 477 96.5 504.0Q88 531 88 562Q88 639 134.5 682.5Q181 726 262 726Q342 726 385.0 685.5Q428 645 428 574Q428 517 394.0 471.5Q360 426 280 373L442 166Q460 191 469.0 229.0Q478 267 478 318L562 310Q561 250 542.5 194.0Q524 138 495 103L580 0H479L442 45Q413 17 362.5 0.5Q312 -16 240 -16ZM250 64Q301 64 335.0 76.0Q369 88 386 106L210 328Q156 291 133.0 256.0Q110 221 110 174Q110 124 143.5 94.0Q177 64 250 64ZM234 434Q272 458 295.0 478.5Q318 499 328.0 521.0Q338 543 338 568Q338 604 318.0 623.0Q298 642 262 642Q222 642 200.0 621.0Q178 600 178 562Q178 542 183.0 522.5Q188 503 200.5 482.0Q213 461 234 434Z" fill="#4A5A62"/></g><g transform="translate(559.20, 290.00) scale(0.034, -0.034)"><path d="M80 -150V530H158L160 410L148 416Q168 478 214.5 510.0Q261 542 322 542Q401 542 451.5 503.0Q502 464 526.0 401.0Q550 338 550 265Q550 192 526.0 129.0Q502 66 451.5 27.0Q401 -12 322 -12Q281 -12 245.5 2.0Q210 16 185.5 41.0Q161 66 152 100L164 114V-150ZM314 68Q383 68 422.5 120.0Q462 172 462 265Q462 358 422.5 410.0Q383 462 314 462Q268 462 234.5 440.0Q201 418 182.5 374.0Q164 330 164 265Q164 200 182.0 156.0Q200 112 234.0 90.0Q268 68 314 68Z" fill="#4A5A62"/></g><g transform="translate(579.60, 290.00) scale(0.034, -0.034)"><path d="M230 -12Q180 -12 140.0 6.0Q100 24 77.0 56.5Q54 89 54 132Q54 200 94.5 237.5Q135 275 222 292L400 328Q400 396 369.5 429.0Q339 462 282 462Q227 462 196.0 437.5Q165 413 153 367L64 374Q79 449 135.5 495.5Q192 542 282 542Q378 542 431.0 484.5Q484 427 484 326V106Q484 88 492.0 81.0Q500 74 516 74H550V0Q544 -1 531.0 -1.5Q518 -2 506 -2Q472 -2 448.5 9.0Q425 20 413.0 44.5Q401 69 400 108H416Q409 74 382.5 46.5Q356 19 316.0 3.5Q276 -12 230 -12ZM238 62Q292 62 328.0 80.5Q364 99 382.0 132.5Q400 166 400 210V256L238 224Q184 214 163.0 193.5Q142 173 142 140Q142 103 167.5 82.5Q193 62 238 62Z" fill="#4A5A62"/></g><g transform="translate(600.00, 290.00) scale(0.034, -0.034)"><path d="M90 0V74H269L228 34V497L269 456H90V530H298L306 388L298 394Q306 463 340.0 496.5Q374 530 431 530H540V454H432Q393 454 366.5 438.5Q340 423 326.0 393.5Q312 364 312 320V34L272 74H480V0Z" fill="#4A5A62"/></g><g transform="translate(620.40, 290.00) scale(0.034, -0.034)"><path d="M378 0Q301 0 263.0 36.0Q225 72 225 146V654H309V146Q309 109 326.0 91.5Q343 74 378 74H520V0ZM50 456V530H520V456Z" fill="#4A5A62"/></g><g transform="translate(640.80, 290.00) scale(0.034, -0.034)"><path d="M84 0V530H161L164 395L154 404Q164 451 190.5 481.5Q217 512 254.0 527.0Q291 542 332 542Q393 542 433.5 515.0Q474 488 495.0 442.5Q516 397 516 341V0H432V317Q432 391 403.0 429.5Q374 468 314 468Q273 468 240.0 450.5Q207 433 187.5 399.5Q168 366 168 317V0Z" fill="#4A5A62"/></g><g transform="translate(661.20, 290.00) scale(0.034, -0.034)"><path d="M306 -12Q231 -12 176.5 22.0Q122 56 92.5 118.5Q63 181 63 265Q63 349 92.5 411.0Q122 473 175.5 507.5Q229 542 302 542Q371 542 424.0 509.5Q477 477 507.0 415.0Q537 353 537 264V239H151Q156 154 196.5 111.0Q237 68 306 68Q358 68 391.5 92.5Q425 117 438 157L528 150Q507 79 448.5 33.5Q390 -12 306 -12ZM151 313H445Q439 390 400.0 426.0Q361 462 302 462Q241 462 201.5 424.5Q162 387 151 313Z" fill="#4A5A62"/></g><g transform="translate(681.60, 290.00) scale(0.034, -0.034)"><path d="M90 0V74H269L228 34V497L269 456H90V530H298L306 388L298 394Q306 463 340.0 496.5Q374 530 431 530H540V454H432Q393 454 366.5 438.5Q340 423 326.0 393.5Q312 364 312 320V34L272 74H480V0Z" fill="#4A5A62"/></g>
  <line x1="90" y1="360" x2="210" y2="360" stroke="#4A5A62" stroke-width="3"/>
  <g transform="translate(90.00, 440.00) scale(0.042, -0.042)"><path d="M240 56V534H318V56ZM40 256V334H518V256Z" fill="#0A0A0A"/></g><g transform="translate(113.44, 440.00) scale(0.042, -0.042)"><path d="M391 0V154H30V232L385 710H477V238H565V154H477V0ZM134 238H391V578Z" fill="#0A0A0A"/></g><g transform="translate(139.27, 440.00) scale(0.042, -0.042)"><path d="M178 0Q178 110 208.0 219.5Q238 329 294.5 432.0Q351 535 430 626H20V710H524V632Q435 530 377.5 430.5Q320 331 293.0 225.5Q266 120 266 0Z" fill="#0A0A0A"/></g><g transform="translate(171.77, 440.00) scale(0.042, -0.042)"><path d="M391 0V154H30V232L385 710H477V238H565V154H477V0ZM134 238H391V578Z" fill="#0A0A0A"/></g><g transform="translate(197.60, 440.00) scale(0.042, -0.042)"><path d="M331 -16Q245 -16 182.0 29.0Q119 74 84.5 157.0Q50 240 50 354Q50 468 84.5 551.5Q119 635 182.0 680.5Q245 726 331 726Q418 726 481.0 680.5Q544 635 578.5 552.0Q613 469 613 354Q613 240 578.5 157.0Q544 74 481.0 29.0Q418 -16 331 -16ZM331 68Q423 68 473.0 142.5Q523 217 523 354Q523 446 500.5 510.5Q478 575 435.5 608.5Q393 642 331 642Q270 642 227.5 608.5Q185 575 162.5 510.5Q140 446 140 354Q140 217 190.0 142.5Q240 68 331 68Z" fill="#0A0A0A"/></g><g transform="translate(225.45, 440.00) scale(0.042, -0.042)"><path d="M331 -16Q245 -16 182.0 29.0Q119 74 84.5 157.0Q50 240 50 354Q50 468 84.5 551.5Q119 635 182.0 680.5Q245 726 331 726Q418 726 481.0 680.5Q544 635 578.5 552.0Q613 469 613 354Q613 240 578.5 157.0Q544 74 481.0 29.0Q418 -16 331 -16ZM331 68Q423 68 473.0 142.5Q523 217 523 354Q523 446 500.5 510.5Q478 575 435.5 608.5Q393 642 331 642Q270 642 227.5 608.5Q185 575 162.5 510.5Q140 446 140 354Q140 217 190.0 142.5Q240 68 331 68Z" fill="#0A0A0A"/></g><g transform="translate(263.80, 440.00) scale(0.042, -0.042)"><path d="M288 -16Q200 -16 144.5 27.5Q89 71 69 137L160 144Q172 108 204.0 88.0Q236 68 288 68Q377 68 424.5 139.5Q472 211 473 370L494 366Q469 299 417.0 262.5Q365 226 296 226Q227 226 174.0 257.0Q121 288 90.5 344.0Q60 400 60 474Q60 552 92.0 608.5Q124 665 179.5 695.5Q235 726 307 726Q396 726 452.5 685.0Q509 644 536.0 570.5Q563 497 563 397Q563 308 549.0 232.5Q535 157 503.0 101.5Q471 46 418.5 15.0Q366 -16 288 -16ZM302 311Q351 311 388.0 330.0Q425 349 446.5 385.0Q468 421 468 472Q468 521 448.5 559.5Q429 598 393.0 620.0Q357 642 307 642Q258 642 223.0 620.5Q188 599 169.0 561.0Q150 523 150 474Q150 424 169.5 387.5Q189 351 223.0 331.0Q257 311 302 311Z" fill="#0A0A0A"/></g><g transform="translate(290.00, 440.00) scale(0.042, -0.042)"><path d="M301 -16Q183 -16 119.0 39.5Q55 95 50 183L139 189Q145 124 189.5 96.0Q234 68 301 68Q347 68 386.0 80.5Q425 93 449.0 121.5Q473 150 473 198Q473 269 426.0 302.0Q379 335 302 335H246V419H302Q365 419 406.5 444.0Q448 469 448 530Q448 585 412.5 613.5Q377 642 306 642Q236 642 200.5 615.0Q165 588 158 541L68 547Q78 627 139.0 676.5Q200 726 306 726Q378 726 430.0 702.5Q482 679 510.0 636.0Q538 593 538 534Q538 468 496.5 427.5Q455 387 374 372V390Q461 380 512.0 328.0Q563 276 563 198Q563 130 529.5 82.0Q496 34 437.0 9.0Q378 -16 301 -16Z" fill="#0A0A0A"/></g><g transform="translate(326.25, 440.00) scale(0.042, -0.042)"><path d="M391 0V154H30V232L385 710H477V238H565V154H477V0ZM134 238H391V578Z" fill="#0A0A0A"/></g><g transform="translate(352.08, 440.00) scale(0.042, -0.042)"><path d="M288 -16Q200 -16 144.5 27.5Q89 71 69 137L160 144Q172 108 204.0 88.0Q236 68 288 68Q377 68 424.5 139.5Q472 211 473 370L494 366Q469 299 417.0 262.5Q365 226 296 226Q227 226 174.0 257.0Q121 288 90.5 344.0Q60 400 60 474Q60 552 92.0 608.5Q124 665 179.5 695.5Q235 726 307 726Q396 726 452.5 685.0Q509 644 536.0 570.5Q563 497 563 397Q563 308 549.0 232.5Q535 157 503.0 101.5Q471 46 418.5 15.0Q366 -16 288 -16ZM302 311Q351 311 388.0 330.0Q425 349 446.5 385.0Q468 421 468 472Q468 521 448.5 559.5Q429 598 393.0 620.0Q357 642 307 642Q258 642 223.0 620.5Q188 599 169.0 561.0Q150 523 150 474Q150 424 169.5 387.5Q189 351 223.0 331.0Q257 311 302 311Z" fill="#0A0A0A"/></g><g transform="translate(378.29, 440.00) scale(0.042, -0.042)"><path d="M391 0V154H30V232L385 710H477V238H565V154H477V0ZM134 238H391V578Z" fill="#0A0A0A"/></g><g transform="translate(90.00, 502.00) scale(0.042, -0.042)"><path d="M254 -12Q175 -12 127.5 41.5Q80 95 80 189V530H164V212Q164 135 191.5 98.5Q219 62 276 62Q339 62 375.0 102.5Q411 143 411 214V530H495V0H415V131L428 124Q412 59 367.0 23.5Q322 -12 254 -12Z" fill="#0A0A0A"/></g><g transform="translate(114.15, 502.00) scale(0.042, -0.042)"><path d="M184 0Q138 0 109.0 24.0Q80 48 80 100V710H164V107Q164 91 172.5 82.5Q181 74 197 74H243V0Z" fill="#0A0A0A"/></g><g transform="translate(125.36, 502.00) scale(0.042, -0.042)"><path d="M80 0V530H154L158 396L150 399Q160 467 193.5 498.5Q227 530 283 530H335V450H284Q244 450 217.5 435.5Q191 421 177.5 392.5Q164 364 164 320V0Z" fill="#0A0A0A"/></g><g transform="translate(141.28, 502.00) scale(0.042, -0.042)"><path d="M80 0V530H164V0ZM78 613V711H166V613Z" fill="#0A0A0A"/></g><g transform="translate(151.53, 502.00) scale(0.042, -0.042)"><path d="M80 0V710H164V245L422 530H534L325 305L543 0H441L268 248L164 138V0Z" fill="#0A0A0A"/></g><g transform="translate(176.31, 502.00) scale(0.042, -0.042)"><path d="M632 -68Q582 -89 527.0 -99.5Q472 -110 410 -110Q295 -110 213.5 -67.5Q132 -25 88.5 56.0Q45 137 45 250Q45 352 77.0 436.0Q109 520 168.5 581.5Q228 643 309.0 676.5Q390 710 488 710Q601 710 685.0 666.0Q769 622 815.0 542.0Q861 462 861 353Q861 273 837.0 212.0Q813 151 771.0 116.5Q729 82 674 82Q628 82 598.5 109.0Q569 136 566 182L581 186Q569 157 543.0 132.0Q517 107 484.0 92.5Q451 78 416 78Q357 78 316.5 101.0Q276 124 255.0 165.0Q234 206 234 260Q234 327 260.5 382.0Q287 437 334.5 469.5Q382 502 446 502Q499 502 536.5 478.5Q574 455 584 417L574 407L581 500H654L638 290Q637 268 634.5 240.0Q632 212 632 194Q632 172 644.0 160.0Q656 148 680 148Q731 148 760.0 202.0Q789 256 789 350Q789 443 754.0 508.0Q719 573 651.5 606.5Q584 640 486 640Q404 640 336.0 612.0Q268 584 219.0 532.5Q170 481 143.5 410.0Q117 339 117 252Q117 159 151.5 93.5Q186 28 252.0 -6.0Q318 -40 412 -40Q466 -40 518.5 -29.5Q571 -19 615 0ZM426 144Q476 144 507.5 168.5Q539 193 554.5 231.5Q570 270 570 311Q570 346 558.5 374.5Q547 403 521.5 419.5Q496 436 454 436Q409 436 378.5 412.5Q348 389 332.0 350.5Q316 312 316 266Q316 214 340.5 179.0Q365 144 426 144Z" fill="#0A0A0A"/></g><g transform="translate(214.36, 502.00) scale(0.042, -0.042)"><path d="M273 -12Q202 -12 152.5 11.0Q103 34 75.5 74.5Q48 115 44 167L132 173Q140 125 173.0 96.5Q206 68 273 68Q327 68 359.5 85.5Q392 103 392 142Q392 163 382.0 177.0Q372 191 343.0 201.5Q314 212 257 222Q181 236 137.5 256.5Q94 277 75.5 307.5Q57 338 57 380Q57 451 109.0 496.5Q161 542 257 542Q322 542 366.5 518.5Q411 495 436.5 456.5Q462 418 470 372L382 366Q376 394 360.0 415.5Q344 437 318.0 449.5Q292 462 256 462Q199 462 172.0 440.0Q145 418 145 384Q145 358 157.5 341.5Q170 325 198.0 314.5Q226 304 273 296Q354 282 399.0 262.0Q444 242 462.0 213.0Q480 184 480 142Q480 93 452.5 58.5Q425 24 378.5 6.0Q332 -12 273 -12Z" fill="#0A0A0A"/></g><g transform="translate(236.37, 502.00) scale(0.042, -0.042)"><path d="M287 -12Q214 -12 159.0 22.0Q104 56 74.0 118.5Q44 181 44 265Q44 350 74.0 412.0Q104 474 159.0 508.0Q214 542 287 542Q360 542 414.5 508.0Q469 474 499.0 412.0Q529 350 529 265Q529 181 499.0 118.5Q469 56 414.5 22.0Q360 -12 287 -12ZM287 68Q360 68 400.5 120.5Q441 173 441 265Q441 357 400.5 409.5Q360 462 287 462Q214 462 173.0 409.5Q132 357 132 265Q132 173 173.0 120.5Q214 68 287 68Z" fill="#0A0A0A"/></g><g transform="translate(260.44, 502.00) scale(0.042, -0.042)"><path d="M184 0Q138 0 109.0 24.0Q80 48 80 100V710H164V107Q164 91 172.5 82.5Q181 74 197 74H243V0Z" fill="#0A0A0A"/></g><g transform="translate(271.65, 502.00) scale(0.042, -0.042)"><path d="M80 0V530H164V0ZM78 613V711H166V613Z" fill="#0A0A0A"/></g><g transform="translate(281.90, 502.00) scale(0.042, -0.042)"><path d="M268 -12Q199 -12 148.5 22.0Q98 56 71.0 118.0Q44 180 44 265Q44 350 71.0 412.0Q98 474 148.5 508.0Q199 542 268 542Q321 542 365.0 519.5Q409 497 431 456V710H515V0H439L436 80Q414 37 369.0 12.5Q324 -12 268 -12ZM285 68Q332 68 364.5 92.0Q397 116 414.0 160.5Q431 205 431 265Q431 327 414.0 371.0Q397 415 364.5 438.5Q332 462 285 462Q215 462 173.5 409.5Q132 357 132 265Q132 174 173.5 121.0Q215 68 285 68Z" fill="#0A0A0A"/></g><g transform="translate(306.89, 502.00) scale(0.042, -0.042)"><path d="M184 0Q138 0 109.0 24.0Q80 48 80 100V710H164V107Q164 91 172.5 82.5Q181 74 197 74H243V0Z" fill="#0A0A0A"/></g><g transform="translate(318.10, 502.00) scale(0.042, -0.042)"><path d="M223 -12Q141 -12 92.5 26.0Q44 64 44 132Q44 200 84.0 239.0Q124 278 211 294L399 329Q399 396 367.5 429.0Q336 462 273 462Q218 462 186.0 437.5Q154 413 142 367L53 374Q68 449 125.5 495.5Q183 542 273 542Q375 542 429.0 484.5Q483 427 483 326V107Q483 89 489.5 81.5Q496 74 511 74H532V0Q528 -1 519.0 -1.5Q510 -2 500 -2Q464 -2 441.5 9.5Q419 21 409.0 45.5Q399 70 399 110L409 108Q402 74 375.0 46.5Q348 19 308.0 3.5Q268 -12 223 -12ZM231 62Q284 62 321.5 82.5Q359 103 379.0 138.5Q399 174 399 218V256L227 224Q173 214 152.5 193.5Q132 173 132 140Q132 103 158.5 82.5Q185 62 231 62Z" fill="#0A0A0A"/></g><g transform="translate(341.24, 502.00) scale(0.042, -0.042)"><path d="M323 -12Q268 -12 225.0 12.5Q182 37 159 80L156 0H80V710H164V456Q184 489 226.0 515.5Q268 542 323 542Q393 542 444.0 508.0Q495 474 523.0 412.0Q551 350 551 265Q551 180 523.0 118.0Q495 56 444.0 22.0Q393 -12 323 -12ZM318 68Q385 68 424.0 121.0Q463 174 463 265Q463 357 424.0 409.5Q385 462 320 462Q271 462 236.0 438.5Q201 415 182.5 371.0Q164 327 164 265Q164 205 182.5 160.5Q201 116 235.5 92.0Q270 68 318 68Z" fill="#0A0A0A"/></g><g transform="translate(366.23, 502.00) scale(0.042, -0.042)"><path d="M44 0V113H157V0Z" fill="#0A0A0A"/></g><g transform="translate(374.68, 502.00) scale(0.042, -0.042)"><path d="M223 -12Q141 -12 92.5 26.0Q44 64 44 132Q44 200 84.0 239.0Q124 278 211 294L399 329Q399 396 367.5 429.0Q336 462 273 462Q218 462 186.0 437.5Q154 413 142 367L53 374Q68 449 125.5 495.5Q183 542 273 542Q375 542 429.0 484.5Q483 427 483 326V107Q483 89 489.5 81.5Q496 74 511 74H532V0Q528 -1 519.0 -1.5Q510 -2 500 -2Q464 -2 441.5 9.5Q419 21 409.0 45.5Q399 70 399 110L409 108Q402 74 375.0 46.5Q348 19 308.0 3.5Q268 -12 223 -12ZM231 62Q284 62 321.5 82.5Q359 103 379.0 138.5Q399 174 399 218V256L227 224Q173 214 152.5 193.5Q132 173 132 140Q132 103 158.5 82.5Q185 62 231 62Z" fill="#0A0A0A"/></g><g transform="translate(397.82, 502.00) scale(0.042, -0.042)"><path d="M80 0V530H164V0ZM78 613V711H166V613Z" fill="#0A0A0A"/></g><g transform="translate(90.00, 564.00) scale(0.042, -0.042)"><path d="M273 -12Q202 -12 152.5 11.0Q103 34 75.5 74.5Q48 115 44 167L132 173Q140 125 173.0 96.5Q206 68 273 68Q327 68 359.5 85.5Q392 103 392 142Q392 163 382.0 177.0Q372 191 343.0 201.5Q314 212 257 222Q181 236 137.5 256.5Q94 277 75.5 307.5Q57 338 57 380Q57 451 109.0 496.5Q161 542 257 542Q322 542 366.5 518.5Q411 495 436.5 456.5Q462 418 470 372L382 366Q376 394 360.0 415.5Q344 437 318.0 449.5Q292 462 256 462Q199 462 172.0 440.0Q145 418 145 384Q145 358 157.5 341.5Q170 325 198.0 314.5Q226 304 273 296Q354 282 399.0 262.0Q444 242 462.0 213.0Q480 184 480 142Q480 93 452.5 58.5Q425 24 378.5 6.0Q332 -12 273 -12Z" fill="#4A5A62"/></g><g transform="translate(112.01, 564.00) scale(0.042, -0.042)"><path d="M287 -12Q214 -12 159.0 22.0Q104 56 74.0 118.5Q44 181 44 265Q44 350 74.0 412.0Q104 474 159.0 508.0Q214 542 287 542Q360 542 414.5 508.0Q469 474 499.0 412.0Q529 350 529 265Q529 181 499.0 118.5Q469 56 414.5 22.0Q360 -12 287 -12ZM287 68Q360 68 400.5 120.5Q441 173 441 265Q441 357 400.5 409.5Q360 462 287 462Q214 462 173.0 409.5Q132 357 132 265Q132 173 173.0 120.5Q214 68 287 68Z" fill="#4A5A62"/></g><g transform="translate(136.07, 564.00) scale(0.042, -0.042)"><path d="M184 0Q138 0 109.0 24.0Q80 48 80 100V710H164V107Q164 91 172.5 82.5Q181 74 197 74H243V0Z" fill="#4A5A62"/></g><g transform="translate(147.29, 564.00) scale(0.042, -0.042)"><path d="M80 0V530H164V0ZM78 613V711H166V613Z" fill="#4A5A62"/></g><g transform="translate(157.54, 564.00) scale(0.042, -0.042)"><path d="M268 -12Q199 -12 148.5 22.0Q98 56 71.0 118.0Q44 180 44 265Q44 350 71.0 412.0Q98 474 148.5 508.0Q199 542 268 542Q321 542 365.0 519.5Q409 497 431 456V710H515V0H439L436 80Q414 37 369.0 12.5Q324 -12 268 -12ZM285 68Q332 68 364.5 92.0Q397 116 414.0 160.5Q431 205 431 265Q431 327 414.0 371.0Q397 415 364.5 438.5Q332 462 285 462Q215 462 173.5 409.5Q132 357 132 265Q132 174 173.5 121.0Q215 68 285 68Z" fill="#4A5A62"/></g><g transform="translate(182.53, 564.00) scale(0.042, -0.042)"><path d="M184 0Q138 0 109.0 24.0Q80 48 80 100V710H164V107Q164 91 172.5 82.5Q181 74 197 74H243V0Z" fill="#4A5A62"/></g><g transform="translate(193.74, 564.00) scale(0.042, -0.042)"><path d="M223 -12Q141 -12 92.5 26.0Q44 64 44 132Q44 200 84.0 239.0Q124 278 211 294L399 329Q399 396 367.5 429.0Q336 462 273 462Q218 462 186.0 437.5Q154 413 142 367L53 374Q68 449 125.5 495.5Q183 542 273 542Q375 542 429.0 484.5Q483 427 483 326V107Q483 89 489.5 81.5Q496 74 511 74H532V0Q528 -1 519.0 -1.5Q510 -2 500 -2Q464 -2 441.5 9.5Q419 21 409.0 45.5Q399 70 399 110L409 108Q402 74 375.0 46.5Q348 19 308.0 3.5Q268 -12 223 -12ZM231 62Q284 62 321.5 82.5Q359 103 379.0 138.5Q399 174 399 218V256L227 224Q173 214 152.5 193.5Q132 173 132 140Q132 103 158.5 82.5Q185 62 231 62Z" fill="#4A5A62"/></g><g transform="translate(216.88, 564.00) scale(0.042, -0.042)"><path d="M323 -12Q268 -12 225.0 12.5Q182 37 159 80L156 0H80V710H164V456Q184 489 226.0 515.5Q268 542 323 542Q393 542 444.0 508.0Q495 474 523.0 412.0Q551 350 551 265Q551 180 523.0 118.0Q495 56 444.0 22.0Q393 -12 323 -12ZM318 68Q385 68 424.0 121.0Q463 174 463 265Q463 357 424.0 409.5Q385 462 320 462Q271 462 236.0 438.5Q201 415 182.5 371.0Q164 327 164 265Q164 205 182.5 160.5Q201 116 235.5 92.0Q270 68 318 68Z" fill="#4A5A62"/></g><g transform="translate(241.87, 564.00) scale(0.042, -0.042)"><path d="M44 0V113H157V0Z" fill="#4A5A62"/></g><g transform="translate(250.31, 564.00) scale(0.042, -0.042)"><path d="M223 -12Q141 -12 92.5 26.0Q44 64 44 132Q44 200 84.0 239.0Q124 278 211 294L399 329Q399 396 367.5 429.0Q336 462 273 462Q218 462 186.0 437.5Q154 413 142 367L53 374Q68 449 125.5 495.5Q183 542 273 542Q375 542 429.0 484.5Q483 427 483 326V107Q483 89 489.5 81.5Q496 74 511 74H532V0Q528 -1 519.0 -1.5Q510 -2 500 -2Q464 -2 441.5 9.5Q419 21 409.0 45.5Q399 70 399 110L409 108Q402 74 375.0 46.5Q348 19 308.0 3.5Q268 -12 223 -12ZM231 62Q284 62 321.5 82.5Q359 103 379.0 138.5Q399 174 399 218V256L227 224Q173 214 152.5 193.5Q132 173 132 140Q132 103 158.5 82.5Q185 62 231 62Z" fill="#4A5A62"/></g><g transform="translate(273.46, 564.00) scale(0.042, -0.042)"><path d="M80 0V530H164V0ZM78 613V711H166V613Z" fill="#4A5A62"/></g>
  <g transform="translate(1390, 790) scale(11.724137931034482)"><rect x="0" y="0" width="1" height="1" fill="#0A0A0A"/><rect x="1" y="0" width="1" height="1" fill="#0A0A0A"/><rect x="2" y="0" width="1" height="1" fill="#0A0A0A"/><rect x="3" y="0" width="1" height="1" fill="#0A0A0A"/><rect x="4" y="0" width="1" height="1" fill="#0A0A0A"/><rect x="5" y="0" width="1" height="1" fill="#0A0A0A"/><rect x="6" y="0" width="1" height="1" fill="#0A0A0A"/><rect x="8" y="0" width="1" height="1" fill="#0A0A0A"/><rect x="11" y="0" width="1" height="1" fill="#0A0A0A"/><rect x="12" y="0" width="1" height="1" fill="#0A0A0A"/><rect x="13" y="0" width="1" height="1" fill="#0A0A0A"/><rect x="14" y="0" width="1" height="1" fill="#0A0A0A"/><rect x="15" y="0" width="1" height="1" fill="#0A0A0A"/><rect x="18" y="0" width="1" height="1" fill="#0A0A0A"/><rect x="20" y="0" width="1" height="1" fill="#0A0A0A"/><rect x="22" y="0" width="1" height="1" fill="#0A0A0A"/><rect x="23" y="0" width="1" height="1" fill="#0A0A0A"/><rect x="24" y="0" width="1" height="1" fill="#0A0A0A"/><rect x="25" y="0" width="1" height="1" fill="#0A0A0A"/><rect x="26" y="0" width="1" height="1" fill="#0A0A0A"/><rect x="27" y="0" width="1" height="1" fill="#0A0A0A"/><rect x="28" y="0" width="1" height="1" fill="#0A0A0A"/><rect x="0" y="1" width="1" height="1" fill="#0A0A0A"/><rect x="6" y="1" width="1" height="1" fill="#0A0A0A"/><rect x="11" y="1" width="1" height="1" fill="#0A0A0A"/><rect x="12" y="1" width="1" height="1" fill="#0A0A0A"/><rect x="15" y="1" width="1" height="1" fill="#0A0A0A"/><rect x="17" y="1" width="1" height="1" fill="#0A0A0A"/><rect x="18" y="1" width="1" height="1" fill="#0A0A0A"/><rect x="22" y="1" width="1" height="1" fill="#0A0A0A"/><rect x="28" y="1" width="1" height="1" fill="#0A0A0A"/><rect x="0" y="2" width="1" height="1" fill="#0A0A0A"/><rect x="2" y="2" width="1" height="1" fill="#0A0A0A"/><rect x="3" y="2" width="1" height="1" fill="#0A0A0A"/><rect x="4" y="2" width="1" height="1" fill="#0A0A0A"/><rect x="6" y="2" width="1" height="1" fill="#0A0A0A"/><rect x="8" y="2" width="1" height="1" fill="#0A0A0A"/><rect x="9" y="2" width="1" height="1" fill="#0A0A0A"/><rect x="10" y="2" width="1" height="1" fill="#0A0A0A"/><rect x="11" y="2" width="1" height="1" fill="#0A0A0A"/><rect x="12" y="2" width="1" height="1" fill="#0A0A0A"/><rect x="13" y="2" width="1" height="1" fill="#0A0A0A"/><rect x="17" y="2" width="1" height="1" fill="#0A0A0A"/><rect x="20" y="2" width="1" height="1" fill="#0A0A0A"/><rect x="22" y="2" width="1" height="1" fill="#0A0A0A"/><rect x="24" y="2" width="1" height="1" fill="#0A0A0A"/><rect x="25" y="2" width="1" height="1" fill="#0A0A0A"/><rect x="26" y="2" width="1" height="1" fill="#0A0A0A"/><rect x="28" y="2" width="1" height="1" fill="#0A0A0A"/><rect x="0" y="3" width="1" height="1" fill="#0A0A0A"/><rect x="2" y="3" width="1" height="1" fill="#0A0A0A"/><rect x="3" y="3" width="1" height="1" fill="#0A0A0A"/><rect x="4" y="3" width="1" height="1" fill="#0A0A0A"/><rect x="6" y="3" width="1" height="1" fill="#0A0A0A"/><rect x="10" y="3" width="1" height="1" fill="#0A0A0A"/><rect x="15" y="3" width="1" height="1" fill="#0A0A0A"/><rect x="16" y="3" width="1" height="1" fill="#0A0A0A"/><rect x="17" y="3" width="1" height="1" fill="#0A0A0A"/><rect x="18" y="3" width="1" height="1" fill="#0A0A0A"/><rect x="20" y="3" width="1" height="1" fill="#0A0A0A"/><rect x="22" y="3" width="1" height="1" fill="#0A0A0A"/><rect x="24" y="3" width="1" height="1" fill="#0A0A0A"/><rect x="25" y="3" width="1" height="1" fill="#0A0A0A"/><rect x="26" y="3" width="1" height="1" fill="#0A0A0A"/><rect x="28" y="3" width="1" height="1" fill="#0A0A0A"/><rect x="0" y="4" width="1" height="1" fill="#0A0A0A"/><rect x="2" y="4" width="1" height="1" fill="#0A0A0A"/><rect x="3" y="4" width="1" height="1" fill="#0A0A0A"/><rect x="4" y="4" width="1" height="1" fill="#0A0A0A"/><rect x="6" y="4" width="1" height="1" fill="#0A0A0A"/><rect x="10" y="4" width="1" height="1" fill="#0A0A0A"/><rect x="15" y="4" width="1" height="1" fill="#0A0A0A"/><rect x="16" y="4" width="1" height="1" fill="#0A0A0A"/><rect x="17" y="4" width="1" height="1" fill="#0A0A0A"/><rect x="18" y="4" width="1" height="1" fill="#0A0A0A"/><rect x="22" y="4" width="1" height="1" fill="#0A0A0A"/><rect x="24" y="4" width="1" height="1" fill="#0A0A0A"/><rect x="25" y="4" width="1" height="1" fill="#0A0A0A"/><rect x="26" y="4" width="1" height="1" fill="#0A0A0A"/><rect x="28" y="4" width="1" height="1" fill="#0A0A0A"/><rect x="0" y="5" width="1" height="1" fill="#0A0A0A"/><rect x="6" y="5" width="1" height="1" fill="#0A0A0A"/><rect x="8" y="5" width="1" height="1" fill="#0A0A0A"/><rect x="11" y="5" width="1" height="1" fill="#0A0A0A"/><rect x="12" y="5" width="1" height="1" fill="#0A0A0A"/><rect x="13" y="5" width="1" height="1" fill="#0A0A0A"/><rect x="14" y="5" width="1" height="1" fill="#0A0A0A"/><rect x="16" y="5" width="1" height="1" fill="#0A0A0A"/><rect x="17" y="5" width="1" height="1" fill="#0A0A0A"/><rect x="20" y="5" width="1" height="1" fill="#0A0A0A"/><rect x="22" y="5" width="1" height="1" fill="#0A0A0A"/><rect x="28" y="5" width="1" height="1" fill="#0A0A0A"/><rect x="0" y="6" width="1" height="1" fill="#0A0A0A"/><rect x="1" y="6" width="1" height="1" fill="#0A0A0A"/><rect x="2" y="6" width="1" height="1" fill="#0A0A0A"/><rect x="3" y="6" width="1" height="1" fill="#0A0A0A"/><rect x="4" y="6" width="1" height="1" fill="#0A0A0A"/><rect x="5" y="6" width="1" height="1" fill="#0A0A0A"/><rect x="6" y="6" width="1" height="1" fill="#0A0A0A"/><rect x="8" y="6" width="1" height="1" fill="#0A0A0A"/><rect x="10" y="6" width="1" height="1" fill="#0A0A0A"/><rect x="12" y="6" width="1" height="1" fill="#0A0A0A"/><rect x="14" y="6" width="1" height="1" fill="#0A0A0A"/><rect x="16" y="6" width="1" height="1" fill="#0A0A0A"/><rect x="18" y="6" width="1" height="1" fill="#0A0A0A"/><rect x="20" y="6" width="1" height="1" fill="#0A0A0A"/><rect x="22" y="6" width="1" height="1" fill="#0A0A0A"/><rect x="23" y="6" width="1" height="1" fill="#0A0A0A"/><rect x="24" y="6" width="1" height="1" fill="#0A0A0A"/><rect x="25" y="6" width="1" height="1" fill="#0A0A0A"/><rect x="26" y="6" width="1" height="1" fill="#0A0A0A"/><rect x="27" y="6" width="1" height="1" fill="#0A0A0A"/><rect x="28" y="6" width="1" height="1" fill="#0A0A0A"/><rect x="9" y="7" width="1" height="1" fill="#0A0A0A"/><rect x="10" y="7" width="1" height="1" fill="#0A0A0A"/><rect x="12" y="7" width="1" height="1" fill="#0A0A0A"/><rect x="13" y="7" width="1" height="1" fill="#0A0A0A"/><rect x="18" y="7" width="1" height="1" fill="#0A0A0A"/><rect x="0" y="8" width="1" height="1" fill="#0A0A0A"/><rect x="2" y="8" width="1" height="1" fill="#0A0A0A"/><rect x="6" y="8" width="1" height="1" fill="#0A0A0A"/><rect x="7" y="8" width="1" height="1" fill="#0A0A0A"/><rect x="11" y="8" width="1" height="1" fill="#0A0A0A"/><rect x="12" y="8" width="1" height="1" fill="#0A0A0A"/><rect x="13" y="8" width="1" height="1" fill="#0A0A0A"/><rect x="15" y="8" width="1" height="1" fill="#0A0A0A"/><rect x="16" y="8" width="1" height="1" fill="#0A0A0A"/><rect x="19" y="8" width="1" height="1" fill="#0A0A0A"/><rect x="23" y="8" width="1" height="1" fill="#0A0A0A"/><rect x="26" y="8" width="1" height="1" fill="#0A0A0A"/><rect x="28" y="8" width="1" height="1" fill="#0A0A0A"/><rect x="1" y="9" width="1" height="1" fill="#0A0A0A"/><rect x="3" y="9" width="1" height="1" fill="#0A0A0A"/><rect x="7" y="9" width="1" height="1" fill="#0A0A0A"/><rect x="9" y="9" width="1" height="1" fill="#0A0A0A"/><rect x="16" y="9" width="1" height="1" fill="#0A0A0A"/><rect x="19" y="9" width="1" height="1" fill="#0A0A0A"/><rect x="20" y="9" width="1" height="1" fill="#0A0A0A"/><rect x="22" y="9" width="1" height="1" fill="#0A0A0A"/><rect x="23" y="9" width="1" height="1" fill="#0A0A0A"/><rect x="27" y="9" width="1" height="1" fill="#0A0A0A"/><rect x="28" y="9" width="1" height="1" fill="#0A0A0A"/><rect x="2" y="10" width="1" height="1" fill="#0A0A0A"/><rect x="4" y="10" width="1" height="1" fill="#0A0A0A"/><rect x="5" y="10" width="1" height="1" fill="#0A0A0A"/><rect x="6" y="10" width="1" height="1" fill="#0A0A0A"/><rect x="7" y="10" width="1" height="1" fill="#0A0A0A"/><rect x="9" y="10" width="1" height="1" fill="#0A0A0A"/><rect x="12" y="10" width="1" height="1" fill="#0A0A0A"/><rect x="13" y="10" width="1" height="1" fill="#0A0A0A"/><rect x="14" y="10" width="1" height="1" fill="#0A0A0A"/><rect x="16" y="10" width="1" height="1" fill="#0A0A0A"/><rect x="17" y="10" width="1" height="1" fill="#0A0A0A"/><rect x="18" y="10" width="1" height="1" fill="#0A0A0A"/><rect x="19" y="10" width="1" height="1" fill="#0A0A0A"/><rect x="22" y="10" width="1" height="1" fill="#0A0A0A"/><rect x="24" y="10" width="1" height="1" fill="#0A0A0A"/><rect x="25" y="10" width="1" height="1" fill="#0A0A0A"/><rect x="26" y="10" width="1" height="1" fill="#0A0A0A"/><rect x="28" y="10" width="1" height="1" fill="#0A0A0A"/><rect x="1" y="11" width="1" height="1" fill="#0A0A0A"/><rect x="7" y="11" width="1" height="1" fill="#0A0A0A"/><rect x="8" y="11" width="1" height="1" fill="#0A0A0A"/><rect x="10" y="11" width="1" height="1" fill="#0A0A0A"/><rect x="11" y="11" width="1" height="1" fill="#0A0A0A"/><rect x="12" y="11" width="1" height="1" fill="#0A0A0A"/><rect x="14" y="11" width="1" height="1" fill="#0A0A0A"/><rect x="15" y="11" width="1" height="1" fill="#0A0A0A"/><rect x="16" y="11" width="1" height="1" fill="#0A0A0A"/><rect x="18" y="11" width="1" height="1" fill="#0A0A0A"/><rect x="19" y="11" width="1" height="1" fill="#0A0A0A"/><rect x="20" y="11" width="1" height="1" fill="#0A0A0A"/><rect x="24" y="11" width="1" height="1" fill="#0A0A0A"/><rect x="25" y="11" width="1" height="1" fill="#0A0A0A"/><rect x="3" y="12" width="1" height="1" fill="#0A0A0A"/><rect x="5" y="12" width="1" height="1" fill="#0A0A0A"/><rect x="6" y="12" width="1" height="1" fill="#0A0A0A"/><rect x="7" y="12" width="1" height="1" fill="#0A0A0A"/><rect x="8" y="12" width="1" height="1" fill="#0A0A0A"/><rect x="13" y="12" width="1" height="1" fill="#0A0A0A"/><rect x="14" y="12" width="1" height="1" fill="#0A0A0A"/><rect x="16" y="12" width="1" height="1" fill="#0A0A0A"/><rect x="20" y="12" width="1" height="1" fill="#0A0A0A"/><rect x="22" y="12" width="1" height="1" fill="#0A0A0A"/><rect x="23" y="12" width="1" height="1" fill="#0A0A0A"/><rect x="28" y="12" width="1" height="1" fill="#0A0A0A"/><rect x="0" y="13" width="1" height="1" fill="#0A0A0A"/><rect x="2" y="13" width="1" height="1" fill="#0A0A0A"/><rect x="5" y="13" width="1" height="1" fill="#0A0A0A"/><rect x="9" y="13" width="1" height="1" fill="#0A0A0A"/><rect x="10" y="13" width="1" height="1" fill="#0A0A0A"/><rect x="11" y="13" width="1" height="1" fill="#0A0A0A"/><rect x="12" y="13" width="1" height="1" fill="#0A0A0A"/><rect x="13" y="13" width="1" height="1" fill="#0A0A0A"/><rect x="14" y="13" width="1" height="1" fill="#0A0A0A"/><rect x="18" y="13" width="1" height="1" fill="#0A0A0A"/><rect x="19" y="13" width="1" height="1" fill="#0A0A0A"/><rect x="22" y="13" width="1" height="1" fill="#0A0A0A"/><rect x="23" y="13" width="1" height="1" fill="#0A0A0A"/><rect x="27" y="13" width="1" height="1" fill="#0A0A0A"/><rect x="28" y="13" width="1" height="1" fill="#0A0A0A"/><rect x="0" y="14" width="1" height="1" fill="#0A0A0A"/><rect x="2" y="14" width="1" height="1" fill="#0A0A0A"/><rect x="3" y="14" width="1" height="1" fill="#0A0A0A"/><rect x="4" y="14" width="1" height="1" fill="#0A0A0A"/><rect x="6" y="14" width="1" height="1" fill="#0A0A0A"/><rect x="9" y="14" width="1" height="1" fill="#0A0A0A"/><rect x="15" y="14" width="1" height="1" fill="#0A0A0A"/><rect x="18" y="14" width="1" height="1" fill="#0A0A0A"/><rect x="19" y="14" width="1" height="1" fill="#0A0A0A"/><rect x="23" y="14" width="1" height="1" fill="#0A0A0A"/><rect x="24" y="14" width="1" height="1" fill="#0A0A0A"/><rect x="28" y="14" width="1" height="1" fill="#0A0A0A"/><rect x="1" y="15" width="1" height="1" fill="#0A0A0A"/><rect x="3" y="15" width="1" height="1" fill="#0A0A0A"/><rect x="5" y="15" width="1" height="1" fill="#0A0A0A"/><rect x="7" y="15" width="1" height="1" fill="#0A0A0A"/><rect x="8" y="15" width="1" height="1" fill="#0A0A0A"/><rect x="9" y="15" width="1" height="1" fill="#0A0A0A"/><rect x="11" y="15" width="1" height="1" fill="#0A0A0A"/><rect x="12" y="15" width="1" height="1" fill="#0A0A0A"/><rect x="13" y="15" width="1" height="1" fill="#0A0A0A"/><rect x="15" y="15" width="1" height="1" fill="#0A0A0A"/><rect x="23" y="15" width="1" height="1" fill="#0A0A0A"/><rect x="24" y="15" width="1" height="1" fill="#0A0A0A"/><rect x="0" y="16" width="1" height="1" fill="#0A0A0A"/><rect x="1" y="16" width="1" height="1" fill="#0A0A0A"/><rect x="3" y="16" width="1" height="1" fill="#0A0A0A"/><rect x="5" y="16" width="1" height="1" fill="#0A0A0A"/><rect x="6" y="16" width="1" height="1" fill="#0A0A0A"/><rect x="7" y="16" width="1" height="1" fill="#0A0A0A"/><rect x="8" y="16" width="1" height="1" fill="#0A0A0A"/><rect x="12" y="16" width="1" height="1" fill="#0A0A0A"/><rect x="13" y="16" width="1" height="1" fill="#0A0A0A"/><rect x="16" y="16" width="1" height="1" fill="#0A0A0A"/><rect x="20" y="16" width="1" height="1" fill="#0A0A0A"/><rect x="22" y="16" width="1" height="1" fill="#0A0A0A"/><rect x="23" y="16" width="1" height="1" fill="#0A0A0A"/><rect x="28" y="16" width="1" height="1" fill="#0A0A0A"/><rect x="2" y="17" width="1" height="1" fill="#0A0A0A"/><rect x="3" y="17" width="1" height="1" fill="#0A0A0A"/><rect x="5" y="17" width="1" height="1" fill="#0A0A0A"/><rect x="7" y="17" width="1" height="1" fill="#0A0A0A"/><rect x="10" y="17" width="1" height="1" fill="#0A0A0A"/><rect x="11" y="17" width="1" height="1" fill="#0A0A0A"/><rect x="15" y="17" width="1" height="1" fill="#0A0A0A"/><rect x="16" y="17" width="1" height="1" fill="#0A0A0A"/><rect x="19" y="17" width="1" height="1" fill="#0A0A0A"/><rect x="20" y="17" width="1" height="1" fill="#0A0A0A"/><rect x="22" y="17" width="1" height="1" fill="#0A0A0A"/><rect x="23" y="17" width="1" height="1" fill="#0A0A0A"/><rect x="26" y="17" width="1" height="1" fill="#0A0A0A"/><rect x="27" y="17" width="1" height="1" fill="#0A0A0A"/><rect x="28" y="17" width="1" height="1" fill="#0A0A0A"/><rect x="0" y="18" width="1" height="1" fill="#0A0A0A"/><rect x="1" y="18" width="1" height="1" fill="#0A0A0A"/><rect x="2" y="18" width="1" height="1" fill="#0A0A0A"/><rect x="3" y="18" width="1" height="1" fill="#0A0A0A"/><rect x="4" y="18" width="1" height="1" fill="#0A0A0A"/><rect x="6" y="18" width="1" height="1" fill="#0A0A0A"/><rect x="9" y="18" width="1" height="1" fill="#0A0A0A"/><rect x="12" y="18" width="1" height="1" fill="#0A0A0A"/><rect x="13" y="18" width="1" height="1" fill="#0A0A0A"/><rect x="14" y="18" width="1" height="1" fill="#0A0A0A"/><rect x="15" y="18" width="1" height="1" fill="#0A0A0A"/><rect x="17" y="18" width="1" height="1" fill="#0A0A0A"/><rect x="19" y="18" width="1" height="1" fill="#0A0A0A"/><rect x="21" y="18" width="1" height="1" fill="#0A0A0A"/><rect x="22" y="18" width="1" height="1" fill="#0A0A0A"/><rect x="25" y="18" width="1" height="1" fill="#0A0A0A"/><rect x="28" y="18" width="1" height="1" fill="#0A0A0A"/><rect x="2" y="19" width="1" height="1" fill="#0A0A0A"/><rect x="5" y="19" width="1" height="1" fill="#0A0A0A"/><rect x="7" y="19" width="1" height="1" fill="#0A0A0A"/><rect x="9" y="19" width="1" height="1" fill="#0A0A0A"/><rect x="12" y="19" width="1" height="1" fill="#0A0A0A"/><rect x="14" y="19" width="1" height="1" fill="#0A0A0A"/><rect x="21" y="19" width="1" height="1" fill="#0A0A0A"/><rect x="23" y="19" width="1" height="1" fill="#0A0A0A"/><rect x="24" y="19" width="1" height="1" fill="#0A0A0A"/><rect x="0" y="20" width="1" height="1" fill="#0A0A0A"/><rect x="1" y="20" width="1" height="1" fill="#0A0A0A"/><rect x="6" y="20" width="1" height="1" fill="#0A0A0A"/><rect x="8" y="20" width="1" height="1" fill="#0A0A0A"/><rect x="11" y="20" width="1" height="1" fill="#0A0A0A"/><rect x="12" y="20" width="1" height="1" fill="#0A0A0A"/><rect x="13" y="20" width="1" height="1" fill="#0A0A0A"/><rect x="14" y="20" width="1" height="1" fill="#0A0A0A"/><rect x="16" y="20" width="1" height="1" fill="#0A0A0A"/><rect x="18" y="20" width="1" height="1" fill="#0A0A0A"/><rect x="19" y="20" width="1" height="1" fill="#0A0A0A"/><rect x="20" y="20" width="1" height="1" fill="#0A0A0A"/><rect x="21" y="20" width="1" height="1" fill="#0A0A0A"/><rect x="22" y="20" width="1" height="1" fill="#0A0A0A"/><rect x="23" y="20" width="1" height="1" fill="#0A0A0A"/><rect x="24" y="20" width="1" height="1" fill="#0A0A0A"/><rect x="25" y="20" width="1" height="1" fill="#0A0A0A"/><rect x="27" y="20" width="1" height="1" fill="#0A0A0A"/><rect x="8" y="21" width="1" height="1" fill="#0A0A0A"/><rect x="11" y="21" width="1" height="1" fill="#0A0A0A"/><rect x="12" y="21" width="1" height="1" fill="#0A0A0A"/><rect x="13" y="21" width="1" height="1" fill="#0A0A0A"/><rect x="14" y="21" width="1" height="1" fill="#0A0A0A"/><rect x="15" y="21" width="1" height="1" fill="#0A0A0A"/><rect x="16" y="21" width="1" height="1" fill="#0A0A0A"/><rect x="17" y="21" width="1" height="1" fill="#0A0A0A"/><rect x="20" y="21" width="1" height="1" fill="#0A0A0A"/><rect x="24" y="21" width="1" height="1" fill="#0A0A0A"/><rect x="25" y="21" width="1" height="1" fill="#0A0A0A"/><rect x="26" y="21" width="1" height="1" fill="#0A0A0A"/><rect x="28" y="21" width="1" height="1" fill="#0A0A0A"/><rect x="0" y="22" width="1" height="1" fill="#0A0A0A"/><rect x="1" y="22" width="1" height="1" fill="#0A0A0A"/><rect x="2" y="22" width="1" height="1" fill="#0A0A0A"/><rect x="3" y="22" width="1" height="1" fill="#0A0A0A"/><rect x="4" y="22" width="1" height="1" fill="#0A0A0A"/><rect x="5" y="22" width="1" height="1" fill="#0A0A0A"/><rect x="6" y="22" width="1" height="1" fill="#0A0A0A"/><rect x="8" y="22" width="1" height="1" fill="#0A0A0A"/><rect x="10" y="22" width="1" height="1" fill="#0A0A0A"/><rect x="15" y="22" width="1" height="1" fill="#0A0A0A"/><rect x="16" y="22" width="1" height="1" fill="#0A0A0A"/><rect x="17" y="22" width="1" height="1" fill="#0A0A0A"/><rect x="20" y="22" width="1" height="1" fill="#0A0A0A"/><rect x="22" y="22" width="1" height="1" fill="#0A0A0A"/><rect x="24" y="22" width="1" height="1" fill="#0A0A0A"/><rect x="28" y="22" width="1" height="1" fill="#0A0A0A"/><rect x="0" y="23" width="1" height="1" fill="#0A0A0A"/><rect x="6" y="23" width="1" height="1" fill="#0A0A0A"/><rect x="10" y="23" width="1" height="1" fill="#0A0A0A"/><rect x="12" y="23" width="1" height="1" fill="#0A0A0A"/><rect x="13" y="23" width="1" height="1" fill="#0A0A0A"/><rect x="15" y="23" width="1" height="1" fill="#0A0A0A"/><rect x="18" y="23" width="1" height="1" fill="#0A0A0A"/><rect x="19" y="23" width="1" height="1" fill="#0A0A0A"/><rect x="20" y="23" width="1" height="1" fill="#0A0A0A"/><rect x="24" y="23" width="1" height="1" fill="#0A0A0A"/><rect x="27" y="23" width="1" height="1" fill="#0A0A0A"/><rect x="0" y="24" width="1" height="1" fill="#0A0A0A"/><rect x="2" y="24" width="1" height="1" fill="#0A0A0A"/><rect x="3" y="24" width="1" height="1" fill="#0A0A0A"/><rect x="4" y="24" width="1" height="1" fill="#0A0A0A"/><rect x="6" y="24" width="1" height="1" fill="#0A0A0A"/><rect x="9" y="24" width="1" height="1" fill="#0A0A0A"/><rect x="10" y="24" width="1" height="1" fill="#0A0A0A"/><rect x="13" y="24" width="1" height="1" fill="#0A0A0A"/><rect x="15" y="24" width="1" height="1" fill="#0A0A0A"/><rect x="19" y="24" width="1" height="1" fill="#0A0A0A"/><rect x="20" y="24" width="1" height="1" fill="#0A0A0A"/><rect x="21" y="24" width="1" height="1" fill="#0A0A0A"/><rect x="22" y="24" width="1" height="1" fill="#0A0A0A"/><rect x="23" y="24" width="1" height="1" fill="#0A0A0A"/><rect x="24" y="24" width="1" height="1" fill="#0A0A0A"/><rect x="25" y="24" width="1" height="1" fill="#0A0A0A"/><rect x="27" y="24" width="1" height="1" fill="#0A0A0A"/><rect x="28" y="24" width="1" height="1" fill="#0A0A0A"/><rect x="0" y="25" width="1" height="1" fill="#0A0A0A"/><rect x="2" y="25" width="1" height="1" fill="#0A0A0A"/><rect x="3" y="25" width="1" height="1" fill="#0A0A0A"/><rect x="4" y="25" width="1" height="1" fill="#0A0A0A"/><rect x="6" y="25" width="1" height="1" fill="#0A0A0A"/><rect x="9" y="25" width="1" height="1" fill="#0A0A0A"/><rect x="10" y="25" width="1" height="1" fill="#0A0A0A"/><rect x="12" y="25" width="1" height="1" fill="#0A0A0A"/><rect x="13" y="25" width="1" height="1" fill="#0A0A0A"/><rect x="15" y="25" width="1" height="1" fill="#0A0A0A"/><rect x="16" y="25" width="1" height="1" fill="#0A0A0A"/><rect x="18" y="25" width="1" height="1" fill="#0A0A0A"/><rect x="20" y="25" width="1" height="1" fill="#0A0A0A"/><rect x="21" y="25" width="1" height="1" fill="#0A0A0A"/><rect x="24" y="25" width="1" height="1" fill="#0A0A0A"/><rect x="25" y="25" width="1" height="1" fill="#0A0A0A"/><rect x="26" y="25" width="1" height="1" fill="#0A0A0A"/><rect x="28" y="25" width="1" height="1" fill="#0A0A0A"/><rect x="0" y="26" width="1" height="1" fill="#0A0A0A"/><rect x="2" y="26" width="1" height="1" fill="#0A0A0A"/><rect x="3" y="26" width="1" height="1" fill="#0A0A0A"/><rect x="4" y="26" width="1" height="1" fill="#0A0A0A"/><rect x="6" y="26" width="1" height="1" fill="#0A0A0A"/><rect x="8" y="26" width="1" height="1" fill="#0A0A0A"/><rect x="9" y="26" width="1" height="1" fill="#0A0A0A"/><rect x="10" y="26" width="1" height="1" fill="#0A0A0A"/><rect x="12" y="26" width="1" height="1" fill="#0A0A0A"/><rect x="15" y="26" width="1" height="1" fill="#0A0A0A"/><rect x="16" y="26" width="1" height="1" fill="#0A0A0A"/><rect x="17" y="26" width="1" height="1" fill="#0A0A0A"/><rect x="21" y="26" width="1" height="1" fill="#0A0A0A"/><rect x="24" y="26" width="1" height="1" fill="#0A0A0A"/><rect x="27" y="26" width="1" height="1" fill="#0A0A0A"/><rect x="28" y="26" width="1" height="1" fill="#0A0A0A"/><rect x="0" y="27" width="1" height="1" fill="#0A0A0A"/><rect x="6" y="27" width="1" height="1" fill="#0A0A0A"/><rect x="9" y="27" width="1" height="1" fill="#0A0A0A"/><rect x="10" y="27" width="1" height="1" fill="#0A0A0A"/><rect x="11" y="27" width="1" height="1" fill="#0A0A0A"/><rect x="12" y="27" width="1" height="1" fill="#0A0A0A"/><rect x="14" y="27" width="1" height="1" fill="#0A0A0A"/><rect x="16" y="27" width="1" height="1" fill="#0A0A0A"/><rect x="18" y="27" width="1" height="1" fill="#0A0A0A"/><rect x="20" y="27" width="1" height="1" fill="#0A0A0A"/><rect x="23" y="27" width="1" height="1" fill="#0A0A0A"/><rect x="24" y="27" width="1" height="1" fill="#0A0A0A"/><rect x="25" y="27" width="1" height="1" fill="#0A0A0A"/><rect x="0" y="28" width="1" height="1" fill="#0A0A0A"/><rect x="1" y="28" width="1" height="1" fill="#0A0A0A"/><rect x="2" y="28" width="1" height="1" fill="#0A0A0A"/><rect x="3" y="28" width="1" height="1" fill="#0A0A0A"/><rect x="4" y="28" width="1" height="1" fill="#0A0A0A"/><rect x="5" y="28" width="1" height="1" fill="#0A0A0A"/><rect x="6" y="28" width="1" height="1" fill="#0A0A0A"/><rect x="8" y="28" width="1" height="1" fill="#0A0A0A"/><rect x="10" y="28" width="1" height="1" fill="#0A0A0A"/><rect x="14" y="28" width="1" height="1" fill="#0A0A0A"/><rect x="16" y="28" width="1" height="1" fill="#0A0A0A"/><rect x="19" y="28" width="1" height="1" fill="#0A0A0A"/><rect x="20" y="28" width="1" height="1" fill="#0A0A0A"/><rect x="21" y="28" width="1" height="1" fill="#0A0A0A"/><rect x="23" y="28" width="1" height="1" fill="#0A0A0A"/><rect x="24" y="28" width="1" height="1" fill="#0A0A0A"/><rect x="28" y="28" width="1" height="1" fill="#0A0A0A"/></g>
  <g transform="translate(1464.80, 760.00) scale(0.026, -0.026)"><path d="M108 -110 412 750H492L188 -110Z" fill="#4A5A62"/></g><g transform="translate(1496.00, 760.00) scale(0.026, -0.026)"><path d="M310 -12Q241 -12 191.0 12.0Q141 36 112.5 76.5Q84 117 80 167L168 173Q176 124 211.5 96.0Q247 68 310 68Q369 68 401.5 85.0Q434 102 434 138Q434 161 423.0 176.0Q412 191 382.0 201.5Q352 212 294 222Q217 236 173.5 256.5Q130 277 112.0 308.0Q94 339 94 382Q94 428 117.0 464.0Q140 500 185.0 521.0Q230 542 295 542Q361 542 405.5 518.5Q450 495 476.0 456.5Q502 418 510 372L422 366Q416 394 399.5 415.5Q383 437 356.5 449.5Q330 462 294 462Q236 462 208.0 439.0Q180 416 180 382Q180 355 193.0 339.0Q206 323 235.0 313.5Q264 304 312 296Q394 283 439.0 262.5Q484 242 502.0 212.0Q520 182 520 138Q520 91 492.5 57.5Q465 24 417.5 6.0Q370 -12 310 -12Z" fill="#4A5A62"/></g><g transform="translate(1511.60, 760.00) scale(0.026, -0.026)"><path d="M314 -12Q240 -12 185.0 22.0Q130 56 100.0 118.5Q70 181 70 265Q70 349 100.0 411.0Q130 473 185.0 507.5Q240 542 314 542Q373 542 419.0 520.5Q465 499 495.0 458.0Q525 417 536 358L448 352Q436 405 400.5 433.5Q365 462 314 462Q241 462 199.5 409.5Q158 357 158 265Q158 173 199.5 120.5Q241 68 314 68Q365 68 402.5 98.0Q440 128 452 188L540 182Q529 123 498.0 79.5Q467 36 420.0 12.0Q373 -12 314 -12Z" fill="#4A5A62"/></g><g transform="translate(1527.20, 760.00) scale(0.026, -0.026)"><path d="M230 -12Q180 -12 140.0 6.0Q100 24 77.0 56.5Q54 89 54 132Q54 200 94.5 237.5Q135 275 222 292L400 328Q400 396 369.5 429.0Q339 462 282 462Q227 462 196.0 437.5Q165 413 153 367L64 374Q79 449 135.5 495.5Q192 542 282 542Q378 542 431.0 484.5Q484 427 484 326V106Q484 88 492.0 81.0Q500 74 516 74H550V0Q544 -1 531.0 -1.5Q518 -2 506 -2Q472 -2 448.5 9.0Q425 20 413.0 44.5Q401 69 400 108H416Q409 74 382.5 46.5Q356 19 316.0 3.5Q276 -12 230 -12ZM238 62Q292 62 328.0 80.5Q364 99 382.0 132.5Q400 166 400 210V256L238 224Q184 214 163.0 193.5Q142 173 142 140Q142 103 167.5 82.5Q193 62 238 62Z" fill="#4A5A62"/></g><g transform="translate(1542.80, 760.00) scale(0.026, -0.026)"><path d="M84 0V530H161L164 395L154 404Q164 451 190.5 481.5Q217 512 254.0 527.0Q291 542 332 542Q393 542 433.5 515.0Q474 488 495.0 442.5Q516 397 516 341V0H432V317Q432 391 403.0 429.5Q374 468 314 468Q273 468 240.0 450.5Q207 433 187.5 399.5Q168 366 168 317V0Z" fill="#4A5A62"/></g><g transform="translate(1574.00, 760.00) scale(0.026, -0.026)"><path d="M378 0Q301 0 263.0 36.0Q225 72 225 146V654H309V146Q309 109 326.0 91.5Q343 74 378 74H520V0ZM50 456V530H520V456Z" fill="#4A5A62"/></g><g transform="translate(1589.60, 760.00) scale(0.026, -0.026)"><path d="M300 -12Q227 -12 172.5 22.0Q118 56 88.0 118.5Q58 181 58 265Q58 350 88.0 412.0Q118 474 172.5 508.0Q227 542 300 542Q373 542 427.5 508.0Q482 474 512.0 412.0Q542 350 542 265Q542 181 512.0 118.5Q482 56 427.5 22.0Q373 -12 300 -12ZM300 68Q373 68 413.5 120.5Q454 173 454 265Q454 357 413.5 409.5Q373 462 300 462Q227 462 186.5 409.5Q146 357 146 265Q146 173 186.5 120.5Q227 68 300 68Z" fill="#4A5A62"/></g><g transform="translate(1620.80, 760.00) scale(0.026, -0.026)"><path d="M314 -12Q240 -12 185.0 22.0Q130 56 100.0 118.5Q70 181 70 265Q70 349 100.0 411.0Q130 473 185.0 507.5Q240 542 314 542Q373 542 419.0 520.5Q465 499 495.0 458.0Q525 417 536 358L448 352Q436 405 400.5 433.5Q365 462 314 462Q241 462 199.5 409.5Q158 357 158 265Q158 173 199.5 120.5Q241 68 314 68Q365 68 402.5 98.0Q440 128 452 188L540 182Q529 123 498.0 79.5Q467 36 420.0 12.0Q373 -12 314 -12Z" fill="#4A5A62"/></g><g transform="translate(1636.40, 760.00) scale(0.026, -0.026)"><path d="M300 -12Q227 -12 172.5 22.0Q118 56 88.0 118.5Q58 181 58 265Q58 350 88.0 412.0Q118 474 172.5 508.0Q227 542 300 542Q373 542 427.5 508.0Q482 474 512.0 412.0Q542 350 542 265Q542 181 512.0 118.5Q482 56 427.5 22.0Q373 -12 300 -12ZM300 68Q373 68 413.5 120.5Q454 173 454 265Q454 357 413.5 409.5Q373 462 300 462Q227 462 186.5 409.5Q146 357 146 265Q146 173 186.5 120.5Q227 68 300 68Z" fill="#4A5A62"/></g><g transform="translate(1652.00, 760.00) scale(0.026, -0.026)"><path d="M84 0V530H161L164 395L154 404Q164 451 190.5 481.5Q217 512 254.0 527.0Q291 542 332 542Q393 542 433.5 515.0Q474 488 495.0 442.5Q516 397 516 341V0H432V317Q432 391 403.0 429.5Q374 468 314 468Q273 468 240.0 450.5Q207 433 187.5 399.5Q168 366 168 317V0Z" fill="#4A5A62"/></g><g transform="translate(1667.60, 760.00) scale(0.026, -0.026)"><path d="M84 0V530H161L164 395L154 404Q164 451 190.5 481.5Q217 512 254.0 527.0Q291 542 332 542Q393 542 433.5 515.0Q474 488 495.0 442.5Q516 397 516 341V0H432V317Q432 391 403.0 429.5Q374 468 314 468Q273 468 240.0 450.5Q207 433 187.5 399.5Q168 366 168 317V0Z" fill="#4A5A62"/></g><g transform="translate(1683.20, 760.00) scale(0.026, -0.026)"><path d="M306 -12Q231 -12 176.5 22.0Q122 56 92.5 118.5Q63 181 63 265Q63 349 92.5 411.0Q122 473 175.5 507.5Q229 542 302 542Q371 542 424.0 509.5Q477 477 507.0 415.0Q537 353 537 264V239H151Q156 154 196.5 111.0Q237 68 306 68Q358 68 391.5 92.5Q425 117 438 157L528 150Q507 79 448.5 33.5Q390 -12 306 -12ZM151 313H445Q439 390 400.0 426.0Q361 462 302 462Q241 462 201.5 424.5Q162 387 151 313Z" fill="#4A5A62"/></g><g transform="translate(1698.80, 760.00) scale(0.026, -0.026)"><path d="M314 -12Q240 -12 185.0 22.0Q130 56 100.0 118.5Q70 181 70 265Q70 349 100.0 411.0Q130 473 185.0 507.5Q240 542 314 542Q373 542 419.0 520.5Q465 499 495.0 458.0Q525 417 536 358L448 352Q436 405 400.5 433.5Q365 462 314 462Q241 462 199.5 409.5Q158 357 158 265Q158 173 199.5 120.5Q241 68 314 68Q365 68 402.5 98.0Q440 128 452 188L540 182Q529 123 498.0 79.5Q467 36 420.0 12.0Q373 -12 314 -12Z" fill="#4A5A62"/></g><g transform="translate(1714.40, 760.00) scale(0.026, -0.026)"><path d="M378 0Q301 0 263.0 36.0Q225 72 225 146V654H309V146Q309 109 326.0 91.5Q343 74 378 74H520V0ZM50 456V530H520V456Z" fill="#4A5A62"/></g>
  <g transform="translate(90.00, 1120.00) scale(0.056, -0.056)"><path d="M294.59912109375 -12Q211.599609375 -12 155.79986572265625 11.29998779296875Q100.0001220703125 34.5999755859375 70.40020751953125 75.39996337890625Q40.80029296875 116.199951171875 36.80029296875 168.7999267578125L188.9976806640625 174.199951171875Q195.7977294921875 135.799560546875 220.998046875 115.0992431640625Q246.1983642578125 94.39892578125 295.1990966796875 94.39892578125Q335.399658203125 94.39892578125 357.7000732421875 107.39910888671875Q380.00048828125 120.3992919921875 380.00048828125 147.3997802734375Q380.00048828125 164.199951171875 371.8004150390625 175.50006103515625Q363.600341796875 186.8001708984375 340.30010986328125 195.20025634765625Q316.9998779296875 203.600341796875 271.3994140625 211.200439453125Q186.3997802734375 225.8004150390625 138.0999755859375 246.00042724609375Q89.8001708984375 266.200439453125 69.80023193359375 297.900390625Q49.80029296875 329.600341796875 49.80029296875 376.400146484375Q49.80029296875 453.39990234375 109.5999755859375 500.6998291015625Q169.399658203125 547.999755859375 288.19873046875 547.999755859375Q363.998291015625 547.999755859375 415.39801025390625 524.1997680664062Q466.7977294921875 500.3997802734375 495.297607421875 458.89990234375Q523.7974853515625 417.4000244140625 530.5975341796875 363.600341796875L380.2000732421875 357.600341796875Q376.5999755859375 383.8004150390625 364.49981689453125 402.60052490234375Q352.399658203125 421.400634765625 332.9993896484375 431.500732421875Q313.59912109375 441.600830078125 286.5987548828125 441.600830078125Q246.998046875 441.600830078125 225.69781494140625 425.30059814453125Q204.3975830078125 409.0003662109375 204.3975830078125 381.60009765625Q204.3975830078125 362.1998291015625 213.897705078125 349.59967041015625Q223.3978271484375 336.99951171875 245.3980712890625 329.19940185546875Q267.3983154296875 321.3992919921875 304.19873046875 315.7991943359375Q389.99853515625 303.59912109375 440.3983154296875 282.399169921875Q490.798095703125 261.19921875 512.6979370117188 228.89935302734375Q534.5977783203125 196.5994873046875 534.5977783203125 150.399658203125Q534.5977783203125 98.3997802734375 504.99786376953125 62.099853515625Q475.39794921875 25.7999267578125 421.6982421875 6.89996337890625Q367.99853515625 -12 294.59912109375 -12Z" fill="#0A0A0A"/></g><g transform="translate(121.98, 1120.00) scale(0.056, -0.056)"><path d="M309.1990966796875 -12Q227.199462890625 -12 165.89971923828125 22.5999755859375Q104.5999755859375 57.199951171875 70.70013427734375 120.2999267578125Q36.80029296875 183.39990234375 36.80029296875 267.9998779296875Q36.80029296875 352.9998779296875 70.70013427734375 415.599853515625Q104.5999755859375 478.1998291015625 165.89971923828125 513.0997924804688Q227.199462890625 547.999755859375 309.1990966796875 547.999755859375Q391.19873046875 547.999755859375 452.2984619140625 513.0997924804688Q513.398193359375 478.1998291015625 547.2980346679688 415.599853515625Q581.1978759765625 352.9998779296875 581.1978759765625 267.9998779296875Q581.1978759765625 183.39990234375 547.2980346679688 120.2999267578125Q513.398193359375 57.199951171875 452.2984619140625 22.5999755859375Q391.19873046875 -12 309.1990966796875 -12ZM309.1990966796875 103.3985595703125Q365.3997802734375 103.3985595703125 396.00018310546875 146.59893798828125Q426.6005859375 189.79931640625 426.6005859375 267.9998779296875Q426.6005859375 345.6004638671875 396.00018310546875 389.100830078125Q365.3997802734375 432.6011962890625 309.1990966796875 432.6011962890625Q252.9984130859375 432.6011962890625 222.197998046875 389.100830078125Q191.3975830078125 345.6004638671875 191.3975830078125 267.9998779296875Q191.3975830078125 189.79931640625 222.197998046875 146.59893798828125Q252.9984130859375 103.3985595703125 309.1990966796875 103.3985595703125Z" fill="#0A0A0A"/></g><g transform="translate(156.58, 1120.00) scale(0.056, -0.056)"><path d="M205.59912109375 0Q140.39990234375 0 103.000244140625 32.9996337890625Q65.6005859375 65.999267578125 65.6005859375 139.598388671875V710H215.597900390625V155.5980224609375Q215.597900390625 132.3983154296875 226.79779052734375 122.098388671875Q237.9976806640625 111.7984619140625 258.7974853515625 111.7984619140625H294.597900390625V0Z" fill="#0A0A0A"/></g><g transform="translate(174.11, 1120.00) scale(0.056, -0.056)"><path d="M65.6005859375 0V535.999755859375H215.597900390625V0ZM63.0006103515625 601.6004638671875V722.3995361328125H218.1978759765625V601.6004638671875Z" fill="#0A0A0A"/></g><g transform="translate(189.85, 1120.00) scale(0.056, -0.056)"><path d="M256.6004638671875 -12Q188.8004150390625 -12 139.5003662109375 22.29998779296875Q90.2003173828125 56.5999755859375 63.50030517578125 119.49993896484375Q36.80029296875 182.39990234375 36.80029296875 267.9998779296875Q36.80029296875 353.599853515625 63.80029296875 416.49981689453125Q90.80029296875 479.3997802734375 140.40032958984375 513.6997680664062Q190.0003662109375 547.999755859375 256.6004638671875 547.999755859375Q313.80029296875 547.999755859375 355.400390625 524.5997924804688Q397.00048828125 501.1998291015625 418.4005126953125 459.599853515625V710H568.3978271484375V0H424.6005859375L421.6005859375 78.800048828125Q399.6005859375 35.800048828125 356.10052490234375 11.9000244140625Q312.6004638671875 -12 256.6004638671875 -12ZM305.9991455078125 103.3985595703125Q342.1995849609375 103.3985595703125 367.19989013671875 121.998779296875Q392.2001953125 140.5989990234375 405.30035400390625 177.29931640625Q418.4005126953125 213.9996337890625 418.4005126953125 267.9998779296875Q418.4005126953125 322.8001708984375 405.30035400390625 359.30047607421875Q392.2001953125 395.80078125 367.19989013671875 414.20098876953125Q342.1995849609375 432.6011962890625 305.9991455078125 432.6011962890625Q253.3984375 432.6011962890625 222.39801025390625 388.5008544921875Q191.3975830078125 344.4005126953125 191.3975830078125 267.9998779296875Q191.3975830078125 193.19921875 222.697998046875 148.29888916015625Q253.9984130859375 103.3985595703125 305.9991455078125 103.3985595703125Z" fill="#0A0A0A"/></g><g transform="translate(225.35, 1120.00) scale(0.056, -0.056)"><path d="M184 0Q138 0 109.0 24.0Q80 48 80 100V710H164V107Q164 91 172.5 82.5Q181 74 197 74H243V0Z" fill="#0A0A0A"/></g><g transform="translate(240.30, 1120.00) scale(0.056, -0.056)"><path d="M223 -12Q141 -12 92.5 26.0Q44 64 44 132Q44 200 84.0 239.0Q124 278 211 294L399 329Q399 396 367.5 429.0Q336 462 273 462Q218 462 186.0 437.5Q154 413 142 367L53 374Q68 449 125.5 495.5Q183 542 273 542Q375 542 429.0 484.5Q483 427 483 326V107Q483 89 489.5 81.5Q496 74 511 74H532V0Q528 -1 519.0 -1.5Q510 -2 500 -2Q464 -2 441.5 9.5Q419 21 409.0 45.5Q399 70 399 110L409 108Q402 74 375.0 46.5Q348 19 308.0 3.5Q268 -12 223 -12ZM231 62Q284 62 321.5 82.5Q359 103 379.0 138.5Q399 174 399 218V256L227 224Q173 214 152.5 193.5Q132 173 132 140Q132 103 158.5 82.5Q185 62 231 62Z" fill="#0A0A0A"/></g><g transform="translate(271.16, 1120.00) scale(0.056, -0.056)"><path d="M323 -12Q268 -12 225.0 12.5Q182 37 159 80L156 0H80V710H164V456Q184 489 226.0 515.5Q268 542 323 542Q393 542 444.0 508.0Q495 474 523.0 412.0Q551 350 551 265Q551 180 523.0 118.0Q495 56 444.0 22.0Q393 -12 323 -12ZM318 68Q385 68 424.0 121.0Q463 174 463 265Q463 357 424.0 409.5Q385 462 320 462Q271 462 236.0 438.5Q201 415 182.5 371.0Q164 327 164 265Q164 205 182.5 160.5Q201 116 235.5 92.0Q270 68 318 68Z" fill="#0A0A0A"/></g><g transform="translate(304.48, 1120.00) scale(0.056, -0.056)"><path d="M44 0V113H157V0Z" fill="#4A5A62"/></g><g transform="translate(315.74, 1120.00) scale(0.056, -0.056)"><path d="M223 -12Q141 -12 92.5 26.0Q44 64 44 132Q44 200 84.0 239.0Q124 278 211 294L399 329Q399 396 367.5 429.0Q336 462 273 462Q218 462 186.0 437.5Q154 413 142 367L53 374Q68 449 125.5 495.5Q183 542 273 542Q375 542 429.0 484.5Q483 427 483 326V107Q483 89 489.5 81.5Q496 74 511 74H532V0Q528 -1 519.0 -1.5Q510 -2 500 -2Q464 -2 441.5 9.5Q419 21 409.0 45.5Q399 70 399 110L409 108Q402 74 375.0 46.5Q348 19 308.0 3.5Q268 -12 223 -12ZM231 62Q284 62 321.5 82.5Q359 103 379.0 138.5Q399 174 399 218V256L227 224Q173 214 152.5 193.5Q132 173 132 140Q132 103 158.5 82.5Q185 62 231 62Z" fill="#4A5A62"/></g><g transform="translate(346.59, 1120.00) scale(0.056, -0.056)"><path d="M80 0V530H164V0ZM78 613V711H166V613Z" fill="#4A5A62"/></g>
</svg>