<svg xmlns="http://www.w3.org/2000/svg" viewBox="0 0 640 160" width="640" height="160">
  <g fill="#F4F1EA">
    <path transform="translate(111.220, 108) scale(0.08800, -0.08800)" d="M295 -12Q165 -12 104.0 39.0Q43 90 37 169L189 174Q196 136 220.0 115.0Q244 94 295 94Q378 94 378 148Q378 165 370.0 176.0Q362 187 339.0 195.5Q316 204 271 211Q187 226 139.5 246.5Q92 267 72.5 298.5Q53 330 53 376Q53 453 113.0 500.5Q173 548 292 548Q372 548 424.0 524.0Q476 500 502.5 458.0Q529 416 533 364L383 358Q381 395 358.5 418.5Q336 442 290 442Q250 442 229.0 425.5Q208 409 208 382Q208 353 228.5 338.5Q249 324 304 316Q389 303 439.0 282.0Q489 261 510.5 229.0Q532 197 532 150Q532 72 468.0 30.0Q404 -12 295 -12Z"/>
    <path transform="translate(159.620, 108) scale(0.08800, -0.08800)" d="M309 -12Q227 -12 166.0 22.5Q105 57 71.0 120.0Q37 183 37 268Q37 353 71.0 415.5Q105 478 166.0 513.0Q227 548 309 548Q391 548 452.5 513.0Q514 478 547.5 415.5Q581 353 581 268Q581 183 547.5 120.0Q514 57 452.5 22.5Q391 -12 309 -12ZM309 103Q365 103 396.0 146.5Q427 190 427 268Q427 346 396.0 389.5Q365 433 309 433Q253 433 222.0 389.5Q191 346 191 268Q191 190 222.0 146.5Q253 103 309 103Z"/>
    <path transform="translate(212.244, 108) scale(0.08800, -0.08800)" d="M206 0Q140 0 103.0 32.5Q66 65 66 140V710H216V156Q216 132 227.0 122.0Q238 112 259 112H295V0Z"/>
    <path transform="translate(238.028, 108) scale(0.08800, -0.08800)" d="M66 0V536H216V0ZM63 602V722H218V602Z"/>
    <path transform="translate(260.996, 108) scale(0.08800, -0.08800)" d="M257 -12Q189 -12 139.5 22.0Q90 56 63.5 119.0Q37 182 37 268Q37 354 64.0 416.5Q91 479 140.5 513.5Q190 548 257 548Q314 548 355.5 524.5Q397 501 418 460V710H568V0H425L422 79Q399 36 355.5 12.0Q312 -12 257 -12ZM306 103Q360 103 389.0 145.0Q418 187 418 268Q418 350 389.0 391.5Q360 433 306 433Q253 433 222.0 389.0Q191 345 191 268Q191 193 222.5 148.0Q254 103 306 103Z"/>
  </g>
  <g fill="#F4F1EA">
    <path transform="translate(316.788, 108) scale(0.08800, -0.08800)" d="M184 0Q138 0 109.0 24.0Q80 48 80 100V710H164V107Q164 74 197 74H243V0Z"/>
    <path transform="translate(340.284, 108) scale(0.08800, -0.08800)" d="M223 -12Q141 -12 92.5 26.0Q44 64 44 132Q44 200 84.0 239.0Q124 278 211 294L399 329Q399 462 273 462Q218 462 186.0 437.5Q154 413 142 367L53 374Q68 449 125.5 495.5Q183 542 273 542Q375 542 429.0 484.5Q483 427 483 326V107Q483 74 511 74H532V0Q520 -2 500 -2Q454 -2 430.5 16.5Q407 35 401 77L400 82Q380 41 331.0 14.5Q282 -12 223 -12ZM231 62Q311 62 355.0 107.0Q399 152 399 218V256L227 224Q173 214 152.5 193.5Q132 173 132 140Q132 103 158.5 82.5Q185 62 231 62Z"/>
    <path transform="translate(388.772, 108) scale(0.08800, -0.08800)" d="M323 -12Q268 -12 225.0 12.5Q182 37 159 80L156 0H80V710H164V456Q184 489 226.0 515.5Q268 542 323 542Q393 542 444.0 508.0Q495 474 523.0 412.0Q551 350 551 265Q551 180 523.0 118.0Q495 56 444.0 22.0Q393 -12 323 -12ZM318 68Q385 68 424.0 121.0Q463 174 463 265Q463 357 424.0 409.5Q385 462 320 462Q247 462 205.5 409.5Q164 357 164 265Q164 174 205.0 121.0Q246 68 318 68Z"/>
  </g>
  <g fill="#6B8290">
    <path transform="translate(441.132, 108) scale(0.08800, -0.08800)" d="M44 0V113H157V0Z"/>
    <path transform="translate(458.820, 108) scale(0.08800, -0.08800)" d="M223 -12Q141 -12 92.5 26.0Q44 64 44 132Q44 200 84.0 239.0Q124 278 211 294L399 329Q399 462 273 462Q218 462 186.0 437.5Q154 413 142 367L53 374Q68 449 125.5 495.5Q183 542 273 542Q375 542 429.0 484.5Q483 427 483 326V107Q483 74 511 74H532V0Q520 -2 500 -2Q454 -2 430.5 16.5Q407 35 401 77L400 82Q380 41 331.0 14.5Q282 -12 223 -12ZM231 62Q311 62 355.0 107.0Q399 152 399 218V256L227 224Q173 214 152.5 193.5Q132 173 132 140Q132 103 158.5 82.5Q185 62 231 62Z"/>
    <path transform="translate(507.308, 108) scale(0.08800, -0.08800)" d="M80 0V530H164V0ZM78 613V711H166V613Z"/>
  </g>
</svg>
