<svg xmlns="http://www.w3.org/2000/svg" viewBox="0 0 2000 2000" width="2000" height="2000">
  <circle cx="1000.0" cy="1000.0" r="980.0" fill="#4A5A62"/>
  <defs>
    <path id="top-6" d="M 200.0 950.0 A 800.0 800.0 0 0 1 1800.0 950.0" fill="none"/>
  </defs>
  <text font-family="Geist, sans-serif" font-size="68" fill="#F4F1EA" letter-spacing="14" font-weight="500" opacity="0.7">
    <textPath href="#top-6" startOffset="50%" text-anchor="middle">PRODUCTS · VENTURES · SOMETIMES CHAOS</textPath>
  </text>
  <g transform="translate(372.75, 1060.00) scale(0.26, -0.26)"><path d="M295 -12Q165 -12 104.0 39.0Q43 90 37 169L189 174Q196 136 220.0 115.0Q244 94 295 94Q378 94 378 148Q378 165 370.0 176.0Q362 187 339.0 195.5Q316 204 271 211Q187 226 139.5 246.5Q92 267 72.5 298.5Q53 330 53 376Q53 453 113.0 500.5Q173 548 292 548Q372 548 424.0 524.0Q476 500 502.5 458.0Q529 416 533 364L383 358Q381 395 358.5 418.5Q336 442 290 442Q250 442 229.0 425.5Q208 409 208 382Q208 353 228.5 338.5Q249 324 304 316Q389 303 439.0 282.0Q489 261 510.5 229.0Q532 197 532 150Q532 72 468.0 30.0Q404 -12 295 -12Z" fill="#F4F1EA"/></g><g transform="translate(520.95, 1060.00) scale(0.26, -0.26)"><path d="M309 -12Q227 -12 166.0 22.5Q105 57 71.0 120.0Q37 183 37 268Q37 353 71.0 415.5Q105 478 166.0 513.0Q227 548 309 548Q391 548 452.5 513.0Q514 478 547.5 415.5Q581 353 581 268Q581 183 547.5 120.0Q514 57 452.5 22.5Q391 -12 309 -12ZM309 103Q365 103 396.0 146.5Q427 190 427 268Q427 346 396.0 389.5Q365 433 309 433Q253 433 222.0 389.5Q191 346 191 268Q191 190 222.0 146.5Q253 103 309 103Z" fill="#F4F1EA"/></g><g transform="translate(681.63, 1060.00) scale(0.26, -0.26)"><path d="M206 0Q140 0 103.0 32.5Q66 65 66 140V710H216V156Q216 132 227.0 122.0Q238 112 259 112H295V0Z" fill="#F4F1EA"/></g><g transform="translate(763.01, 1060.00) scale(0.26, -0.26)"><path d="M66 0V536H216V0ZM63 602V722H218V602Z" fill="#F4F1EA"/></g><g transform="translate(836.07, 1060.00) scale(0.26, -0.26)"><path d="M257 -12Q189 -12 139.5 22.0Q90 56 63.5 119.0Q37 182 37 268Q37 354 64.0 416.5Q91 479 140.5 513.5Q190 548 257 548Q314 548 355.5 524.5Q397 501 418 460V710H568V0H425L422 79Q399 36 355.5 12.0Q312 -12 257 -12ZM306 103Q360 103 389.0 145.0Q418 187 418 268Q418 350 389.0 391.5Q360 433 306 433Q253 433 222.0 389.0Q191 345 191 268Q191 193 222.5 148.0Q254 103 306 103Z" fill="#F4F1EA"/></g><g transform="translate(1000.91, 1060.00) scale(0.26, -0.26)"><path d="M184 0Q138 0 109.0 24.0Q80 48 80 100V710H164V107Q164 74 197 74H243V0Z" fill="#F4F1EA"/></g><g transform="translate(1070.33, 1060.00) scale(0.26, -0.26)"><path d="M223 -12Q141 -12 92.5 26.0Q44 64 44 132Q44 200 84.0 239.0Q124 278 211 294L399 329Q399 462 273 462Q218 462 186.0 437.5Q154 413 142 367L53 374Q68 449 125.5 495.5Q183 542 273 542Q375 542 429.0 484.5Q483 427 483 326V107Q483 74 511 74H532V0Q520 -2 500 -2Q454 -2 430.5 16.5Q407 35 401 77L400 82Q380 41 331.0 14.5Q282 -12 223 -12ZM231 62Q311 62 355.0 107.0Q399 152 399 218V256L227 224Q173 214 152.5 193.5Q132 173 132 140Q132 103 158.5 82.5Q185 62 231 62Z" fill="#F4F1EA"/></g><g transform="translate(1213.59, 1060.00) scale(0.26, -0.26)"><path d="M323 -12Q268 -12 225.0 12.5Q182 37 159 80L156 0H80V710H164V456Q184 489 226.0 515.5Q268 542 323 542Q393 542 444.0 508.0Q495 474 523.0 412.0Q551 350 551 265Q551 180 523.0 118.0Q495 56 444.0 22.0Q393 -12 323 -12ZM318 68Q385 68 424.0 121.0Q463 174 463 265Q463 357 424.0 409.5Q385 462 320 462Q247 462 205.5 409.5Q164 357 164 265Q164 174 205.0 121.0Q246 68 318 68Z" fill="#F4F1EA"/></g><g transform="translate(1368.29, 1060.00) scale(0.26, -0.26)"><path d="M44 0V113H157V0Z" fill="#F4F1EA"/></g><g transform="translate(1420.55, 1060.00) scale(0.26, -0.26)"><path d="M223 -12Q141 -12 92.5 26.0Q44 64 44 132Q44 200 84.0 239.0Q124 278 211 294L399 329Q399 462 273 462Q218 462 186.0 437.5Q154 413 142 367L53 374Q68 449 125.5 495.5Q183 542 273 542Q375 542 429.0 484.5Q483 427 483 326V107Q483 74 511 74H532V0Q520 -2 500 -2Q454 -2 430.5 16.5Q407 35 401 77L400 82Q380 41 331.0 14.5Q282 -12 223 -12ZM231 62Q311 62 355.0 107.0Q399 152 399 218V256L227 224Q173 214 152.5 193.5Q132 173 132 140Q132 103 158.5 82.5Q185 62 231 62Z" fill="#F4F1EA"/></g><g transform="translate(1563.81, 1060.00) scale(0.26, -0.26)"><path d="M80 0V530H164V0ZM78 613V711H166V613Z" fill="#F4F1EA"/></g>
  <line x1="800.0" y1="1150.0" x2="1200.0" y2="1150.0" stroke="#F4F1EA" stroke-width="3" opacity="0.4"/>
  <g opacity="0.7"><g transform="translate(641.14, 1230.00) scale(0.062, -0.062)"><path d="M40 -110 335 750H415L120 -110Z" fill="#F4F1EA"/></g><g transform="translate(686.40, 1230.00) scale(0.062, -0.062)"><path d="M274 0Q202 0 167.5 33.0Q133 66 133 136V456H55V530H133V654H217V530H358V456H217V138Q217 102 233.0 88.0Q249 74 282 74H358V0Z" fill="#F4F1EA"/></g><g transform="translate(710.71, 1230.00) scale(0.062, -0.062)"><path d="M80 0V710H164V447Q185 496 227.0 519.0Q269 542 324 542Q410 542 455.5 486.0Q501 430 501 341V0H417V317Q417 468 306 468Q242 468 203.0 429.0Q164 390 164 316V0Z" fill="#F4F1EA"/></g><g transform="translate(746.73, 1230.00) scale(0.062, -0.062)"><path d="M287 -12Q212 -12 157.5 22.0Q103 56 73.5 118.5Q44 181 44 265Q44 349 73.5 411.0Q103 473 156.5 507.5Q210 542 283 542Q352 542 405.0 509.5Q458 477 487.5 415.0Q517 353 517 264V239H132Q137 154 177.5 111.0Q218 68 287 68Q339 68 372.5 92.5Q406 117 419 157L509 150Q488 79 429.5 33.5Q371 -12 287 -12ZM132 313H425Q419 390 380.5 426.0Q342 462 283 462Q222 462 182.5 424.5Q143 387 132 313Z" fill="#F4F1EA"/></g><g transform="translate(797.01, 1230.00) scale(0.062, -0.062)"><path d="M80 0V530H157L159 435Q180 490 223.5 516.0Q267 542 322 542Q383 542 422.5 515.0Q462 488 481.5 442.5Q501 397 501 341V0H417V317Q417 391 390.5 429.5Q364 468 304 468Q243 468 203.5 429.5Q164 391 164 317V0Z" fill="#F4F1EA"/></g><g transform="translate(833.03, 1230.00) scale(0.062, -0.062)"><path d="M287 -12Q214 -12 159.0 22.0Q104 56 74.0 118.5Q44 181 44 265Q44 350 74.0 412.0Q104 474 159.0 508.0Q214 542 287 542Q360 542 414.5 508.0Q469 474 499.0 412.0Q529 350 529 265Q529 181 499.0 118.5Q469 56 414.5 22.0Q360 -12 287 -12ZM287 68Q360 68 400.5 120.5Q441 173 441 265Q441 357 400.5 409.5Q360 462 287 462Q214 462 173.0 409.5Q132 357 132 265Q132 173 173.0 120.5Q214 68 287 68Z" fill="#F4F1EA"/></g><g transform="translate(868.56, 1230.00) scale(0.062, -0.062)"><path d="M80 0V530H154L157 432Q184 530 283 530H335V450H284Q164 450 164 320V0Z" fill="#F4F1EA"/></g><g transform="translate(892.06, 1230.00) scale(0.062, -0.062)"><path d="M268 -12Q199 -12 148.5 22.0Q98 56 71.0 118.0Q44 180 44 265Q44 350 71.0 412.0Q98 474 148.5 508.0Q199 542 268 542Q321 542 365.0 519.5Q409 497 431 456V710H515V0H439L436 80Q414 37 369.0 12.5Q324 -12 268 -12ZM285 68Q356 68 393.5 121.0Q431 174 431 265Q431 357 393.5 409.5Q356 462 285 462Q215 462 173.5 409.5Q132 357 132 265Q132 174 173.5 121.0Q215 68 285 68Z" fill="#F4F1EA"/></g><g transform="translate(928.95, 1230.00) scale(0.062, -0.062)"><path d="M80 0V530H164V0ZM78 613V711H166V613Z" fill="#F4F1EA"/></g><g transform="translate(944.08, 1230.00) scale(0.062, -0.062)"><path d="M287 -12Q213 -12 158.5 22.0Q104 56 74.0 118.5Q44 181 44 265Q44 349 74.0 411.0Q104 473 158.5 507.5Q213 542 287 542Q379 542 439.0 494.5Q499 447 512 358L424 352Q415 405 378.0 433.5Q341 462 287 462Q214 462 173.0 409.5Q132 357 132 265Q132 173 173.0 120.5Q214 68 287 68Q341 68 378.0 98.0Q415 128 424 188L512 182Q499 94 439.0 41.0Q379 -12 287 -12Z" fill="#F4F1EA"/></g><g transform="translate(977.93, 1230.00) scale(0.062, -0.062)"><path d="M273 -12Q164 -12 107.0 38.5Q50 89 44 167L132 173Q140 125 171.5 96.5Q203 68 273 68Q327 68 356.5 85.5Q386 103 386 142Q386 163 376.5 177.0Q367 191 339.0 201.5Q311 212 257 222Q183 236 141.0 257.0Q99 278 82.0 308.0Q65 338 65 380Q65 451 117.5 496.5Q170 542 266 542Q336 542 380.5 517.5Q425 493 448.0 454.0Q471 415 476 372L388 366Q384 404 356.5 433.0Q329 462 264 462Q207 462 180.0 440.0Q153 418 153 384Q153 345 178.0 326.5Q203 308 273 296Q351 283 395.0 263.0Q439 243 456.5 213.5Q474 184 474 142Q474 69 417.5 28.5Q361 -12 273 -12Z" fill="#F4F1EA"/></g><g transform="translate(1025.67, 1230.00) scale(0.062, -0.062)"><path d="M44 253V331H863V253Z" fill="#F4F1EA"/></g><g transform="translate(1097.40, 1230.00) scale(0.062, -0.062)"><path d="M287 -12Q212 -12 157.5 22.0Q103 56 73.5 118.5Q44 181 44 265Q44 349 73.5 411.0Q103 473 156.5 507.5Q210 542 283 542Q352 542 405.0 509.5Q458 477 487.5 415.0Q517 353 517 264V239H132Q137 154 177.5 111.0Q218 68 287 68Q339 68 372.5 92.5Q406 117 419 157L509 150Q488 79 429.5 33.5Q371 -12 287 -12ZM132 313H425Q419 390 380.5 426.0Q342 462 283 462Q222 462 182.5 424.5Q143 387 132 313Z" fill="#F4F1EA"/></g><g transform="translate(1132.18, 1230.00) scale(0.062, -0.062)"><path d="M273 -12Q164 -12 107.0 38.5Q50 89 44 167L132 173Q140 125 171.5 96.5Q203 68 273 68Q327 68 356.5 85.5Q386 103 386 142Q386 163 376.5 177.0Q367 191 339.0 201.5Q311 212 257 222Q183 236 141.0 257.0Q99 278 82.0 308.0Q65 338 65 380Q65 451 117.5 496.5Q170 542 266 542Q336 542 380.5 517.5Q425 493 448.0 454.0Q471 415 476 372L388 366Q384 404 356.5 433.0Q329 462 264 462Q207 462 180.0 440.0Q153 418 153 384Q153 345 178.0 326.5Q203 308 273 296Q351 283 395.0 263.0Q439 243 456.5 213.5Q474 184 474 142Q474 69 417.5 28.5Q361 -12 273 -12Z" fill="#F4F1EA"/></g><g transform="translate(1164.42, 1230.00) scale(0.062, -0.062)"><path d="M274 0Q202 0 167.5 33.0Q133 66 133 136V456H55V530H133V654H217V530H358V456H217V138Q217 102 233.0 88.0Q249 74 282 74H358V0Z" fill="#F4F1EA"/></g><g transform="translate(1204.23, 1230.00) scale(0.062, -0.062)"><path d="M60 0Q60 75 83.5 135.5Q107 196 166.5 251.0Q226 306 332 362Q381 388 411.0 410.0Q441 432 455.0 457.0Q469 482 469 518Q469 573 433.5 607.5Q398 642 327 642Q252 642 208.5 603.0Q165 564 154 492L64 498Q76 602 144.0 664.0Q212 726 327 726Q437 726 498.0 669.0Q559 612 559 520Q559 466 541.0 426.5Q523 387 480.5 353.0Q438 319 364 280Q268 229 218.5 177.0Q169 125 166 84H559V0Z" fill="#F4F1EA"/></g><g transform="translate(1242.61, 1230.00) scale(0.062, -0.062)"><path d="M331 -16Q245 -16 182.0 29.0Q119 74 84.5 157.0Q50 240 50 354Q50 468 84.5 551.5Q119 635 182.0 680.5Q245 726 331 726Q418 726 481.0 680.5Q544 635 578.5 552.0Q613 469 613 354Q613 240 578.5 157.0Q544 74 481.0 29.0Q418 -16 331 -16ZM331 68Q423 68 473.0 142.5Q523 217 523 354Q523 492 473.0 567.0Q423 642 331 642Q240 642 190.0 567.0Q140 492 140 354Q140 217 190.0 142.5Q240 68 331 68Z" fill="#F4F1EA"/></g><g transform="translate(1283.71, 1230.00) scale(0.062, -0.062)"><path d="M60 0Q60 75 83.5 135.5Q107 196 166.5 251.0Q226 306 332 362Q381 388 411.0 410.0Q441 432 455.0 457.0Q469 482 469 518Q469 573 433.5 607.5Q398 642 327 642Q252 642 208.5 603.0Q165 564 154 492L64 498Q76 602 144.0 664.0Q212 726 327 726Q437 726 498.0 669.0Q559 612 559 520Q559 466 541.0 426.5Q523 387 480.5 353.0Q438 319 364 280Q268 229 218.5 177.0Q169 125 166 84H559V0Z" fill="#F4F1EA"/></g><g transform="translate(1322.09, 1230.00) scale(0.062, -0.062)"><path d="M302 -16Q182 -16 116.0 66.0Q50 148 50 300Q50 388 64.5 465.0Q79 542 111.5 600.5Q144 659 197.5 692.5Q251 726 330 726Q425 726 477.0 679.5Q529 633 550 558L460 550Q448 592 418.5 617.0Q389 642 330 642Q250 642 201.0 580.0Q152 518 141 394L140 387Q166 426 211.5 452.0Q257 478 318 478Q388 478 441.0 448.0Q494 418 523.5 363.5Q553 309 553 236Q553 158 521.0 101.5Q489 45 432.5 14.5Q376 -16 302 -16ZM304 68Q374 68 418.5 112.5Q463 157 463 236Q463 310 421.0 353.0Q379 396 312 396Q264 396 226.0 376.5Q188 357 166.0 321.0Q144 285 144 236Q144 163 187.5 115.5Q231 68 304 68Z" fill="#F4F1EA"/></g></g>
</svg>