<svg xmlns="http://www.w3.org/2000/svg" viewBox="0 0 1820 1220" width="1820" height="1220">
  <rect width="1820" height="1220" fill="#F4F1EA"/>
  <g transform="translate(90.00, 110.00) scale(0.032, -0.032)"><path d="M108 -110 412 750H492L188 -110Z" fill="#4A5A62"/></g><g transform="translate(128.40, 110.00) scale(0.032, -0.032)"><path d="M230 -12Q180 -12 140.0 6.0Q100 24 77.0 56.5Q54 89 54 132Q54 200 94.5 237.5Q135 275 222 292L400 328Q400 396 369.5 429.0Q339 462 282 462Q227 462 196.0 437.5Q165 413 153 367L64 374Q79 449 135.5 495.5Q192 542 282 542Q378 542 431.0 484.5Q484 427 484 326V106Q484 88 492.0 81.0Q500 74 516 74H550V0Q544 -1 531.0 -1.5Q518 -2 506 -2Q472 -2 448.5 9.0Q425 20 413.0 44.5Q401 69 400 108H416Q409 74 382.5 46.5Q356 19 316.0 3.5Q276 -12 230 -12ZM238 62Q292 62 328.0 80.5Q364 99 382.0 132.5Q400 166 400 210V256L238 224Q184 214 163.0 193.5Q142 173 142 140Q142 103 167.5 82.5Q193 62 238 62Z" fill="#4A5A62"/></g><g transform="translate(166.80, 110.00) scale(0.032, -0.032)"><path d="M84 0V530H161L164 395L154 404Q164 451 190.5 481.5Q217 512 254.0 527.0Q291 542 332 542Q393 542 433.5 515.0Q474 488 495.0 442.5Q516 397 516 341V0H432V317Q432 391 403.0 429.5Q374 468 314 468Q273 468 240.0 450.5Q207 433 187.5 399.5Q168 366 168 317V0Z" fill="#4A5A62"/></g><g transform="translate(186.00, 110.00) scale(0.032, -0.032)"><path d="M300 -12Q227 -12 172.5 22.0Q118 56 88.0 118.5Q58 181 58 265Q58 350 88.0 412.0Q118 474 172.5 508.0Q227 542 300 542Q373 542 427.5 508.0Q482 474 512.0 412.0Q542 350 542 265Q542 181 512.0 118.5Q482 56 427.5 22.0Q373 -12 300 -12ZM300 68Q373 68 413.5 120.5Q454 173 454 265Q454 357 413.5 409.5Q373 462 300 462Q227 462 186.5 409.5Q146 357 146 265Q146 173 186.5 120.5Q227 68 300 68Z" fill="#4A5A62"/></g><g transform="translate(205.20, 110.00) scale(0.032, -0.032)"><path d="M90 0V74H269L228 34V497L269 456H90V530H298L306 388L298 394Q306 463 340.0 496.5Q374 530 431 530H540V454H432Q393 454 366.5 438.5Q340 423 326.0 393.5Q312 364 312 320V34L272 74H480V0Z" fill="#4A5A62"/></g><g transform="translate(224.40, 110.00) scale(0.032, -0.032)"><path d="M267 -12Q197 -12 146.0 22.0Q95 56 67.5 118.0Q40 180 40 265Q40 350 67.5 412.0Q95 474 146.0 508.0Q197 542 267 542Q310 542 344.5 526.0Q379 510 402.5 486.0Q426 462 435 437L426 416V710H510V0H434L429 120L442 105Q430 69 404.5 42.5Q379 16 344.0 2.0Q309 -12 267 -12ZM272 68Q320 68 354.5 92.0Q389 116 407.5 160.5Q426 205 426 265Q426 327 407.5 371.0Q389 415 354.0 438.5Q319 462 270 462Q205 462 166.5 409.5Q128 357 128 265Q128 174 166.5 121.0Q205 68 272 68Z" fill="#4A5A62"/></g><g transform="translate(243.60, 110.00) scale(0.032, -0.032)"><path d="M80 0V74H293V497L334 456H90V530H377V74H560V0H377H293ZM285 613V711H373V613Z" fill="#4A5A62"/></g><g transform="translate(262.80, 110.00) scale(0.032, -0.032)"><path d="M314 -12Q240 -12 185.0 22.0Q130 56 100.0 118.5Q70 181 70 265Q70 349 100.0 411.0Q130 473 185.0 507.5Q240 542 314 542Q373 542 419.0 520.5Q465 499 495.0 458.0Q525 417 536 358L448 352Q436 405 400.5 433.5Q365 462 314 462Q241 462 199.5 409.5Q158 357 158 265Q158 173 199.5 120.5Q241 68 314 68Q365 68 402.5 98.0Q440 128 452 188L540 182Q529 123 498.0 79.5Q467 36 420.0 12.0Q373 -12 314 -12Z" fill="#4A5A62"/></g><g transform="translate(301.20, 110.00) scale(0.032, -0.032)"><path d="M247 0 50 530H142L300 86L458 530H550L353 0Z" fill="#4A5A62"/></g><g transform="translate(320.40, 110.00) scale(0.032, -0.032)"><path d="M306 -12Q231 -12 176.5 22.0Q122 56 92.5 118.5Q63 181 63 265Q63 349 92.5 411.0Q122 473 175.5 507.5Q229 542 302 542Q371 542 424.0 509.5Q477 477 507.0 415.0Q537 353 537 264V239H151Q156 154 196.5 111.0Q237 68 306 68Q358 68 391.5 92.5Q425 117 438 157L528 150Q507 79 448.5 33.5Q390 -12 306 -12ZM151 313H445Q439 390 400.0 426.0Q361 462 302 462Q241 462 201.5 424.5Q162 387 151 313Z" fill="#4A5A62"/></g><g transform="translate(339.60, 110.00) scale(0.032, -0.032)"><path d="M84 0V530H161L164 395L154 404Q164 451 190.5 481.5Q217 512 254.0 527.0Q291 542 332 542Q393 542 433.5 515.0Q474 488 495.0 442.5Q516 397 516 341V0H432V317Q432 391 403.0 429.5Q374 468 314 468Q273 468 240.0 450.5Q207 433 187.5 399.5Q168 366 168 317V0Z" fill="#4A5A62"/></g><g transform="translate(358.80, 110.00) scale(0.032, -0.032)"><path d="M378 0Q301 0 263.0 36.0Q225 72 225 146V654H309V146Q309 109 326.0 91.5Q343 74 378 74H520V0ZM50 456V530H520V456Z" fill="#4A5A62"/></g><g transform="translate(378.00, 110.00) scale(0.032, -0.032)"><path d="M263 -12Q184 -12 137.0 41.5Q90 95 90 189V530H174V212Q174 135 201.5 98.5Q229 62 286 62Q348 62 384.0 102.5Q420 143 420 214V530H504V0H424V131L437 124Q421 59 376.0 23.5Q331 -12 263 -12Z" fill="#4A5A62"/></g><g transform="translate(397.20, 110.00) scale(0.032, -0.032)"><path d="M90 0V74H269L228 34V497L269 456H90V530H298L306 388L298 394Q306 463 340.0 496.5Q374 530 431 530H540V454H432Q393 454 366.5 438.5Q340 423 326.0 393.5Q312 364 312 320V34L272 74H480V0Z" fill="#4A5A62"/></g><g transform="translate(416.40, 110.00) scale(0.032, -0.032)"><path d="M306 -12Q231 -12 176.5 22.0Q122 56 92.5 118.5Q63 181 63 265Q63 349 92.5 411.0Q122 473 175.5 507.5Q229 542 302 542Q371 542 424.0 509.5Q477 477 507.0 415.0Q537 353 537 264V239H151Q156 154 196.5 111.0Q237 68 306 68Q358 68 391.5 92.5Q425 117 438 157L528 150Q507 79 448.5 33.5Q390 -12 306 -12ZM151 313H445Q439 390 400.0 426.0Q361 462 302 462Q241 462 201.5 424.5Q162 387 151 313Z" fill="#4A5A62"/></g><g transform="translate(454.80, 110.00) scale(0.032, -0.032)"><path d="M273 30V568Q273 600 255.0 618.0Q237 636 205 636H80V710H209Q282 710 319.5 672.5Q357 635 357 562V30ZM60 0V74H540V0Z" fill="#4A5A62"/></g><g transform="translate(474.00, 110.00) scale(0.032, -0.032)"><path d="M230 -12Q180 -12 140.0 6.0Q100 24 77.0 56.5Q54 89 54 132Q54 200 94.5 237.5Q135 275 222 292L400 328Q400 396 369.5 429.0Q339 462 282 462Q227 462 196.0 437.5Q165 413 153 367L64 374Q79 449 135.5 495.5Q192 542 282 542Q378 542 431.0 484.5Q484 427 484 326V106Q484 88 492.0 81.0Q500 74 516 74H550V0Q544 -1 531.0 -1.5Q518 -2 506 -2Q472 -2 448.5 9.0Q425 20 413.0 44.5Q401 69 400 108H416Q409 74 382.5 46.5Q356 19 316.0 3.5Q276 -12 230 -12ZM238 62Q292 62 328.0 80.5Q364 99 382.0 132.5Q400 166 400 210V256L238 224Q184 214 163.0 193.5Q142 173 142 140Q142 103 167.5 82.5Q193 62 238 62Z" fill="#4A5A62"/></g><g transform="translate(493.20, 110.00) scale(0.032, -0.032)"><path d="M333 -12Q291 -12 256.0 2.0Q221 16 196.0 42.5Q171 69 158 105L171 120L166 0H90V710H174V416L165 437Q174 462 197.5 486.0Q221 510 256.0 526.0Q291 542 333 542Q403 542 454.0 508.0Q505 474 532.5 412.0Q560 350 560 265Q560 180 532.5 118.0Q505 56 454.0 22.0Q403 -12 333 -12ZM328 68Q395 68 433.5 121.0Q472 174 472 265Q472 357 433.5 409.5Q395 462 330 462Q281 462 246.0 438.5Q211 415 192.5 371.0Q174 327 174 265Q174 205 192.5 160.5Q211 116 245.5 92.0Q280 68 328 68Z" fill="#4A5A62"/></g>
  <g transform="translate(427.40, 580.00) scale(0.2, -0.2)"><path d="M294.59912109375 -12Q211.599609375 -12 155.79986572265625 11.29998779296875Q100.0001220703125 34.5999755859375 70.40020751953125 75.39996337890625Q40.80029296875 116.199951171875 36.80029296875 168.7999267578125L188.9976806640625 174.199951171875Q195.7977294921875 135.799560546875 220.998046875 115.0992431640625Q246.1983642578125 94.39892578125 295.1990966796875 94.39892578125Q335.399658203125 94.39892578125 357.7000732421875 107.39910888671875Q380.00048828125 120.3992919921875 380.00048828125 147.3997802734375Q380.00048828125 164.199951171875 371.8004150390625 175.50006103515625Q363.600341796875 186.8001708984375 340.30010986328125 195.20025634765625Q316.9998779296875 203.600341796875 271.3994140625 211.200439453125Q186.3997802734375 225.8004150390625 138.0999755859375 246.00042724609375Q89.8001708984375 266.200439453125 69.80023193359375 297.900390625Q49.80029296875 329.600341796875 49.80029296875 376.400146484375Q49.80029296875 453.39990234375 109.5999755859375 500.6998291015625Q169.399658203125 547.999755859375 288.19873046875 547.999755859375Q363.998291015625 547.999755859375 415.39801025390625 524.1997680664062Q466.7977294921875 500.3997802734375 495.297607421875 458.89990234375Q523.7974853515625 417.4000244140625 530.5975341796875 363.600341796875L380.2000732421875 357.600341796875Q376.5999755859375 383.8004150390625 364.49981689453125 402.60052490234375Q352.399658203125 421.400634765625 332.9993896484375 431.500732421875Q313.59912109375 441.600830078125 286.5987548828125 441.600830078125Q246.998046875 441.600830078125 225.69781494140625 425.30059814453125Q204.3975830078125 409.0003662109375 204.3975830078125 381.60009765625Q204.3975830078125 362.1998291015625 213.897705078125 349.59967041015625Q223.3978271484375 336.99951171875 245.3980712890625 329.19940185546875Q267.3983154296875 321.3992919921875 304.19873046875 315.7991943359375Q389.99853515625 303.59912109375 440.3983154296875 282.399169921875Q490.798095703125 261.19921875 512.6979370117188 228.89935302734375Q534.5977783203125 196.5994873046875 534.5977783203125 150.399658203125Q534.5977783203125 98.3997802734375 504.99786376953125 62.099853515625Q475.39794921875 25.7999267578125 421.6982421875 6.89996337890625Q367.99853515625 -12 294.59912109375 -12Z" fill="#0A0A0A"/></g><g transform="translate(541.60, 580.00) scale(0.2, -0.2)"><path d="M309.1990966796875 -12Q227.199462890625 -12 165.89971923828125 22.5999755859375Q104.5999755859375 57.199951171875 70.70013427734375 120.2999267578125Q36.80029296875 183.39990234375 36.80029296875 267.9998779296875Q36.80029296875 352.9998779296875 70.70013427734375 415.599853515625Q104.5999755859375 478.1998291015625 165.89971923828125 513.0997924804688Q227.199462890625 547.999755859375 309.1990966796875 547.999755859375Q391.19873046875 547.999755859375 452.2984619140625 513.0997924804688Q513.398193359375 478.1998291015625 547.2980346679688 415.599853515625Q581.1978759765625 352.9998779296875 581.1978759765625 267.9998779296875Q581.1978759765625 183.39990234375 547.2980346679688 120.2999267578125Q513.398193359375 57.199951171875 452.2984619140625 22.5999755859375Q391.19873046875 -12 309.1990966796875 -12ZM309.1990966796875 103.3985595703125Q365.3997802734375 103.3985595703125 396.00018310546875 146.59893798828125Q426.6005859375 189.79931640625 426.6005859375 267.9998779296875Q426.6005859375 345.6004638671875 396.00018310546875 389.100830078125Q365.3997802734375 432.6011962890625 309.1990966796875 432.6011962890625Q252.9984130859375 432.6011962890625 222.197998046875 389.100830078125Q191.3975830078125 345.6004638671875 191.3975830078125 267.9998779296875Q191.3975830078125 189.79931640625 222.197998046875 146.59893798828125Q252.9984130859375 103.3985595703125 309.1990966796875 103.3985595703125Z" fill="#0A0A0A"/></g><g transform="translate(665.20, 580.00) scale(0.2, -0.2)"><path d="M205.59912109375 0Q140.39990234375 0 103.000244140625 32.9996337890625Q65.6005859375 65.999267578125 65.6005859375 139.598388671875V710H215.597900390625V155.5980224609375Q215.597900390625 132.3983154296875 226.79779052734375 122.098388671875Q237.9976806640625 111.7984619140625 258.7974853515625 111.7984619140625H294.597900390625V0Z" fill="#0A0A0A"/></g><g transform="translate(727.80, 580.00) scale(0.2, -0.2)"><path d="M65.6005859375 0V535.999755859375H215.597900390625V0ZM63.0006103515625 601.6004638671875V722.3995361328125H218.1978759765625V601.6004638671875Z" fill="#0A0A0A"/></g><g transform="translate(784.00, 580.00) scale(0.2, -0.2)"><path d="M256.6004638671875 -12Q188.8004150390625 -12 139.5003662109375 22.29998779296875Q90.2003173828125 56.5999755859375 63.50030517578125 119.49993896484375Q36.80029296875 182.39990234375 36.80029296875 267.9998779296875Q36.80029296875 353.599853515625 63.80029296875 416.49981689453125Q90.80029296875 479.3997802734375 140.40032958984375 513.6997680664062Q190.0003662109375 547.999755859375 256.6004638671875 547.999755859375Q313.80029296875 547.999755859375 355.400390625 524.5997924804688Q397.00048828125 501.1998291015625 418.4005126953125 459.599853515625V710H568.3978271484375V0H424.6005859375L421.6005859375 78.800048828125Q399.6005859375 35.800048828125 356.10052490234375 11.9000244140625Q312.6004638671875 -12 256.6004638671875 -12ZM305.9991455078125 103.3985595703125Q342.1995849609375 103.3985595703125 367.19989013671875 121.998779296875Q392.2001953125 140.5989990234375 405.30035400390625 177.29931640625Q418.4005126953125 213.9996337890625 418.4005126953125 267.9998779296875Q418.4005126953125 322.8001708984375 405.30035400390625 359.30047607421875Q392.2001953125 395.80078125 367.19989013671875 414.20098876953125Q342.1995849609375 432.6011962890625 305.9991455078125 432.6011962890625Q253.3984375 432.6011962890625 222.39801025390625 388.5008544921875Q191.3975830078125 344.4005126953125 191.3975830078125 267.9998779296875Q191.3975830078125 193.19921875 222.697998046875 148.29888916015625Q253.9984130859375 103.3985595703125 305.9991455078125 103.3985595703125Z" fill="#0A0A0A"/></g><g transform="translate(910.80, 580.00) scale(0.2, -0.2)"><path d="M184 0Q138 0 109.0 24.0Q80 48 80 100V710H164V107Q164 91 172.5 82.5Q181 74 197 74H243V0Z" fill="#0A0A0A"/></g><g transform="translate(964.20, 580.00) scale(0.2, -0.2)"><path d="M223 -12Q141 -12 92.5 26.0Q44 64 44 132Q44 200 84.0 239.0Q124 278 211 294L399 329Q399 396 367.5 429.0Q336 462 273 462Q218 462 186.0 437.5Q154 413 142 367L53 374Q68 449 125.5 495.5Q183 542 273 542Q375 542 429.0 484.5Q483 427 483 326V107Q483 89 489.5 81.5Q496 74 511 74H532V0Q528 -1 519.0 -1.5Q510 -2 500 -2Q464 -2 441.5 9.5Q419 21 409.0 45.5Q399 70 399 110L409 108Q402 74 375.0 46.5Q348 19 308.0 3.5Q268 -12 223 -12ZM231 62Q284 62 321.5 82.5Q359 103 379.0 138.5Q399 174 399 218V256L227 224Q173 214 152.5 193.5Q132 173 132 140Q132 103 158.5 82.5Q185 62 231 62Z" fill="#0A0A0A"/></g><g transform="translate(1074.40, 580.00) scale(0.2, -0.2)"><path d="M323 -12Q268 -12 225.0 12.5Q182 37 159 80L156 0H80V710H164V456Q184 489 226.0 515.5Q268 542 323 542Q393 542 444.0 508.0Q495 474 523.0 412.0Q551 350 551 265Q551 180 523.0 118.0Q495 56 444.0 22.0Q393 -12 323 -12ZM318 68Q385 68 424.0 121.0Q463 174 463 265Q463 357 424.0 409.5Q385 462 320 462Q271 462 236.0 438.5Q201 415 182.5 371.0Q164 327 164 265Q164 205 182.5 160.5Q201 116 235.5 92.0Q270 68 318 68Z" fill="#0A0A0A"/></g><g transform="translate(1193.40, 580.00) scale(0.2, -0.2)"><path d="M44 0V113H157V0Z" fill="#4A5A62"/></g><g transform="translate(1233.60, 580.00) scale(0.2, -0.2)"><path d="M223 -12Q141 -12 92.5 26.0Q44 64 44 132Q44 200 84.0 239.0Q124 278 211 294L399 329Q399 396 367.5 429.0Q336 462 273 462Q218 462 186.0 437.5Q154 413 142 367L53 374Q68 449 125.5 495.5Q183 542 273 542Q375 542 429.0 484.5Q483 427 483 326V107Q483 89 489.5 81.5Q496 74 511 74H532V0Q528 -1 519.0 -1.5Q510 -2 500 -2Q464 -2 441.5 9.5Q419 21 409.0 45.5Q399 70 399 110L409 108Q402 74 375.0 46.5Q348 19 308.0 3.5Q268 -12 223 -12ZM231 62Q284 62 321.5 82.5Q359 103 379.0 138.5Q399 174 399 218V256L227 224Q173 214 152.5 193.5Q132 173 132 140Q132 103 158.5 82.5Q185 62 231 62Z" fill="#4A5A62"/></g><g transform="translate(1343.80, 580.00) scale(0.2, -0.2)"><path d="M80 0V530H164V0ZM78 613V711H166V613Z" fill="#4A5A62"/></g>
  <g transform="translate(540.32, 670.00) scale(0.042, -0.042)"><path d="M92 0V710H347Q466 710 532.0 653.0Q598 596 598 495Q598 427 568.0 377.5Q538 328 482.0 302.0Q426 276 347 276H178V0ZM178 360H347Q427 360 467.5 394.0Q508 428 508 495Q508 560 467.5 593.0Q427 626 347 626H178Z" fill="#4A5A62"/></g><g transform="translate(567.62, 670.00) scale(0.042, -0.042)"><path d="M80 0V530H154L158 396L150 399Q160 467 193.5 498.5Q227 530 283 530H335V450H284Q244 450 217.5 435.5Q191 421 177.5 392.5Q164 364 164 320V0Z" fill="#4A5A62"/></g><g transform="translate(583.53, 670.00) scale(0.042, -0.042)"><path d="M287 -12Q214 -12 159.0 22.0Q104 56 74.0 118.5Q44 181 44 265Q44 350 74.0 412.0Q104 474 159.0 508.0Q214 542 287 542Q360 542 414.5 508.0Q469 474 499.0 412.0Q529 350 529 265Q529 181 499.0 118.5Q469 56 414.5 22.0Q360 -12 287 -12ZM287 68Q360 68 400.5 120.5Q441 173 441 265Q441 357 400.5 409.5Q360 462 287 462Q214 462 173.0 409.5Q132 357 132 265Q132 173 173.0 120.5Q214 68 287 68Z" fill="#4A5A62"/></g><g transform="translate(607.60, 670.00) scale(0.042, -0.042)"><path d="M268 -12Q199 -12 148.5 22.0Q98 56 71.0 118.0Q44 180 44 265Q44 350 71.0 412.0Q98 474 148.5 508.0Q199 542 268 542Q321 542 365.0 519.5Q409 497 431 456V710H515V0H439L436 80Q414 37 369.0 12.5Q324 -12 268 -12ZM285 68Q332 68 364.5 92.0Q397 116 414.0 160.5Q431 205 431 265Q431 327 414.0 371.0Q397 415 364.5 438.5Q332 462 285 462Q215 462 173.5 409.5Q132 357 132 265Q132 174 173.5 121.0Q215 68 285 68Z" fill="#4A5A62"/></g><g transform="translate(632.59, 670.00) scale(0.042, -0.042)"><path d="M254 -12Q175 -12 127.5 41.5Q80 95 80 189V530H164V212Q164 135 191.5 98.5Q219 62 276 62Q339 62 375.0 102.5Q411 143 411 214V530H495V0H415V131L428 124Q412 59 367.0 23.5Q322 -12 254 -12Z" fill="#4A5A62"/></g><g transform="translate(656.74, 670.00) scale(0.042, -0.042)"><path d="M287 -12Q213 -12 158.5 22.0Q104 56 74.0 118.5Q44 181 44 265Q44 349 74.0 411.0Q104 473 158.5 507.5Q213 542 287 542Q348 542 395.5 520.5Q443 499 473.0 458.0Q503 417 512 358L424 352Q415 405 378.0 433.5Q341 462 287 462Q214 462 173.0 409.5Q132 357 132 265Q132 173 173.0 120.5Q214 68 287 68Q341 68 378.0 98.0Q415 128 424 188L512 182Q503 123 473.0 79.5Q443 36 395.5 12.0Q348 -12 287 -12Z" fill="#4A5A62"/></g><g transform="translate(679.67, 670.00) scale(0.042, -0.042)"><path d="M274 0Q202 0 167.5 33.0Q133 66 133 136V654H217V138Q217 102 233.0 88.0Q249 74 282 74H358V0ZM55 456V530H358V456Z" fill="#4A5A62"/></g><g transform="translate(696.14, 670.00) scale(0.042, -0.042)"><path d="M273 -12Q202 -12 152.5 11.0Q103 34 75.5 74.5Q48 115 44 167L132 173Q140 125 173.0 96.5Q206 68 273 68Q327 68 359.5 85.5Q392 103 392 142Q392 163 382.0 177.0Q372 191 343.0 201.5Q314 212 257 222Q181 236 137.5 256.5Q94 277 75.5 307.5Q57 338 57 380Q57 451 109.0 496.5Q161 542 257 542Q322 542 366.5 518.5Q411 495 436.5 456.5Q462 418 470 372L382 366Q376 394 360.0 415.5Q344 437 318.0 449.5Q292 462 256 462Q199 462 172.0 440.0Q145 418 145 384Q145 358 157.5 341.5Q170 325 198.0 314.5Q226 304 273 296Q354 282 399.0 262.0Q444 242 462.0 213.0Q480 184 480 142Q480 93 452.5 58.5Q425 24 378.5 6.0Q332 -12 273 -12Z" fill="#4A5A62"/></g><g transform="translate(718.14, 670.00) scale(0.042, -0.042)"><path d="M47 -156 95 0H44V113H157V14L97 -156Z" fill="#4A5A62"/></g><g transform="translate(737.09, 670.00) scale(0.042, -0.042)"><path d="M215 0 22 530H114L268 86L422 530H514L321 0Z" fill="#4A5A62"/></g><g transform="translate(759.60, 670.00) scale(0.042, -0.042)"><path d="M287 -12Q212 -12 157.5 22.0Q103 56 73.5 118.5Q44 181 44 265Q44 349 73.5 411.0Q103 473 156.5 507.5Q210 542 283 542Q352 542 405.0 509.5Q458 477 487.5 415.0Q517 353 517 264V239H132Q137 154 177.5 111.0Q218 68 287 68Q339 68 372.5 92.5Q406 117 419 157L509 150Q488 79 429.5 33.5Q371 -12 287 -12ZM132 313H425Q419 390 380.5 426.0Q342 462 283 462Q222 462 182.5 424.5Q143 387 132 313Z" fill="#4A5A62"/></g><g transform="translate(783.16, 670.00) scale(0.042, -0.042)"><path d="M80 0V530H157L160 395L150 404Q160 451 185.0 481.5Q210 512 245.5 527.0Q281 542 322 542Q383 542 422.5 515.0Q462 488 481.5 442.5Q501 397 501 341V0H417V317Q417 366 405.5 399.5Q394 433 369.0 450.5Q344 468 304 468Q243 468 203.5 429.5Q164 391 164 317V0Z" fill="#4A5A62"/></g><g transform="translate(807.56, 670.00) scale(0.042, -0.042)"><path d="M274 0Q202 0 167.5 33.0Q133 66 133 136V654H217V138Q217 102 233.0 88.0Q249 74 282 74H358V0ZM55 456V530H358V456Z" fill="#4A5A62"/></g><g transform="translate(824.03, 670.00) scale(0.042, -0.042)"><path d="M254 -12Q175 -12 127.5 41.5Q80 95 80 189V530H164V212Q164 135 191.5 98.5Q219 62 276 62Q339 62 375.0 102.5Q411 143 411 214V530H495V0H415V131L428 124Q412 59 367.0 23.5Q322 -12 254 -12Z" fill="#4A5A62"/></g><g transform="translate(848.18, 670.00) scale(0.042, -0.042)"><path d="M80 0V530H154L158 396L150 399Q160 467 193.5 498.5Q227 530 283 530H335V450H284Q244 450 217.5 435.5Q191 421 177.5 392.5Q164 364 164 320V0Z" fill="#4A5A62"/></g><g transform="translate(864.09, 670.00) scale(0.042, -0.042)"><path d="M287 -12Q212 -12 157.5 22.0Q103 56 73.5 118.5Q44 181 44 265Q44 349 73.5 411.0Q103 473 156.5 507.5Q210 542 283 542Q352 542 405.0 509.5Q458 477 487.5 415.0Q517 353 517 264V239H132Q137 154 177.5 111.0Q218 68 287 68Q339 68 372.5 92.5Q406 117 419 157L509 150Q488 79 429.5 33.5Q371 -12 287 -12ZM132 313H425Q419 390 380.5 426.0Q342 462 283 462Q222 462 182.5 424.5Q143 387 132 313Z" fill="#4A5A62"/></g><g transform="translate(887.66, 670.00) scale(0.042, -0.042)"><path d="M273 -12Q202 -12 152.5 11.0Q103 34 75.5 74.5Q48 115 44 167L132 173Q140 125 173.0 96.5Q206 68 273 68Q327 68 359.5 85.5Q392 103 392 142Q392 163 382.0 177.0Q372 191 343.0 201.5Q314 212 257 222Q181 236 137.5 256.5Q94 277 75.5 307.5Q57 338 57 380Q57 451 109.0 496.5Q161 542 257 542Q322 542 366.5 518.5Q411 495 436.5 456.5Q462 418 470 372L382 366Q376 394 360.0 415.5Q344 437 318.0 449.5Q292 462 256 462Q199 462 172.0 440.0Q145 418 145 384Q145 358 157.5 341.5Q170 325 198.0 314.5Q226 304 273 296Q354 282 399.0 262.0Q444 242 462.0 213.0Q480 184 480 142Q480 93 452.5 58.5Q425 24 378.5 6.0Q332 -12 273 -12Z" fill="#4A5A62"/></g><g transform="translate(909.66, 670.00) scale(0.042, -0.042)"><path d="M47 -156 95 0H44V113H157V14L97 -156Z" fill="#4A5A62"/></g><g transform="translate(928.61, 670.00) scale(0.042, -0.042)"><path d="M273 -12Q202 -12 152.5 11.0Q103 34 75.5 74.5Q48 115 44 167L132 173Q140 125 173.0 96.5Q206 68 273 68Q327 68 359.5 85.5Q392 103 392 142Q392 163 382.0 177.0Q372 191 343.0 201.5Q314 212 257 222Q181 236 137.5 256.5Q94 277 75.5 307.5Q57 338 57 380Q57 451 109.0 496.5Q161 542 257 542Q322 542 366.5 518.5Q411 495 436.5 456.5Q462 418 470 372L382 366Q376 394 360.0 415.5Q344 437 318.0 449.5Q292 462 256 462Q199 462 172.0 440.0Q145 418 145 384Q145 358 157.5 341.5Q170 325 198.0 314.5Q226 304 273 296Q354 282 399.0 262.0Q444 242 462.0 213.0Q480 184 480 142Q480 93 452.5 58.5Q425 24 378.5 6.0Q332 -12 273 -12Z" fill="#4A5A62"/></g><g transform="translate(950.61, 670.00) scale(0.042, -0.042)"><path d="M287 -12Q214 -12 159.0 22.0Q104 56 74.0 118.5Q44 181 44 265Q44 350 74.0 412.0Q104 474 159.0 508.0Q214 542 287 542Q360 542 414.5 508.0Q469 474 499.0 412.0Q529 350 529 265Q529 181 499.0 118.5Q469 56 414.5 22.0Q360 -12 287 -12ZM287 68Q360 68 400.5 120.5Q441 173 441 265Q441 357 400.5 409.5Q360 462 287 462Q214 462 173.0 409.5Q132 357 132 265Q132 173 173.0 120.5Q214 68 287 68Z" fill="#4A5A62"/></g><g transform="translate(974.68, 670.00) scale(0.042, -0.042)"><path d="M80 0V530H157L160 396L148 400Q157 444 179.5 475.5Q202 507 235.0 524.5Q268 542 308 542Q377 542 420.5 504.0Q464 466 475 398L459 399Q467 445 488.5 476.5Q510 508 544.0 525.0Q578 542 622 542Q679 542 718.0 518.5Q757 495 777.0 450.0Q797 405 797 341V0H713V323Q713 395 685.0 431.5Q657 468 602 468Q565 468 537.5 450.0Q510 432 495.0 398.5Q480 365 480 317V0H396V317Q396 388 371.0 428.0Q346 468 287 468Q250 468 222.5 450.0Q195 432 179.5 398.0Q164 364 164 317V0Z" fill="#4A5A62"/></g><g transform="translate(1011.51, 670.00) scale(0.042, -0.042)"><path d="M287 -12Q212 -12 157.5 22.0Q103 56 73.5 118.5Q44 181 44 265Q44 349 73.5 411.0Q103 473 156.5 507.5Q210 542 283 542Q352 542 405.0 509.5Q458 477 487.5 415.0Q517 353 517 264V239H132Q137 154 177.5 111.0Q218 68 287 68Q339 68 372.5 92.5Q406 117 419 157L509 150Q488 79 429.5 33.5Q371 -12 287 -12ZM132 313H425Q419 390 380.5 426.0Q342 462 283 462Q222 462 182.5 424.5Q143 387 132 313Z" fill="#4A5A62"/></g><g transform="translate(1035.08, 670.00) scale(0.042, -0.042)"><path d="M274 0Q202 0 167.5 33.0Q133 66 133 136V654H217V138Q217 102 233.0 88.0Q249 74 282 74H358V0ZM55 456V530H358V456Z" fill="#4A5A62"/></g><g transform="translate(1051.54, 670.00) scale(0.042, -0.042)"><path d="M80 0V530H164V0ZM78 613V711H166V613Z" fill="#4A5A62"/></g><g transform="translate(1061.79, 670.00) scale(0.042, -0.042)"><path d="M80 0V530H157L160 396L148 400Q157 444 179.5 475.5Q202 507 235.0 524.5Q268 542 308 542Q377 542 420.5 504.0Q464 466 475 398L459 399Q467 445 488.5 476.5Q510 508 544.0 525.0Q578 542 622 542Q679 542 718.0 518.5Q757 495 777.0 450.0Q797 405 797 341V0H713V323Q713 395 685.0 431.5Q657 468 602 468Q565 468 537.5 450.0Q510 432 495.0 398.5Q480 365 480 317V0H396V317Q396 388 371.0 428.0Q346 468 287 468Q250 468 222.5 450.0Q195 432 179.5 398.0Q164 364 164 317V0Z" fill="#4A5A62"/></g><g transform="translate(1098.62, 670.00) scale(0.042, -0.042)"><path d="M287 -12Q212 -12 157.5 22.0Q103 56 73.5 118.5Q44 181 44 265Q44 349 73.5 411.0Q103 473 156.5 507.5Q210 542 283 542Q352 542 405.0 509.5Q458 477 487.5 415.0Q517 353 517 264V239H132Q137 154 177.5 111.0Q218 68 287 68Q339 68 372.5 92.5Q406 117 419 157L509 150Q488 79 429.5 33.5Q371 -12 287 -12ZM132 313H425Q419 390 380.5 426.0Q342 462 283 462Q222 462 182.5 424.5Q143 387 132 313Z" fill="#4A5A62"/></g><g transform="translate(1122.18, 670.00) scale(0.042, -0.042)"><path d="M273 -12Q202 -12 152.5 11.0Q103 34 75.5 74.5Q48 115 44 167L132 173Q140 125 173.0 96.5Q206 68 273 68Q327 68 359.5 85.5Q392 103 392 142Q392 163 382.0 177.0Q372 191 343.0 201.5Q314 212 257 222Q181 236 137.5 256.5Q94 277 75.5 307.5Q57 338 57 380Q57 451 109.0 496.5Q161 542 257 542Q322 542 366.5 518.5Q411 495 436.5 456.5Q462 418 470 372L382 366Q376 394 360.0 415.5Q344 437 318.0 449.5Q292 462 256 462Q199 462 172.0 440.0Q145 418 145 384Q145 358 157.5 341.5Q170 325 198.0 314.5Q226 304 273 296Q354 282 399.0 262.0Q444 242 462.0 213.0Q480 184 480 142Q480 93 452.5 58.5Q425 24 378.5 6.0Q332 -12 273 -12Z" fill="#4A5A62"/></g><g transform="translate(1154.69, 670.00) scale(0.042, -0.042)"><path d="M287 -12Q213 -12 158.5 22.0Q104 56 74.0 118.5Q44 181 44 265Q44 349 74.0 411.0Q104 473 158.5 507.5Q213 542 287 542Q348 542 395.5 520.5Q443 499 473.0 458.0Q503 417 512 358L424 352Q415 405 378.0 433.5Q341 462 287 462Q214 462 173.0 409.5Q132 357 132 265Q132 173 173.0 120.5Q214 68 287 68Q341 68 378.0 98.0Q415 128 424 188L512 182Q503 123 473.0 79.5Q443 36 395.5 12.0Q348 -12 287 -12Z" fill="#4A5A62"/></g><g transform="translate(1177.62, 670.00) scale(0.042, -0.042)"><path d="M80 0V710H164V413L154 415Q164 459 188.0 487.0Q212 515 247.0 528.5Q282 542 324 542Q381 542 420.5 516.5Q460 491 480.5 445.5Q501 400 501 341V0H417V317Q417 394 389.5 431.0Q362 468 306 468Q242 468 203.0 429.0Q164 390 164 316V0Z" fill="#4A5A62"/></g><g transform="translate(1202.03, 670.00) scale(0.042, -0.042)"><path d="M223 -12Q141 -12 92.5 26.0Q44 64 44 132Q44 200 84.0 239.0Q124 278 211 294L399 329Q399 396 367.5 429.0Q336 462 273 462Q218 462 186.0 437.5Q154 413 142 367L53 374Q68 449 125.5 495.5Q183 542 273 542Q375 542 429.0 484.5Q483 427 483 326V107Q483 89 489.5 81.5Q496 74 511 74H532V0Q528 -1 519.0 -1.5Q510 -2 500 -2Q464 -2 441.5 9.5Q419 21 409.0 45.5Q399 70 399 110L409 108Q402 74 375.0 46.5Q348 19 308.0 3.5Q268 -12 223 -12ZM231 62Q284 62 321.5 82.5Q359 103 379.0 138.5Q399 174 399 218V256L227 224Q173 214 152.5 193.5Q132 173 132 140Q132 103 158.5 82.5Q185 62 231 62Z" fill="#4A5A62"/></g><g transform="translate(1225.17, 670.00) scale(0.042, -0.042)"><path d="M287 -12Q214 -12 159.0 22.0Q104 56 74.0 118.5Q44 181 44 265Q44 350 74.0 412.0Q104 474 159.0 508.0Q214 542 287 542Q360 542 414.5 508.0Q469 474 499.0 412.0Q529 350 529 265Q529 181 499.0 118.5Q469 56 414.5 22.0Q360 -12 287 -12ZM287 68Q360 68 400.5 120.5Q441 173 441 265Q441 357 400.5 409.5Q360 462 287 462Q214 462 173.0 409.5Q132 357 132 265Q132 173 173.0 120.5Q214 68 287 68Z" fill="#4A5A62"/></g><g transform="translate(1249.23, 670.00) scale(0.042, -0.042)"><path d="M273 -12Q202 -12 152.5 11.0Q103 34 75.5 74.5Q48 115 44 167L132 173Q140 125 173.0 96.5Q206 68 273 68Q327 68 359.5 85.5Q392 103 392 142Q392 163 382.0 177.0Q372 191 343.0 201.5Q314 212 257 222Q181 236 137.5 256.5Q94 277 75.5 307.5Q57 338 57 380Q57 451 109.0 496.5Q161 542 257 542Q322 542 366.5 518.5Q411 495 436.5 456.5Q462 418 470 372L382 366Q376 394 360.0 415.5Q344 437 318.0 449.5Q292 462 256 462Q199 462 172.0 440.0Q145 418 145 384Q145 358 157.5 341.5Q170 325 198.0 314.5Q226 304 273 296Q354 282 399.0 262.0Q444 242 462.0 213.0Q480 184 480 142Q480 93 452.5 58.5Q425 24 378.5 6.0Q332 -12 273 -12Z" fill="#4A5A62"/></g><g transform="translate(1271.24, 670.00) scale(0.042, -0.042)"><path d="M44 0V113H157V0Z" fill="#4A5A62"/></g>
  <g transform="translate(1307.60, 1120.00) scale(0.032, -0.032)"><path d="M108 -110 412 750H492L188 -110Z" fill="#4A5A62"/></g><g transform="translate(1346.00, 1120.00) scale(0.032, -0.032)"><path d="M306 -12Q231 -12 176.5 22.0Q122 56 92.5 118.5Q63 181 63 265Q63 349 92.5 411.0Q122 473 175.5 507.5Q229 542 302 542Q371 542 424.0 509.5Q477 477 507.0 415.0Q537 353 537 264V239H151Q156 154 196.5 111.0Q237 68 306 68Q358 68 391.5 92.5Q425 117 438 157L528 150Q507 79 448.5 33.5Q390 -12 306 -12ZM151 313H445Q439 390 400.0 426.0Q361 462 302 462Q241 462 201.5 424.5Q162 387 151 313Z" fill="#4A5A62"/></g><g transform="translate(1365.20, 1120.00) scale(0.032, -0.032)"><path d="M310 -12Q241 -12 191.0 12.0Q141 36 112.5 76.5Q84 117 80 167L168 173Q176 124 211.5 96.0Q247 68 310 68Q369 68 401.5 85.0Q434 102 434 138Q434 161 423.0 176.0Q412 191 382.0 201.5Q352 212 294 222Q217 236 173.5 256.5Q130 277 112.0 308.0Q94 339 94 382Q94 428 117.0 464.0Q140 500 185.0 521.0Q230 542 295 542Q361 542 405.5 518.5Q450 495 476.0 456.5Q502 418 510 372L422 366Q416 394 399.5 415.5Q383 437 356.5 449.5Q330 462 294 462Q236 462 208.0 439.0Q180 416 180 382Q180 355 193.0 339.0Q206 323 235.0 313.5Q264 304 312 296Q394 283 439.0 262.5Q484 242 502.0 212.0Q520 182 520 138Q520 91 492.5 57.5Q465 24 417.5 6.0Q370 -12 310 -12Z" fill="#4A5A62"/></g><g transform="translate(1384.40, 1120.00) scale(0.032, -0.032)"><path d="M378 0Q301 0 263.0 36.0Q225 72 225 146V654H309V146Q309 109 326.0 91.5Q343 74 378 74H520V0ZM50 456V530H520V456Z" fill="#4A5A62"/></g><g transform="translate(1422.80, 1120.00) scale(0.032, -0.032)"><path d="M50 0Q50 75 73.5 135.5Q97 196 156.5 251.0Q216 306 322 362Q371 388 401.0 410.0Q431 432 445.0 457.0Q459 482 459 518Q459 555 443.0 582.5Q427 610 395.5 626.0Q364 642 317 642Q242 642 198.5 603.0Q155 564 144 492L54 498Q66 602 134.0 664.0Q202 726 317 726Q390 726 442.0 700.0Q494 674 521.5 627.5Q549 581 549 520Q549 466 531.0 426.5Q513 387 470.5 353.0Q428 319 354 280Q290 246 246.5 211.0Q203 176 180.5 143.5Q158 111 156 84H550V0Z" fill="#4A5A62"/></g><g transform="translate(1442.00, 1120.00) scale(0.032, -0.032)"><path d="M120 102 400 612 480 608 200 98ZM300 -16Q223 -16 166.5 29.0Q110 74 80.0 157.0Q50 240 50 354Q50 469 80.0 552.0Q110 635 166.5 680.5Q223 726 300 726Q378 726 434.0 680.5Q490 635 520.0 552.0Q550 469 550 354Q550 240 520.0 157.0Q490 74 434.0 29.0Q378 -16 300 -16ZM300 68Q350 68 385.5 103.0Q421 138 440.5 202.5Q460 267 460 354Q460 443 440.5 507.5Q421 572 385.5 607.0Q350 642 300 642Q251 642 215.0 607.0Q179 572 159.5 507.5Q140 443 140 354Q140 267 159.5 202.5Q179 138 215.0 103.0Q251 68 300 68Z" fill="#4A5A62"/></g><g transform="translate(1461.20, 1120.00) scale(0.032, -0.032)"><path d="M50 0Q50 75 73.5 135.5Q97 196 156.5 251.0Q216 306 322 362Q371 388 401.0 410.0Q431 432 445.0 457.0Q459 482 459 518Q459 555 443.0 582.5Q427 610 395.5 626.0Q364 642 317 642Q242 642 198.5 603.0Q155 564 144 492L54 498Q66 602 134.0 664.0Q202 726 317 726Q390 726 442.0 700.0Q494 674 521.5 627.5Q549 581 549 520Q549 466 531.0 426.5Q513 387 470.5 353.0Q428 319 354 280Q290 246 246.5 211.0Q203 176 180.5 143.5Q158 111 156 84H550V0Z" fill="#4A5A62"/></g><g transform="translate(1480.40, 1120.00) scale(0.032, -0.032)"><path d="M302 -16Q222 -16 165.5 20.5Q109 57 79.5 128.0Q50 199 50 300Q50 388 64.5 465.0Q79 542 111.5 600.5Q144 659 197.5 692.5Q251 726 330 726Q393 726 437.0 705.0Q481 684 508.5 646.0Q536 608 550 558L460 550Q448 592 418.5 617.0Q389 642 330 642Q271 642 229.0 608.5Q187 575 163.5 508.0Q140 441 138 340L120 344Q131 380 158.5 410.5Q186 441 226.5 459.5Q267 478 318 478Q388 478 440.0 448.0Q492 418 521.0 363.5Q550 309 550 236Q550 158 518.5 101.5Q487 45 431.5 14.5Q376 -16 302 -16ZM304 68Q374 68 417.0 112.5Q460 157 460 236Q460 310 419.5 353.0Q379 396 312 396Q264 396 226.0 376.5Q188 357 166.0 321.0Q144 285 144 236Q144 187 163.5 149.0Q183 111 219.0 89.5Q255 68 304 68Z" fill="#4A5A62"/></g><g transform="translate(1518.80, 1120.00) scale(0.032, -0.032)"><path d="M20 253V331H580V253Z" fill="#4A5A62"/></g><g transform="translate(1557.20, 1120.00) scale(0.032, -0.032)"><path d="M310 -12Q241 -12 191.0 12.0Q141 36 112.5 76.5Q84 117 80 167L168 173Q176 124 211.5 96.0Q247 68 310 68Q369 68 401.5 85.0Q434 102 434 138Q434 161 423.0 176.0Q412 191 382.0 201.5Q352 212 294 222Q217 236 173.5 256.5Q130 277 112.0 308.0Q94 339 94 382Q94 428 117.0 464.0Q140 500 185.0 521.0Q230 542 295 542Q361 542 405.5 518.5Q450 495 476.0 456.5Q502 418 510 372L422 366Q416 394 399.5 415.5Q383 437 356.5 449.5Q330 462 294 462Q236 462 208.0 439.0Q180 416 180 382Q180 355 193.0 339.0Q206 323 235.0 313.5Q264 304 312 296Q394 283 439.0 262.5Q484 242 502.0 212.0Q520 182 520 138Q520 91 492.5 57.5Q465 24 417.5 6.0Q370 -12 310 -12Z" fill="#4A5A62"/></g><g transform="translate(1576.40, 1120.00) scale(0.032, -0.032)"><path d="M378 0Q301 0 263.0 36.0Q225 72 225 146V654H309V146Q309 109 326.0 91.5Q343 74 378 74H520V0ZM50 456V530H520V456Z" fill="#4A5A62"/></g><g transform="translate(1595.60, 1120.00) scale(0.032, -0.032)"><path d="M230 -12Q180 -12 140.0 6.0Q100 24 77.0 56.5Q54 89 54 132Q54 200 94.5 237.5Q135 275 222 292L400 328Q400 396 369.5 429.0Q339 462 282 462Q227 462 196.0 437.5Q165 413 153 367L64 374Q79 449 135.5 495.5Q192 542 282 542Q378 542 431.0 484.5Q484 427 484 326V106Q484 88 492.0 81.0Q500 74 516 74H550V0Q544 -1 531.0 -1.5Q518 -2 506 -2Q472 -2 448.5 9.0Q425 20 413.0 44.5Q401 69 400 108H416Q409 74 382.5 46.5Q356 19 316.0 3.5Q276 -12 230 -12ZM238 62Q292 62 328.0 80.5Q364 99 382.0 132.5Q400 166 400 210V256L238 224Q184 214 163.0 193.5Q142 173 142 140Q142 103 167.5 82.5Q193 62 238 62Z" fill="#4A5A62"/></g><g transform="translate(1614.80, 1120.00) scale(0.032, -0.032)"><path d="M247 0 50 530H142L300 86L458 530H550L353 0Z" fill="#4A5A62"/></g><g transform="translate(1634.00, 1120.00) scale(0.032, -0.032)"><path d="M230 -12Q180 -12 140.0 6.0Q100 24 77.0 56.5Q54 89 54 132Q54 200 94.5 237.5Q135 275 222 292L400 328Q400 396 369.5 429.0Q339 462 282 462Q227 462 196.0 437.5Q165 413 153 367L64 374Q79 449 135.5 495.5Q192 542 282 542Q378 542 431.0 484.5Q484 427 484 326V106Q484 88 492.0 81.0Q500 74 516 74H550V0Q544 -1 531.0 -1.5Q518 -2 506 -2Q472 -2 448.5 9.0Q425 20 413.0 44.5Q401 69 400 108H416Q409 74 382.5 46.5Q356 19 316.0 3.5Q276 -12 230 -12ZM238 62Q292 62 328.0 80.5Q364 99 382.0 132.5Q400 166 400 210V256L238 224Q184 214 163.0 193.5Q142 173 142 140Q142 103 167.5 82.5Q193 62 238 62Z" fill="#4A5A62"/></g><g transform="translate(1653.20, 1120.00) scale(0.032, -0.032)"><path d="M84 0V530H161L164 395L154 404Q164 451 190.5 481.5Q217 512 254.0 527.0Q291 542 332 542Q393 542 433.5 515.0Q474 488 495.0 442.5Q516 397 516 341V0H432V317Q432 391 403.0 429.5Q374 468 314 468Q273 468 240.0 450.5Q207 433 187.5 399.5Q168 366 168 317V0Z" fill="#4A5A62"/></g><g transform="translate(1672.40, 1120.00) scale(0.032, -0.032)"><path d="M297 -162Q240 -162 194.0 -143.0Q148 -124 117.0 -89.0Q86 -54 75 -8L163 -2Q175 -39 205.5 -60.5Q236 -82 297 -82Q369 -82 407.5 -53.0Q446 -24 446 34V120Q427 78 385.0 53.0Q343 28 291 28Q224 28 171.5 61.0Q119 94 89.5 152.0Q60 210 60 285Q60 361 89.0 418.5Q118 476 169.5 509.0Q221 542 287 542Q343 542 387.5 516.0Q432 490 450 446V530H530V36Q530 -26 502.0 -70.5Q474 -115 422.0 -138.5Q370 -162 297 -162ZM295 108Q363 108 404.0 155.5Q445 203 446 285Q447 340 428.5 379.5Q410 419 375.5 440.5Q341 462 295 462Q225 462 186.5 414.5Q148 367 148 285Q148 203 187.5 155.5Q227 108 295 108Z" fill="#4A5A62"/></g><g transform="translate(1691.60, 1120.00) scale(0.032, -0.032)"><path d="M306 -12Q231 -12 176.5 22.0Q122 56 92.5 118.5Q63 181 63 265Q63 349 92.5 411.0Q122 473 175.5 507.5Q229 542 302 542Q371 542 424.0 509.5Q477 477 507.0 415.0Q537 353 537 264V239H151Q156 154 196.5 111.0Q237 68 306 68Q358 68 391.5 92.5Q425 117 438 157L528 150Q507 79 448.5 33.5Q390 -12 306 -12ZM151 313H445Q439 390 400.0 426.0Q361 462 302 462Q241 462 201.5 424.5Q162 387 151 313Z" fill="#4A5A62"/></g><g transform="translate(1710.80, 1120.00) scale(0.032, -0.032)"><path d="M90 0V74H269L228 34V497L269 456H90V530H298L306 388L298 394Q306 463 340.0 496.5Q374 530 431 530H540V454H432Q393 454 366.5 438.5Q340 423 326.0 393.5Q312 364 312 320V34L272 74H480V0Z" fill="#4A5A62"/></g>
</svg>